<svg clip-rule="evenodd" fill-rule="evenodd" stroke-linejoin="round" stroke-miterlimit="2" viewBox="0 0 518 512" xmlns="http://www.w3.org/2000/svg">
  <path d="m0 0h517.99v512h-517.99z" fill="#4c566a" />
  <g fill="#d8dee9">
    <path d="m269.09 346.496-3.416 9.152-6.99-.573-3.008-9.187z" fill-rule="nonzero" />
    <path
      d="m255.673 346.02c-.69-1.065-.831-2.484-1.888-3.806l-.57 12.279-1.967.019-1.315-9.543-2.315 4.392c-3.968-4.596-7.647-8.857-11.896-13.781l-.782-5.95-8.989 3.056 1.153-7.505-5.915.663c-1.001-1.743-2.682-3.338-2.51-4.696.237-1.858 1.711-3.672 2.977-5.249 1.192-1.484 2.802-2.633 4.234-3.898 2.116 4.627 4.236 9.251 6.362 13.873l7.828-3.125c-.19 2.046-.34 3.659-.507 5.476 6.62-2.208 3.68 2.61 4.943 3.763l7.025 5.216 2.248-6.705c1.33 2.161 2.081 3.379 2.844 4.616l3.363-4.636c1.499 3.196 2.643 5.64 4.246 9.055.471-3.299.769-5.4 1.155-8.102 2.767 1.774 4.925 3.159 6.954 4.464.701-1.939 1.4-3.879 2.099-5.819 3.223.884 5.953 1.635 8.839 2.428.095-1.315.208-2.898.382-5.283 2.272 1.801 3.975 3.147 6.857 5.43l-3.114-6.081c.266-.251.535-.505.804-.755 1.805 1.29 3.61 2.58 5.675 4.053-.823-6.951 4.169-1.502 6.01-3.162-1.391-1.681-2.608-3.158-3.943-4.77l6.416-2.122c-2.696-1.725-4.301-2.75-6.089-3.894 1.355-.488 2.453-.88 3.801-1.364-1.917-1.255-3.513-2.157-4.944-3.269-5.664-4.395-11.252-8.888-16.943-13.246-.801-.615-1.992-.885-3.035-.984-7.237-.68-14.472-1.365-21.723-1.811-1.535-.096-3.368.431-4.659 1.282-7.702 5.082-15.285 10.345-22.908 15.547-.557.392-1.112.781-1.669 1.173l-4.428-7.569c4.382-.921 7.873-.881 10.522-2.353 9.589-5.32 18.992-10.968 28.194-16.934 1.913-1.245 3.569-4.337 3.675-6.655.477-10.423-5.214-18.074-14.817-21.989-3.953-1.61-7.66-4.069-11.082-6.662-2.921-2.214-3.968-5.338-1.146-9.095l5.834 3.271c5.345-6.484 6.901-6.796 14.746-3.253 7.376 3.333 14.667 2.445 21.946-.46 6.159-2.458 8.74-1.386 11.073 4.7 1.087-.841 2.034-1.68 3.085-2.361 1.024-.662 2.153-1.158 3.301-1.763 3.617 10.758-4.934 16.381-14.505 18.84-10.182 2.616-15.875 8.706-15.497 18.904.083 2.221 1.575 4.938 3.29 6.44 5.084 4.454 10.275 8.957 16.038 12.426 6.516 3.922 13.509 7.517 21.716 5.425l-.171-.137-3.429 8.186c6.124 4.201 7.053 10.893 2.376 22.485-1.705-1.225-3.339-2.395-5.679-4.078 1.441 2.574 2.531 4.526 4.288 7.664l-8.21-2.827v9.667c-2.936-3.303-5.124-5.764-7.314-8.224l-1.2.673c.363 3.266.73 6.533 1.207 10.815l-5.942-4.082-2.618 4.856-2.969-5.878c-.256.014-.514.032-.771.05.178 2.309.193 4.644.577 6.919.376 2.229 1.125 4.392.52 7.024-2.205-3.044-4.411-6.086-7.73-10.658m-2.758-81.766c.587.201 1.172.401 1.759.604 1.662-9.469 3.774-18.646 13.889-23.058-11.568 5.662-22.783 3.798-34.237-.227 10.944 3.691 10.058 14.107 12.442 22.509.461-.184.92-.367 1.383-.55l2.031-8.067 1.363.112zm33.722-35.014c-5.269-7.072-8.988-20.022-6.779-24.236 2.273 8.122 4.456 15.93 6.779 24.236zm-64.766-25.346c1.354 8.043-2.249 17.853-7.614 23.584zm89.075-3.143c-1.222 2.059-1.965 5.139-3.758 5.977-4.413 2.061-9.31 3.091-14.013 4.536-.27-.559-.543-1.117-.814-1.674 5.729-3.185 11.459-6.371 17.193-9.557zm-119.149-1.699 14.944 9.447c-.411.555-.823 1.113-1.235 1.667-4.278-4.37-14.49-.737-15.167-9.972zm94.594 6.491c-1.204-.956-2.934-2.331-5.496-4.369 1.167-3.688 1.792-8.266 4.055-11.804 1.279-1.999 5.51-3.57 7.953-3.075 5.631 1.142 11.024 3.563 16.412 5.724.924.372 1.338 2.014 1.988 3.069-1.067.517-2.115 1.083-3.21 1.54-1.45.608-2.941 1.119-4.405 1.698-3.754 1.484-7.511 2.956-11.245 4.485-1.762.723-3.479 1.565-6.052 2.732zm4.637-4.626c.904.071 1.81.143 2.715.212 2.012-2.48 4.025-4.96 6.04-7.439-2.034-1.466-3.885-3.696-6.14-4.223-3.41-.797-6.794.732-6.422 4.82.21 2.305 2.47 4.425 3.807 6.63zm-71.289 2.7c-9.072-1.435-17.759-.697-23.49-8.904-.938-1.342-4.74-.689-8.453-1.093 1.753-1.949 3.118-4.887 5.14-5.443 5.424-1.493 10.995-2.388 16.614-2.668 4.966-.241 7.924 2.605 8.293 7.947.213 3.085 1.114 6.124 1.896 10.161zm-6.731-9.97c.373-4.088-3.011-5.617-6.422-4.82-2.253.527-4.107 2.757-6.14 4.224 2.014 2.479 4.027 4.958 6.039 7.439.906-.07 1.811-.142 2.717-.212 1.337-2.205 3.597-4.324 3.806-6.631zm-4.956-72.875 5.127.784-5.807-7.416 1.211-1.268c2.79 2.155 5.58 4.31 8.73 6.741l-.583-4.173 8.969 4.316.027-.927-13.644-15.729c.32-.517.64-1.037.96-1.556 2.693 1.987 6.153 3.464 7.898 6.082 2.639 3.957 5.809 5.934 10.302 7.086 3.49.895 6.631 3.143 10.576 5.115l-7.729-28.38 10.968 11.006 1.388-.613c-5.078-5.079-7.954-10.599-3.816-18.678l3.387 11.849c.478-.098.955-.193 1.434-.289l2.12-12.686 1.672.077c.372 3.128.742 6.253 1.115 9.379l1.45.1c.29-3.43.578-6.86.963-11.414 4.854 6.914 3.7 12.679 1.073 18.663 1.626-2.177 3.251-4.355 4.578-6.131.513 4.519 1.412 8.779 1.305 13.015-.053 2.201-1.725 4.448-2.946 6.51-2.08 3.525-1.947 4.509 1.984 7.311l1.313-6.478 1.703-.309 1.963 10.285 29.189-21.259c-1.703 8.361-11.498 10.872-13.708 18.842 3.513-2.025 7.24-4.176 10.97-6.328l.865 1.058c-.361.922-.721 1.846-1.567 4.003l11.592-4.501c-.66 5.297-5.24 5.8-9.978 8.09h8.297c-3.617 4.697-7.575 3.861-11.578 3.771-5.97-.136-12.042-.235-17.895.72-3.46.564-6.581 3.188-10.967 5.464-1.472-.907-3.923-3.402-6.706-3.848-2.832-.452-6.289.543-8.932 1.935-3.392 1.783-5.479 1.078-8.632-.79-3.378-1.998-7.74-2.564-11.761-3.196-6.021-.949-12.133-1.366-16.88-6.233zm154.866-20.074c-5.376-.047-10.8.325-16.112-.276-4.244-.478-8.351-2.144-12.519-3.282 6.434.397 12.888.605 19.293 1.27 3.158.327 6.227 1.499 9.338 2.288z"
    />
    <path
      d="m364.566 85.199c.217.043.432.035.639-.026-4.406 3.318-8.796 6.649-13.214 9.943-1.326.991-2.731 1.876-4.102 2.809l-1.795-1.519c6.358-3.858 12.415-7.533 18.472-11.207z"
    />
    <path
      d="m364.566 85.199c-1.989.481-3.954 1.138-5.97 1.402-3.979.521-7.979.866-11.977 1.204-4.879.414-9.765.746-14.985 1.141-1.464-4.461.249-7.559 6.745-9.189 5.385-1.352 9.986-3.433 12.338-9.08l-30.085 10.535c1.313-3.547 2.491-6.726 4.123-11.128l-15.865 9.918v-14.831c-3.045 5.294-5.738 9.968-8.538 14.835-4.433-7.174 3.669-12.629 2.705-19.255-2.286 2.976-4.319 5.618-6.349 8.259 2.081-4.935 4.163-9.872 6.246-14.806l2.238.658c-1.064 6.007-2.128 12.016-3.19 18.001 4.848-5.634 7.756-14.081 18.196-14.767-7.139 4.857-11.045 10.505-10.799 18.251 4.794-2.249 9.575-3.831 13.502-6.612 1.994-1.409 2.599-4.929 3.559-7.594 1.255-3.478 2.243-7.052 4.086-10.348-1.045 9.12 3.469 19.996-9.357 25.379.688.358 1.379.716 2.066 1.075l35.932-12.074c-4.308 4.338-7.777 8.836-12.203 11.993-4.154 2.958-9.319 4.497-13.651 7.604 11.431-.122 22.815 2.416 33.393-3.51 3.757-2.107 8.399-2.642 12.819-3.194-4.782 2.034-9.566 4.07-14.34 6.107-.208.061-.427.07-.639.026zm-71.162-15.237c-1.114 3.731-2.228 7.461-3.362 11.25-6.224-3.744-8.397-9.131-6.242-16.264 1.348-4.465.867-7.967-3.498-10.607 1.256 5.892 1.256 5.892-3.571 18.303-6.408-3.919-2.012-15.206-11.936-16.404.534 6.078 3.935 12.618-.528 19.479-1.678-4.76-3.356-9.52-5.036-14.279l5.36 7.18c1.8-8.503-6.805-15.976-1.147-24.572-1.206 7.634 4.069 10.786 8.566 14.942 2.193 2.028 2.243 6.37 3.465 10.309 3.459-4.155 6.13-7.799 3.263-13.136-2.177-4.048-.886-7.505 1.364-9.636 1.332 2.871 2.991 5.723 3.982 8.792.913 2.827 2.252 6.285 1.382 8.759-1.95 5.546-.915 9.868 2.976 14.276 1.718-2.901 3.34-5.646 4.962-8.392z"
    />
    <path
      d="m259.401 61.632c-.509.984-1.575 2.061-1.435 2.943.922 5.749-.512 10.71-4.386 15.386-.689-4.278-.357-8.759-2.228-11.955-1.827-3.119-5.905-4.923-9.643-6.635 3.624 5.986 6.937 11.506 3.825 18.319-2.608-3.245-4.69-6.974-7.799-9.377-3.237-2.504-7.469-3.725-11.361-5.552-.35 5.817 10.961 7.452 7.68 14.824-3.423-1.833-7.154-3.619-10.642-5.795-1.659-1.034-3.398-2.573-4.152-4.297-2.114-4.851-6.122-6.096-10.546-7.056l4.142 9.453c-3.147-6.395-8.89-9.024-15.861-9.873l.543-1.685c5.094.468 10.265.564 15.252 1.567 2.368.476 5.657 2.244 6.325 4.186 1.999 5.803 6.684 7.154 12.083 8.845-.242-.86-.214-1.732-.607-2.01-4.514-3.191-6.962-6.988-5.554-12.927.397-1.677-1.465-3.89-1.359-6.718 1.555 1.95 4.156 3.755 4.456 5.883.707 4.998 3.652 6.951 7.868 8.444 2.925 1.036 5.587 2.806 8.518 4.328-.507-6.049-4.904-9.078-10.665-11.416 10.593-2.732 17.916 1.754 21.262 12.396 3.411-6.168 1.887-11.591-7.476-24.637 6.808 3.26 9.514 8.106 11.76 13.359z"
    />
    <path
      d="m212.695 71.65c2.77 2.471 5.869 4.677 8.17 7.527 1.122 1.389.753 3.975 1.113 6.382-6.875-3.602-12.923-6.768-18.973-9.938-.404.394-.81.787-1.213 1.181 5.398 4.949 6.472 10.617 2.994 18.91-2.944-14.029-16.08-9.562-23.077-16.04.412 5.15.378 5.227 6.291 7.763 5.11 2.191 8.448 5.375 7.77 10.838-16.045-7.96-32.456-13.591-52.562-11.226 4.27.749 6.995 1.829 9.584 1.567 7.594-.77 12.845 1.736 17.108 8.35 2.185 3.393 6.831 5.203 10.456 7.793-7.156 4.8-11.972-2.911-18.566-4.554 2.242 2.792 4.035 5.019 6.374 7.928-2.859 1.112-4.871 1.893-6.088 2.366 4.962 3.055 10.364 6.384 15.766 9.711-.372.669-.744 1.338-1.115 2.006-1.59-.633-3.183-1.264-5.151-2.048v3.122c-2.673-.557-5.169-1.078-8.413-1.751l1.887 4.446c-2.921-.356-5.398-.659-8.489-1.039l5.018 8.776c-8.118 4.508-14.8 3.232-25.569-5.626l2.052 7.089c-1.355.573-2.711 1.147-4.066 1.721l2.034 3.903-11.592-1.907c-.201.179-.401.358-.602.535 2.164 1.314 4.187 3.342 6.518 3.792 5.503 1.061 11.284 2.424 16.713 1.748 9.173-1.137 18.028-1.368 27.151 2.063-1.824 8.321-9.829 7.571-17.273 10.41 3.639.244 5.563.371 8.724.582l-7.064 4.304 1.328 1.094 19.086-3.951 1.199 2.415c-2.521 1.983-5.042 3.969-7.495 5.9l3.054.86.378 1.331c-7.741 3.246-15.481 6.494-23.593 9.894 1.576 9.4-8.996 7.045-13.078 12.478l12.216-2.231 2.927 8.929 5.377-4.43-4.497 18.733c.433.19.868.385 1.302.575 1.262-1.341 2.523-2.684 3.783-4.026v9.232l.974.197c2.727-6.143 5.754-12.173 8.118-18.454 4.612-12.253 14.098-20.928 22.759-29.904 2.599-2.695 4.946-5.579 7.404-8.405 3.329-3.829 6.785-7.579 10.529-10.989.986-.897 3.237-.408 5.191.398-10.13 5.817-14.63 15.424-19.563 25.141-7.29-3.549-6.421 4.107-8.68 6.859-3.115 3.797-3.968 9.077-9.537 11.343-4.053 1.647-8.233 14.416-6.68 18.693 1.619 4.458 1.048 8.204-1.155 12.372-1.264 2.392-.768 5.711-1.064 8.61l1.628.386c1.362-1.026 2.723-2.051 5.341-4.02l-2.536 9.217 1.077.543 3.498-3.146c2.663 12.961 10.935 22.545 17.956 32.825 1.893 2.774 3.776 2.187 6.244.84 2.774-1.515 5.806-2.558 8.726-3.809l.639 1.367c-3.774 2.435-7.549 4.87-11.839 7.642-7.631-2.576-9.086-2.489-15.697 1.828l2.543-8.096c-2.709 1.171-4.827 2.087-7.563 3.268l1.554-5.521c-.304-.324-.607-.643-.911-.964-3.229 3.309-6.46 6.616-9.69 9.927-.291-.133-.582-.262-.872-.395l9.17-15.816c-.249-.16-.499-.322-.75-.48-3.212 2.825-6.425 5.652-9.638 8.476l-.966-.467 4.192-8.84c-1.962.88-3.923 1.761-5.884 2.643l-.729-.878c2.065-2.232 4.129-4.464 7.364-7.957l-8.674 4.214-1.097-1.023c2.48-2.269 4.962-4.54 7.263-6.65-7.799.041-12.282 4.516-20.016 20.269-.374-8.859 3.421-17.301 12.439-27.673-6.87 2.902-10.47 7.162-19.415 22.973.777-10.307 6.349-19.158 18.886-31.814-5.157 1.515-10.316 3.028-16.858 4.95l12.803-9.847c-4.127-4.198-9.5-3.166-14.83-4.314 3.656-.877 7.313-1.752 12.43-2.981-.975-5.292-1.809-11.07-3.285-16.679-.266-1.01-3.491-2.257-4.812-1.81-6.227 2.104-12.267 4.76-17.614 6.916.151 2.445.286 3.98.305 5.514.003.273-.421.673-.737.815-8.375 3.727-13.721 11.304-18.44 18.087-5.35 7.69-14.041 11.451-19.012 19.706l2.907.844-10.16 26.243 1.853 1.173c2.004-1.792 4.019-3.572 6.01-5.381 4.987-4.528 9.804-9.269 15.041-13.493 1.674-1.349 4.45-1.335 6.721-1.947.584.75 1.166 1.498 1.749 2.244-1.463.715-3.374 1.068-4.301 2.211-2.804 3.468-6.099 6.916-7.614 10.966-3.146 8.403-8.518 14.453-15.881 19.272-4.667 3.057-8.898 6.774-12.719 10.965 6.548-2.435 13.024-5.092 19.664-7.245 6.49-2.099 9.437-10.542 18.163-9.219-4.471 6.343-7.62 13.572-14.125 18.25-6.681 4.798-12.125 10.523-14.774 16.876 10.107-2.771 20.938-5.732 31.768-8.698.439.467.88.94 1.32 1.41-1.385 1.902-2.438 4.228-4.222 5.622-3.856 3.012-8.053 5.599-12.168 8.27-7.364 4.777-12.21 11.144-12.95 19.143 3.985-2.032 8.213-4.98 12.908-6.384 5.68-1.696 12.135 1.554 14.672 6.114 2.852 5.124 1.526 9.209-4.251 10.232-6.291 1.116-6.858 5.209-7.459 10.505 6.711-6.236 16.868-8.357 24.864-5.312-1.358 1.44-3.051 2.579-3.766 4.16-.928 2.058-2.054 4.804-1.403 6.66 3.954 11.268 4.115 11.21-2.813 19.238 8.051-.475 12.205-4.152 15.461-11.296 1.66-3.641 4.849-7.369 8.33-9.223 5.516-2.944 11.856-4.341 18.468-6.607-.173 5.564-3.69 8.512-7.316 10.208-7.295 3.415-9.119 8.888-9.505 16.384-.346 6.75-2.599 13.402-3.887 19.513 4.267-5.175 11.059-9.106 13.326-17.555 1.883-7.03 15.57-10.953 22.039-7.467 3.853 2.075 6.292 5.467 5.397 9.718-1.162 5.491-2.887 10.848-5.148 15.985-3.817 8.672-4.613 14.232-2.022 22.472 1.139-3.888 1.894-7.827 3.451-11.42 1.608-3.711 4.268-7.522 8.984-5.994 5.095 1.651 2.852 6.149 2.38 9.731-.097.733-.333 1.446-.68 2.899 6.034-2.993 8.623.564 10.984 5.761 4.897-4.115 9.901-4.967 15.205.788 1.711-9.229 1.911-18.445 11.161-23.248l-1.15 26.033 1.988.296c1.868-9.219.475-20.162 11.964-24.592-1.541 10.172-3.031 20.001-4.519 29.83l1.702.361 3.077-9.805c.611-.062 1.221-.127 1.829-.189 1.615 6.908 3.227 13.814 4.918 21.059 3.634-2.236 5.074-5.298 3.551-9.375-2.001-5.364-.973-10.16 1.409-15.227 1.811-3.859 2.365-8.299 3.533-12.468.539-1.923 1.21-3.807 1.821-5.711l2.253.01c.552 6.759 1.105 13.518 1.681 20.544l9.197-19.467c1.498 12.833-.11 25.332 10.99 33.387.889-3.207 2.471-7.293 3.062-11.515.572-4.08.124-8.305.124-12.946 12.768 5.526 8.652 21.513 17.684 28.96 2.648-4.036 5.1-7.964 7.748-11.754 3.09-4.422 3.736-8.796 1.095-13.759-2.212-4.158-3.183-8.651-1.196-13.653 9.308 9.701 14.611 20.282 13.11 33.63 1.594-4.596 3.191-9.19 4.786-13.783 1.652-4.756 1.329-8.901-2.094-13.153-4.722-5.856-4.649-13.843-.718-20.664 1.963 3.424 3.451 7.203 5.971 10.084 2.665 3.039 6.311 5.224 10.936 8.901-2.049-4.492-3.414-7.489-4.783-10.489-1.486-3.25-3.32-6.387-4.391-9.769-1.904-6.019-.193-11.874 3.692-14.338 4.198-2.666 11.414-1.86 15.808 2.26 3.013 2.827 5.456 6.252 8.224 9.34 2.479 2.767 5.054 5.445 8.54 9.186-1.133-5.234-2.74-8.992-2.528-12.643.246-4.192 1.766-8.428 3.373-12.381 1.186-2.914 3.762-5.247 5.054-8.132 1.265-2.836 1.694-6.042 2.773-10.164 3.284 5.463 2.529 10.449 2.247 15.554-.231 4.212.269 8.548 1.113 12.693.328 1.612 2.489 2.856 3.222 3.636 1.772-4.939 3.976-9.342 4.881-13.995 1.387-7.131 1.979-14.422 2.697-21.669.233-2.358-.199-4.784-.324-7.154 7.405-.664 13.93 4.163 17.284 12.308 1.577 3.828 3.039 7.718 4.904 11.402.868 1.717 2.572 3.012 3.941 4.546-2.506-9.02-4.002-18.149-7.616-26.347-3.614-8.194-9.349-15.458-14.154-23.127.708-.708 1.419-1.415 2.128-2.122 3.445 2.464 7.745 4.307 10.11 7.557 2.795 3.837 5.951 5.985 10.303 7.184 5.431 1.493 10.78 3.278 17.278 4.398-3.025-3.455-6.36-6.692-8.987-10.424-2.76-3.922-4.926-8.273-7.192-12.52-2.26-4.247-4.319-8.6-6.842-13.658 5.497 1.074 9.417 4.177 13.112 7.726l11.241 10.793c-3.213-9.907-6.017-18.471-8.759-27.051-1.711-5.351-5.848-7.594-10.914-8.703-1.554-.339-3.123-.614-5.048-.991 7.922-8.966 16.59-6.605 26.94 7.286-.717-16.464-8.299-28.92-18.832-41.764 7.797.923 11.616 5.884 16.349 9.086.522-.31 1.045-.621 1.567-.929l-15.629-31.481 2.715-.181c-.134-.543-.088-1.262-.409-1.517-5.118-4.029-10.241-8.053-15.453-11.959-1.967-1.472-5.391-1.737-3.807-5.68.21-.523-.831-1.981-1.613-2.395-5.34-2.818-10.58-5.982-16.222-8.026-4.811-1.744-10.111-2.144-15.631-3.223l8.341 3.953c-8.953-2.036-17.388-3.125-24.402 6.454 3.948-.828 6.804-1.429 11.321-2.376-2.345 2.062-3.438 3.023-4.983 4.38l12.989 1.34-.102.983c-3.781.563-7.566 1.128-12.179 1.817 6.745 2.242 12.556 4.171 18.369 6.102-.146.486-.292.97-.435 1.456l-17.702-2.726c-.295.552-.592 1.101-.889 1.652 11.117 4.369 16.452 13.112 19.312 23.803-5.708-4.654-8.603-12.661-16.889-13.643l8.623 12.872c-.345.273-.689.546-1.033.822-2.848-2.463-5.698-4.925-8.547-7.385-.161.159-.325.32-.486.481l11.784 23.222c-.258.112-.517.225-.774.335-5.271-4.883-10.543-9.764-15.816-14.644-.154.25-.309.499-.466.747 1.923 3.81 3.843 7.622 5.767 11.431l-1.41.849-9.606-11.393-.919.683c.579 2.046 1.158 4.089 1.739 6.138-.336.224-.671.446-1.006.668l-3.352-5.072c-.399.247-.803.497-1.202.748l3.412 11.891-.98.666c-2.231-2.484-4.464-4.967-7.196-8.002l1.128 7.196c-4.955-3.802-8.642-1.516-12.227 1.787-2.801 2.584-5.742 6.365-8.25-.459-.382-1.037-2.313-1.504-4.913-3.07 2.278.351 2.977.374 3.62.571 8.659 2.655 9.662 2.44 13.161-5.797 2.899-6.83 7.241-13.137 6.552-21.327-.415-4.917 2.487-5.933 7.011-3.558-1.018-4.122-2.097-8.482-3.277-13.265-.565.173-2.034.621-4.557 1.391l2.203-6.786c-1.032.238-1.946.451-3.704.859 1.142-3.631 2.114-6.725 3.088-9.817-.264-.195-.528-.388-.793-.581-.517.971-1.036 1.942-1.55 2.912-.428-.164-.851-.327-1.276-.493l1.376-14.459c-1.269-.144-2.403-.271-3.48-.395-.092-.664-.296-1.093-.172-1.384 3.972-9.247-1.009-15.906-6.473-22.427-4.823-5.754-9.726-11.441-14.403-17.31-.957-1.201-1.062-3.079-1.559-4.646l1.641-1.096c3.067 3.107 6.24 6.116 9.175 9.339 4.443 4.883 9.459 9.464 12.864 15.009 3.439 5.599 5.215 12.217 6.691 19.19l2.053-5.008 1.398.228c-.443 5.888-.889 11.776-1.332 17.663.435-.119.871-.238 1.308-.355l1.71 7.544c2.202-6.926 4.258-13.383 6.313-19.841.241.027.481.055.723.085v10.842c5.641-4.768 5.62-10.69 4.826-18.141 10.225 5.081 19.455 9.663 28.977 14.393l-4.593-5.969 8.164.359c-3.437-3.807-10.478-2.973-11.483-10.217l-16.094-10.354c.189-.463.376-.927.566-1.389l7.837-.635-16.974-6.592.442-1.491h7.914c-2.277-1.677-3.827-2.818-5.546-4.087l22.303-6.243-.01-.819h-10.239l7.256-9.233h-13.821c2.021-1.927 3.027-2.883 4.725-4.502-3.103-.489-5.553-.874-8.005-1.259l-.428-1.116 10.818-4.216h-15.784c-.115-.308-.227-.618-.341-.926l7.898-3.561c-3.562-.376-6.454-.685-9.343-.99-.021-.35-.043-.698-.065-1.046 1.893-.83 3.788-1.659 6.295-2.756l-4.136-1.708c5.55-3.087 10.61-5.899 15.538-8.641-6.308-3.587-12.095-9.746-21.094-6.034l-.336-1.866c2.911-1.345 5.718-3.425 8.76-3.861 4.399-.631 8.971-.024 13.466-.087.484-.005.956-.938 1.433-1.442 5.53 1.027 11.056 2.052 16.213 3.007-4.716 2.388-10.195 3.812-15.914 1.057-5.724-2.761-11.334-1.919-17.331.814 8.397 2.677 16.908 5.042 25.131 8.167 3.74 1.423 6.907 4.35 9.911 7.34-7.775-3.713-15.361-6.322-23.678-3.278 5.323 3.262 10.365 6.378 15.429 9.452 5.215 3.167 6.998 8.103 7.448 13.85 1.068 13.699-.854 26.715-8.493 38.493-.5.774-.871 1.635-1.649 3.116l13.39 5.583-3.681 2.11c.484-.489.968-.979 1.453-1.466l9.665 9.943-2.083 2.428c-2.543-.84-5.088-1.681-7.658-2.532-1.767 7.394 2.013 10.814 8.113 13.022 2.812 1.016 5.535 2.537 7.943 4.312 1.095.808 1.303 2.792 1.973 4.217.28.596.601 1.253 1.09 1.656 7.198 5.949 14.428 11.861 22.459 18.443l-6.682 1.45c4.927 11.864 9.876 23.774 14.822 35.686-.207.357-.414.717-.623 1.075-3.63-2.466-7.259-4.928-11.614-7.885 7.973 13.716 12.306 27.906 8.896 44.872-2.575-5.613-4.755-10.384-6.949-15.152-2.871-6.236-6.145-8.021-14.371-6.812 9.242 1.882 11.753 8.224 12.891 14.953 1.98 11.713 5.279 22.1 18.779 25.53-12.34 2.234-21.857-1.737-28.892-12.26.212 8.321 1.306 10.708 9.115 17.8 6.821 6.195 8.634 13.885 7.504 22.603-.126.977-.756 1.887-1.674 3.054-.671-11.54-9.09-14.04-17.812-15.923-6.343-1.366-12.004-3.472-14.882-10.042l-1.284.948c2.075 3.242 3.71 6.905 6.321 9.636 4.734 4.959 7.099 10.848 7.326 17.348.3 8.741 3.056 15.43 12.372 18.281-6.335 3.173-13.634 1.04-17.914-5.4-2.267-3.41-3.292-7.633-5.478-11.114-2.777-4.42-6.16-8.458-9.283-12.66-.577.329-1.156.661-1.734.993 0 3.679.448 7.431-.102 11.028-.904 5.905-1.673 12.039-3.964 17.457-2.164 5.119-3.104 9.197 1.837 13.378-4.239 2.445-8.112 2.272-11.434-.197-6.148-4.571-5.866-11.316-5.087-18.17-9.828 8.976-8.83 16.493 3.838 36.206-3.998-2.026-8.518-3.427-11.871-6.225-5.035-4.201-9.19-9.445-13.849-14.115-2.246-2.254-4.517-4.718-7.261-6.189-6.65-3.572-12.674.419-11.712 7.825.446 3.43 2.087 6.797 3.642 9.97 3.08 6.299 6.643 12.474 5.434 19.833-.506 3.087-1.878 6.034-3.792 9.01 1.814-12.433-7.258-17.116-15.868-22.291 1.314 2.763 2.071 6.045 4.06 8.188 4.223 4.553 4.347 9.299 2.403 14.664-2.859 7.889-5.63 15.809-9.019 25.348-1.363-4.108-2.984-7.193-3.316-10.411-.502-4.856.311-9.849-.231-14.694-.386-3.463-2.082-6.78-4.412-10.074 4.996 9.159.64 15.987-4.698 22.656-2.955 3.692-3.82 7.742-1.439 12.159-5.8.198-10.681-3.285-13.264-10.091-2.082-5.491-3.532-11.218-5.916-16.782-1.04 12.016-5.694 22.04-14.147 31.64l2.542-15.631c-2.956 2.352-4.749 3.776-6.543 5.203l-1.606-.21c6.093-8.494 1.853-15.626-2.902-24.155-1.771 5.329-4.071 9.754-4.538 14.365-.479 4.721.842 9.623.493 14.706-2.063-5.029-5.193-9.917-5.9-15.132-.725-5.359.911-11.035 1.262-16.624-2.337 7.047-7.751 13.059-4.392 21.804 2.524 6.577-2.453 11.505-11.078 13.045v-17.413c-3.79 5.363-5.781 11.556-11.243 13.346 1.115-8.851 2.264-17.988 3.413-27.119l-1.57-.318c-1.896 7.852-.273 17.159-8.319 22.207l-1.881-29.966c-3.406 5.267-2.479 10.724-2.639 16.051-.159 5.319-.839 10.623-1.29 15.933l-1.7-.047c-.553-3.329-.964-6.688-1.691-9.976-.911-4.119-2.845-7.897-7.663-7.67-4.714.224-5.619 4.353-6.314 8.181-.195 1.074-.304 2.162-1.388 3.401-.872-3.524-1.524-7.124-2.705-10.54-.614-1.769-2.166-3.217-3.294-4.808-1.43 1.567-3.011 3.024-4.22 4.743-.585.836-.469 2.16-.671 3.261l-1.418.139c-.418-3.377-1.23-6.764-1.142-10.127.086-3.345 1.08-6.663.807-10.21-10.423 5.447-6.82 16.087-9.322 26.167-6.456-10.275-8.834-19.495-5.641-29.633 1.123-3.57 3.169-6.84 4.599-10.326 1.14-2.779 2.382-5.611 2.878-8.538 1.047-6.188-2.903-10.383-9.193-9.715-6.757.721-12.454 3.095-14.264 10.733-.504 2.125-1.573 4.488-3.134 5.928-5.354 4.943-11.362 9.284-12.488 17.543-3.869-5.161-2.716-9.933-.977-14.991 1.624-4.716 3.477-9.688 3.494-14.552.032-8.761 2.289-15.577 10.828-19.272.629-.275 1.088-.944 2.416-2.141-9.375 1.22-16.033 3.502-18.925 13.071-3.126 10.342-22.103 15.921-31.694 9.171 2.767-.447 4.673-.734 6.57-1.067 9.977-1.743 12.8-7.8 8.885-16.914-1.335-3.107-.211-7.266-.211-11.043-11.983-1.091-14.91 1.097-11.102 10.962-4.307-2.761-9-3.546-9.018-8.357-.018-4.594.815-9.54 6.415-11.485 2.807-.977 7.798-1.034 6.172-5.339-1.059-2.804-5.114-5.678-8.258-6.28-10.637-2.041-16.384 4.134-17.246 17.426-4.985-5.747-5.338-16.826 1.353-25.267 5.47-6.901 13.159-12.045 19.386-17.547-14.647 2.246-16.188-1.094-29.475 14.696.176-3.54-.219-5.943.489-7.96 2.714-7.753 6.655-14.694 13.407-19.889 4.083-3.14 7.622-6.986 10.947-11.037-11.639 6.73-26.582 6.841-35.276 18.812-.514-.345-1.028-.691-1.542-1.037 1.218-2.864 1.793-6.32 3.782-8.469 4.58-4.943 9.458-9.797 14.931-13.685 8.038-5.71 14.118-12.346 15.744-23.656-6.866 6.865-11.183 15.987-21.906 15.755l8.377-25.617c-2.352 1.318-4.104 2.296-5.856 3.276l-1.317-1.313c5.72-6.909 11.44-13.816 17.181-20.747l-6.223.377-.357-1.116 6.529-3.564-7.872-.786c11.37-6.74 22.219-13.171 33.068-19.601l-.58-1.289c-2.241.235-4.481.469-6.722.706l-.836-1.911c10.222-5.27 20.445-10.539 30.777-15.867.156.17-.068-.21-.401-.399-.472-.263-1.023-.387-1.96-.719l5.797-4.847-23.248 3.472c8.641-4.536 15.767-8.276 24.319-12.767h-9.865l5.428-4.344c-2.468-4.735-5.117-9.445-7.397-14.329-1.265-2.71-2.46-5.66-2.73-8.589-.59-6.402-2.468-11.027-9.455-13.214-4.729-1.481-6.699-6.176-7.431-12.213 3.239 2.355 6.582 4.786 9.924 7.219.473-.458.947-.914 1.42-1.373l-6.394-15.658c4.216 4.824 7.584 8.678 10.951 12.534l1.281-.737-9.074-15.69 12.495 9.78c5.056-8.992 13.275-12.987 24.401-12.304-4.823-2.475-8.996-4.617-13.168-6.759.231-.347.464-.693.696-1.039l13.727 1.721c-2.413-6.542-6.213-8.44-12.732-7.525-3.198.449-6.455.473-9.725.245 10.334-5.833 20.281-5.7 29.676 1.616-2.202-2.91-3.993-6.314-6.726-8.587-2.599-2.162-6.439-4.767-9.286-4.321-7.323 1.145-12.878-1.288-18.52-6.106 19.286-.514 37.518 2.553 55.332 9.371-6.466-5.14-12.811-10.443-19.482-15.302-1.58-1.151-4.25-.808-6.272-1.66 13.765-.198 25.612 5.494 37.273 11.372 1.046-4.978-.75-8.217-6.648-10.494-3.624-1.399-7.259-2.768-10.89-4.152l.541-1.623 31.628 8.562c-1.675-2.189-4.09-5.342-6.505-8.494z"
    />
  </g>
</svg>
