<svg clip-rule="evenodd" fill-rule="evenodd" stroke-linejoin="round" stroke-miterlimit="2" viewBox="0 0 518 512" xmlns="http://www.w3.org/2000/svg">
  <path
    d="m517.99 0v512h-517.99v-512zm-282.705 204.49-7.614 23.584c5.365-5.731 8.968-15.541 7.614-23.584zm64.52 1.649c2.573-1.167 4.29-2.009 6.052-2.732 3.734-1.529 7.491-3.001 11.245-4.485 1.464-.579 2.955-1.09 4.405-1.698 1.095-.457 2.143-1.023 3.21-1.54-.65-1.055-1.064-2.697-1.988-3.069-5.388-2.161-10.781-4.582-16.412-5.724-2.443-.495-6.674 1.076-7.953 3.075-2.263 3.538-2.888 8.116-4.055 11.804 2.562 2.038 4.292 3.413 5.496 4.369zm4.637-4.626c-1.337-2.205-3.597-4.325-3.807-6.63-.372-4.088 3.012-5.617 6.422-4.82 2.255.527 4.106 2.757 6.14 4.223-2.015 2.479-4.028 4.959-6.04 7.439-.905-.069-1.811-.141-2.715-.212zm-82.976-80.145c4.747 4.867 10.859 5.284 16.88 6.233 4.021.632 8.383 1.198 11.761 3.196 3.153 1.868 5.24 2.573 8.632.79 2.643-1.392 6.1-2.387 8.932-1.935 2.783.446 5.234 2.941 6.706 3.848 4.386-2.276 7.507-4.9 10.967-5.464 5.853-.955 11.925-.856 17.895-.72 4.003.09 7.961.926 11.578-3.771h-8.297c4.738-2.29 9.318-2.793 9.978-8.09l-11.592 4.501c.846-2.157 1.206-3.081 1.567-4.003l-.865-1.058c-3.73 2.152-7.457 4.303-10.97 6.328 2.21-7.97 12.005-10.481 13.708-18.842l-29.189 21.259-1.963-10.285-1.703.309-1.313 6.478c-3.931-2.802-4.064-3.786-1.984-7.311 1.221-2.062 2.893-4.309 2.946-6.51.107-4.236-.792-8.496-1.305-13.015-1.327 1.776-2.952 3.954-4.578 6.131 2.627-5.984 3.781-11.749-1.073-18.663-.385 4.554-.673 7.984-.963 11.414l-1.45-.1c-.373-3.126-.743-6.251-1.115-9.379l-1.672-.077-2.12 12.686c-.479.096-.956.191-1.434.289l-3.387-11.849c-4.138 8.079-1.262 13.599 3.816 18.678l-1.388.613-10.968-11.006 7.729 28.38c-3.945-1.972-7.086-4.22-10.576-5.115-4.493-1.152-7.663-3.129-10.302-7.086-1.745-2.618-5.205-4.095-7.898-6.082-.32.519-.64 1.039-.96 1.556l13.644 15.729-.027.927-8.969-4.316.583 4.173c-3.15-2.431-5.94-4.586-8.73-6.741l-1.211 1.268 5.807 7.416zm78.585 108.468c-2.323-8.306-4.506-16.114-6.779-24.236-2.209 4.214 1.51 17.164 6.779 24.236zm-66.898-25.623c-.782-4.037-1.683-7.076-1.896-10.161-.369-5.342-3.327-8.188-8.293-7.947-5.619.28-11.19 1.175-16.614 2.668-2.022.556-3.387 3.494-5.14 5.443 3.713.404 7.515-.249 8.453 1.093 5.731 8.207 14.418 7.469 23.49 8.904zm-6.731-9.97c-.209 2.307-2.469 4.426-3.806 6.631-.906.07-1.811.142-2.717.212-2.012-2.481-4.025-4.96-6.039-7.439 2.033-1.467 3.887-3.697 6.14-4.224 3.411-.797 6.795.732 6.422 4.82zm168.317-4.478-1.848 1.06c.484-.489.968-.979 1.453-1.466l.395.406 1.833-1.05-13.39-5.583c.778-1.481 1.149-2.342 1.649-3.116 7.639-11.778 9.561-24.794 8.493-38.493-.45-5.747-2.233-10.683-7.448-13.85-5.064-3.074-10.106-6.19-15.429-9.452 8.317-3.044 15.903-.435 23.678 3.278-3.004-2.99-6.171-5.917-9.911-7.34-8.223-3.125-16.734-5.49-25.131-8.167 5.997-2.733 11.607-3.575 17.331-.814 5.719 2.755 11.198 1.331 15.914-1.057-5.157-.955-10.683-1.98-16.213-3.007-.031.032-.061.066-.091.101-3.005-.787-5.976-1.893-9.03-2.209-6.263-.65-12.573-.864-18.865-1.244 1.294-.874 2.613-1.713 3.862-2.646 4.418-3.294 8.808-6.625 13.214-9.943 4.774-2.037 9.558-4.073 14.34-6.107-4.42.552-9.062 1.087-12.819 3.194-10.578 5.926-21.962 3.388-33.393 3.51 4.332-3.107 9.497-4.646 13.651-7.604 4.426-3.157 7.895-7.655 12.203-11.993l-35.932 12.074c-.425-.222-.852-.444-1.278-.666-.449 1.211-.888 2.399-1.345 3.631l30.085-10.535c-2.352 5.647-6.953 7.728-12.338 9.08-6.496 1.63-8.209 4.728-6.745 9.189 5.22-.395 10.106-.727 14.985-1.141 3.998-.338 7.998-.683 11.977-1.204 2.016-.264 3.981-.921 5.97-1.402-6.057 3.674-12.114 7.349-18.472 11.207l1.795 1.519c.048-.033.096-.065.143-.097 4.055 1.133 8.057 2.725 12.188 3.19 5.189.587 10.486.245 15.74.273-.425.518-.847 1.261-1.278 1.265-4.495.063-9.067-.544-13.466.087-3.042.436-5.849 2.516-8.76 3.861l.336 1.866c8.999-3.712 14.786 2.447 21.094 6.034-4.928 2.742-9.988 5.554-15.538 8.641l4.136 1.708c-2.507 1.097-4.402 1.926-6.295 2.756.022.348.044.696.065 1.046 2.889.305 5.781.614 9.343.99l-7.898 3.561c.114.308.226.618.341.926h15.784l-10.818 4.216.428 1.116c2.452.385 4.902.77 8.005 1.259-1.698 1.619-2.704 2.575-4.725 4.502h13.821l-7.256 9.233h10.239l.01.819-22.303 6.243c1.719 1.269 3.269 2.41 5.546 4.087h-7.914l-.442 1.491 16.974 6.592-7.837.635c-.19.462-.377.926-.566 1.389l16.094 10.354c1.005 7.244 8.046 6.41 11.483 10.217l-8.164-.359 4.593 5.969c-9.522-4.73-18.752-9.312-28.977-14.393.794 7.451.815 13.373-4.826 18.141v-10.842c-.242-.03-.482-.058-.723-.085-2.055 6.458-4.111 12.915-6.313 19.841l-1.71-7.544c-.437.117-.873.236-1.308.355.443-5.887.889-11.775 1.332-17.663l-1.398-.228-2.053 5.008c-1.476-6.973-3.252-13.591-6.691-19.19-3.405-5.545-8.421-10.126-12.864-15.009-2.935-3.223-6.108-6.232-9.175-9.339l-1.641 1.096c.497 1.567.602 3.445 1.559 4.646 4.677 5.869 9.58 11.556 14.403 17.31 5.464 6.521 10.445 13.18 6.473 22.427-.124.291.08.72.172 1.384 1.077.124 2.211.251 3.48.395l-1.376 14.459c.425.166.848.329 1.276.493.514-.97 1.033-1.941 1.55-2.912.265.193.529.386.793.581-.974 3.092-1.946 6.186-3.088 9.817 1.758-.408 2.672-.621 3.704-.859l-2.203 6.786c2.523-.77 3.992-1.218 4.557-1.391 1.18 4.783 2.259 9.143 3.277 13.265-4.524-2.375-7.426-1.359-7.011 3.558.689 8.19-3.653 14.497-6.552 21.327-3.499 8.237-4.502 8.452-13.161 5.797-.643-.197-1.342-.22-3.62-.571 2.6 1.566 4.531 2.033 4.913 3.07 2.508 6.824 5.449 3.043 8.25.459 3.585-3.303 7.272-5.589 12.227-1.787l-1.128-7.196c2.732 3.035 4.965 5.518 7.196 8.002l.98-.666-3.412-11.891c.399-.251.803-.501 1.202-.748l3.352 5.072c.335-.222.67-.444 1.006-.668-.581-2.049-1.16-4.092-1.739-6.138l.919-.683 9.606 11.393 1.41-.849c-1.924-3.809-3.844-7.621-5.767-11.431.157-.248.312-.497.466-.747 5.273 4.88 10.545 9.761 15.816 14.644.257-.11.516-.223.774-.335l-11.784-23.222c.161-.161.325-.322.486-.481 2.849 2.46 5.699 4.922 8.547 7.385.344-.276.688-.549 1.033-.822l-8.623-12.872c8.286.982 11.181 8.989 16.889 13.643-2.86-10.691-8.195-19.434-19.312-23.803.297-.551.594-1.1.889-1.652l17.702 2.726c.143-.486.289-.97.435-1.456-5.813-1.931-11.624-3.86-18.369-6.102 4.613-.689 8.398-1.254 12.179-1.817l.102-.983-12.989-1.34c1.545-1.357 2.638-2.318 4.983-4.38-4.517.947-7.373 1.548-11.321 2.376 7.014-9.579 15.449-8.49 24.402-6.454l-8.341-3.953c5.52 1.079 10.82 1.479 15.631 3.223 5.642 2.044 10.882 5.208 16.222 8.026.782.414 1.823 1.872 1.613 2.395-1.584 3.943 1.84 4.208 3.807 5.68 5.212 3.906 10.335 7.93 15.453 11.959.321.255.275.974.409 1.517l-2.715.181 15.629 31.481c-.522.308-1.045.619-1.567.929-4.733-3.202-8.552-8.163-16.349-9.086 10.533 12.844 18.115 25.3 18.832 41.764-10.35-13.891-19.018-16.252-26.94-7.286 1.925.377 3.494.652 5.048.991 5.066 1.109 9.203 3.352 10.914 8.703 2.742 8.58 5.546 17.144 8.759 27.051l-11.241-10.793c-3.695-3.549-7.615-6.652-13.112-7.726 2.523 5.058 4.582 9.411 6.842 13.658 2.266 4.247 4.432 8.598 7.192 12.52 2.627 3.732 5.962 6.969 8.987 10.424-6.498-1.12-11.847-2.905-17.278-4.398-4.352-1.199-7.508-3.347-10.303-7.184-2.365-3.25-6.665-5.093-10.11-7.557-.709.707-1.42 1.414-2.128 2.122 4.805 7.669 10.54 14.933 14.154 23.127 3.614 8.198 5.11 17.327 7.616 26.347-1.369-1.534-3.073-2.829-3.941-4.546-1.865-3.684-3.327-7.574-4.904-11.402-3.354-8.145-9.879-12.972-17.284-12.308.125 2.37.557 4.796.324 7.154-.718 7.247-1.31 14.538-2.697 21.669-.905 4.653-3.109 9.056-4.881 13.995-.733-.78-2.894-2.024-3.222-3.636-.844-4.145-1.344-8.481-1.113-12.693.282-5.105 1.037-10.091-2.247-15.554-1.079 4.122-1.508 7.328-2.773 10.164-1.292 2.885-3.868 5.218-5.054 8.132-1.607 3.953-3.127 8.189-3.373 12.381-.212 3.651 1.395 7.409 2.528 12.643-3.486-3.741-6.061-6.419-8.54-9.186-2.768-3.088-5.211-6.513-8.224-9.34-4.394-4.12-11.61-4.926-15.808-2.26-3.885 2.464-5.596 8.319-3.692 14.338 1.071 3.382 2.905 6.519 4.391 9.769 1.369 3 2.734 5.997 4.783 10.489-4.625-3.677-8.271-5.862-10.936-8.901-2.52-2.881-4.008-6.66-5.971-10.084-3.931 6.821-4.004 14.808.718 20.664 3.423 4.252 3.746 8.397 2.094 13.153-1.595 4.593-3.192 9.187-4.786 13.783 1.501-13.348-3.802-23.929-13.11-33.63-1.987 5.002-1.016 9.495 1.196 13.653 2.641 4.963 1.995 9.337-1.095 13.759-2.648 3.79-5.1 7.718-7.748 11.754-9.032-7.447-4.916-23.434-17.684-28.96 0 4.641.448 8.866-.124 12.946-.591 4.222-2.173 8.308-3.062 11.515-11.1-8.055-9.492-20.554-10.99-33.387l-9.197 19.467c-.576-7.026-1.129-13.785-1.681-20.544l-2.253-.01c-.611 1.904-1.282 3.788-1.821 5.711-1.168 4.169-1.722 8.609-3.533 12.468-2.382 5.067-3.41 9.863-1.409 15.227 1.523 4.077.083 7.139-3.551 9.375-1.691-7.245-3.303-14.151-4.918-21.059-.608.062-1.218.127-1.829.189l-3.077 9.805-1.702-.361c1.488-9.829 2.978-19.658 4.519-29.83-11.489 4.43-10.096 15.373-11.964 24.592l-1.988-.296 1.15-26.033c-9.25 4.803-9.45 14.019-11.161 23.248-5.304-5.755-10.308-4.903-15.205-.788-2.361-5.197-4.95-8.754-10.984-5.761.347-1.453.583-2.166.68-2.899.472-3.582 2.715-8.08-2.38-9.731-4.716-1.528-7.376 2.283-8.984 5.994-1.557 3.593-2.312 7.532-3.451 11.42-2.591-8.24-1.795-13.8 2.022-22.472 2.261-5.137 3.986-10.494 5.148-15.985.895-4.251-1.544-7.643-5.397-9.718-6.469-3.486-20.156.437-22.039 7.467-2.267 8.449-9.059 12.38-13.326 17.555 1.288-6.111 3.541-12.763 3.887-19.513.386-7.496 2.21-12.969 9.505-16.384 3.626-1.696 7.143-4.644 7.316-10.208-6.612 2.266-12.952 3.663-18.468 6.607-3.481 1.854-6.67 5.582-8.33 9.223-3.256 7.144-7.41 10.821-15.461 11.296 6.928-8.028 6.767-7.97 2.813-19.238-.651-1.856.475-4.602 1.403-6.66.715-1.581 2.408-2.72 3.766-4.16-7.996-3.045-18.153-.924-24.864 5.312.601-5.296 1.168-9.389 7.459-10.505 5.777-1.023 7.103-5.108 4.251-10.232-2.537-4.56-8.992-7.81-14.672-6.114-4.695 1.404-8.923 4.352-12.908 6.384.74-7.999 5.586-14.366 12.95-19.143 4.115-2.671 8.312-5.258 12.168-8.27 1.784-1.394 2.837-3.72 4.222-5.622-.44-.47-.881-.943-1.32-1.41-10.83 2.966-21.661 5.927-31.768 8.698 2.649-6.353 8.093-12.078 14.774-16.876 6.505-4.678 9.654-11.907 14.125-18.25-8.726-1.323-11.673 7.12-18.163 9.219-6.64 2.153-13.116 4.81-19.664 7.245 3.821-4.191 8.052-7.908 12.719-10.965 7.363-4.819 12.735-10.869 15.881-19.272 1.515-4.05 4.81-7.498 7.614-10.966.927-1.143 2.838-1.496 4.301-2.211-.583-.746-1.165-1.494-1.749-2.244-2.271.612-5.047.598-6.721 1.947-5.237 4.224-10.054 8.965-15.041 13.493-1.991 1.809-4.006 3.589-6.01 5.381l-1.853-1.173 10.16-26.243-2.907-.844c4.971-8.255 13.662-12.016 19.012-19.706 4.719-6.783 10.065-14.36 18.44-18.087.316-.142.74-.542.737-.815-.019-1.534-.154-3.069-.305-5.514 5.347-2.156 11.387-4.812 17.614-6.916 1.321-.447 4.546.8 4.812 1.81 1.476 5.609 2.31 11.387 3.285 16.679-5.117 1.229-8.774 2.104-12.43 2.981 5.33 1.148 10.703.116 14.83 4.314l-12.803 9.847c6.542-1.922 11.701-3.435 16.858-4.95-12.537 12.656-18.109 21.507-18.886 31.814 8.945-15.811 12.545-20.071 19.415-22.973-9.018 10.372-12.813 18.814-12.439 27.673 7.734-15.753 12.217-20.228 20.016-20.269-2.301 2.11-4.783 4.381-7.263 6.65l1.097 1.023 8.674-4.214c-3.235 3.493-5.299 5.725-7.364 7.957l.729.878c1.961-.882 3.922-1.763 5.884-2.643l-4.192 8.84.966.467c3.213-2.824 6.426-5.651 9.638-8.476.251.158.501.32.75.48l-9.17 15.816c.29.133.581.262.872.395 3.23-3.311 6.461-6.618 9.69-9.927.304.321.607.64.911.964l-1.554 5.521c2.736-1.181 4.854-2.097 7.563-3.268l-2.543 8.096c6.611-4.317 8.066-4.404 15.697-1.828 4.29-2.772 8.065-5.207 11.839-7.642l-.639-1.367c-2.92 1.251-5.952 2.294-8.726 3.809-2.468 1.347-4.351 1.934-6.244-.84-7.021-10.28-15.293-19.864-17.956-32.825l-3.498 3.146-1.077-.543 2.536-9.217c-2.618 1.969-3.979 2.994-5.341 4.02l-1.628-.386c.296-2.899-.2-6.218 1.064-8.61 2.203-4.168 2.774-7.914 1.155-12.372-1.553-4.277 2.627-17.046 6.68-18.693 5.569-2.266 6.422-7.546 9.537-11.343 2.259-2.752 1.39-10.408 8.68-6.859 4.933-9.717 9.433-19.324 19.563-25.141-1.954-.806-4.205-1.295-5.191-.398-3.744 3.41-7.2 7.16-10.529 10.989-2.458 2.826-4.805 5.71-7.404 8.405-8.661 8.976-18.147 17.651-22.759 29.904-2.364 6.281-5.391 12.311-8.118 18.454l-.974-.197v-9.232c-1.26 1.342-2.521 2.685-3.783 4.026-.434-.19-.869-.385-1.302-.575l4.497-18.733-5.377 4.43-2.927-8.929-12.216 2.231c4.082-5.433 14.654-3.078 13.078-12.478 8.112-3.4 15.852-6.648 23.593-9.894l-.378-1.331-3.054-.86c2.453-1.931 4.974-3.917 7.495-5.9l-1.199-2.415-19.086 3.951-1.328-1.094 7.064-4.304c-3.161-.211-5.085-.338-8.724-.582 7.444-2.839 15.449-2.089 17.273-10.41-9.123-3.431-17.978-3.2-27.151-2.063-5.429.676-11.21-.687-16.713-1.748-2.331-.45-4.354-2.478-6.518-3.792.201-.177.401-.356.602-.535l11.592 1.907-2.034-3.903c1.355-.574 2.711-1.148 4.066-1.721l-2.052-7.089c10.769 8.858 17.451 10.134 25.569 5.626l-5.018-8.776c3.091.38 5.568.683 8.489 1.039l-1.887-4.446c3.244.673 5.74 1.194 8.413 1.751v-3.122c1.968.784 3.561 1.415 5.151 2.048.371-.668.743-1.337 1.115-2.006-5.402-3.327-10.804-6.656-15.766-9.711 1.217-.473 3.229-1.254 6.088-2.366-2.339-2.909-4.132-5.136-6.374-7.928 6.594 1.643 11.41 9.354 18.566 4.554-3.625-2.59-8.271-4.4-10.456-7.793-4.263-6.614-9.514-9.12-17.108-8.35-2.589.262-5.314-.818-9.584-1.567 20.106-2.365 36.517 3.266 52.562 11.226.678-5.463-2.66-8.647-7.77-10.838-5.913-2.536-5.879-2.613-6.291-7.763 6.997 6.478 20.133 2.011 23.077 16.04 3.478-8.293 2.404-13.961-2.994-18.91.366-.358.735-.715 1.102-1.073l-15.322-4.147-.541 1.623c3.631 1.384 7.266 2.753 10.89 4.152 5.898 2.277 7.694 5.516 6.648 10.494-11.661-5.878-23.508-11.57-37.273-11.372 2.022.852 4.692.509 6.272 1.66 6.671 4.859 13.016 10.162 19.482 15.302-17.814-6.818-36.046-9.885-55.332-9.371 5.642 4.818 11.197 7.251 18.52 6.106 2.847-.446 6.687 2.159 9.286 4.321 2.733 2.273 4.524 5.677 6.726 8.587-9.395-7.316-19.342-7.449-29.676-1.616 3.27.228 6.527.204 9.725-.245 6.519-.915 10.319.983 12.732 7.525l-13.727-1.721c-.232.346-.465.692-.696 1.039 4.172 2.142 8.345 4.284 13.168 6.759-11.126-.683-19.345 3.312-24.401 12.304l-12.495-9.78 9.074 15.69-1.281.737c-3.367-3.856-6.735-7.71-10.951-12.534l6.394 15.658c-.473.459-.947.915-1.42 1.373-3.342-2.433-6.685-4.864-9.924-7.219.732 6.037 2.702 10.732 7.431 12.213 6.987 2.187 8.865 6.812 9.455 13.214.27 2.929 1.465 5.879 2.73 8.589 2.28 4.884 4.929 9.594 7.397 14.329l-5.428 4.344h9.865c-8.552 4.491-15.678 8.231-24.319 12.767l23.248-3.472-5.797 4.847c.937.332 1.488.456 1.96.719.333.189.557.569.401.399-10.332 5.328-20.555 10.597-30.777 15.867l.836 1.911c2.241-.237 4.481-.471 6.722-.706l.58 1.289c-10.849 6.43-21.698 12.861-33.068 19.601l7.872.786-6.529 3.564.357 1.116 6.223-.377c-5.741 6.931-11.461 13.838-17.181 20.747l1.317 1.313c1.752-.98 3.504-1.958 5.856-3.276l-8.377 25.617c10.723.232 15.04-8.89 21.906-15.755-1.626 11.31-7.706 17.946-15.744 23.656-5.473 3.888-10.351 8.742-14.931 13.685-1.989 2.149-2.564 5.605-3.782 8.469.514.346 1.028.692 1.542 1.037 8.694-11.971 23.637-12.082 35.276-18.812-3.325 4.051-6.864 7.897-10.947 11.037-6.752 5.195-10.693 12.136-13.407 19.889-.708 2.017-.313 4.42-.489 7.96 13.287-15.79 14.828-12.45 29.475-14.696-6.227 5.502-13.916 10.646-19.386 17.547-6.691 8.441-6.338 19.52-1.353 25.267.862-13.292 6.609-19.467 17.246-17.426 3.144.602 7.199 3.476 8.258 6.28 1.626 4.305-3.365 4.362-6.172 5.339-5.6 1.945-6.433 6.891-6.415 11.485.018 4.811 4.711 5.596 9.018 8.357-3.808-9.865-.881-12.053 11.102-10.962 0 3.777-1.124 7.936.211 11.043 3.915 9.114 1.092 15.171-8.885 16.914-1.897.333-3.803.62-6.57 1.067 9.591 6.75 28.568 1.171 31.694-9.171 2.892-9.569 9.55-11.851 18.925-13.071-1.328 1.197-1.787 1.866-2.416 2.141-8.539 3.695-10.796 10.511-10.828 19.272-.017 4.864-1.87 9.836-3.494 14.552-1.739 5.058-2.892 9.83.977 14.991 1.126-8.259 7.134-12.6 12.488-17.543 1.561-1.44 2.63-3.803 3.134-5.928 1.81-7.638 7.507-10.012 14.264-10.733 6.29-.668 10.24 3.527 9.193 9.715-.496 2.927-1.738 5.759-2.878 8.538-1.43 3.486-3.476 6.756-4.599 10.326-3.193 10.138-.815 19.358 5.641 29.633 2.502-10.08-1.101-20.72 9.322-26.167.273 3.547-.721 6.865-.807 10.21-.088 3.363.724 6.75 1.142 10.127l1.418-.139c.202-1.101.086-2.425.671-3.261 1.209-1.719 2.79-3.176 4.22-4.743 1.128 1.591 2.68 3.039 3.294 4.808 1.181 3.416 1.833 7.016 2.705 10.54 1.084-1.239 1.193-2.327 1.388-3.401.695-3.828 1.6-7.957 6.314-8.181 4.818-.227 6.752 3.551 7.663 7.67.727 3.288 1.138 6.647 1.691 9.976l1.7.047c.451-5.31 1.131-10.614 1.29-15.933.16-5.327-.767-10.784 2.639-16.051l1.881 29.966c8.046-5.048 6.423-14.355 8.319-22.207l1.57.318c-1.149 9.131-2.298 18.268-3.413 27.119 5.462-1.79 7.453-7.983 11.243-13.346v17.413c8.625-1.54 13.602-6.468 11.078-13.045-3.359-8.745 2.055-14.757 4.392-21.804-.351 5.589-1.987 11.265-1.262 16.624.707 5.215 3.837 10.103 5.9 15.132.349-5.083-.972-9.985-.493-14.706.467-4.611 2.767-9.036 4.538-14.365 4.755 8.529 8.995 15.661 2.902 24.155l1.606.21c1.794-1.427 3.587-2.851 6.543-5.203l-2.542 15.631c8.453-9.6 13.107-19.624 14.147-31.64 2.384 5.564 3.834 11.291 5.916 16.782 2.583 6.806 7.464 10.289 13.264 10.091-2.381-4.417-1.516-8.467 1.439-12.159 5.338-6.669 9.694-13.497 4.698-22.656 2.33 3.294 4.026 6.611 4.412 10.074.542 4.845-.271 9.838.231 14.694.332 3.218 1.953 6.303 3.316 10.411 3.389-9.539 6.16-17.459 9.019-25.348 1.944-5.365 1.82-10.111-2.403-14.664-1.989-2.143-2.746-5.425-4.06-8.188 8.61 5.175 17.682 9.858 15.868 22.291 1.914-2.976 3.286-5.923 3.792-9.01 1.209-7.359-2.354-13.534-5.434-19.833-1.555-3.173-3.196-6.54-3.642-9.97-.962-7.406 5.062-11.397 11.712-7.825 2.744 1.471 5.015 3.935 7.261 6.189 4.659 4.67 8.814 9.914 13.849 14.115 3.353 2.798 7.873 4.199 11.871 6.225-12.668-19.713-13.666-27.23-3.838-36.206-.779 6.854-1.061 13.599 5.087 18.17 3.322 2.469 7.195 2.642 11.434.197-4.941-4.181-4.001-8.259-1.837-13.378 2.291-5.418 3.06-11.552 3.964-17.457.55-3.597.102-7.349.102-11.028.578-.332 1.157-.664 1.734-.993 3.123 4.202 6.506 8.24 9.283 12.66 2.186 3.481 3.211 7.704 5.478 11.114 4.28 6.44 11.579 8.573 17.914 5.4-9.316-2.851-12.072-9.54-12.372-18.281-.227-6.5-2.592-12.389-7.326-17.348-2.611-2.731-4.246-6.394-6.321-9.636l1.284-.948c2.878 6.57 8.539 8.676 14.882 10.042 8.722 1.883 17.141 4.383 17.812 15.923.918-1.167 1.548-2.077 1.674-3.054 1.13-8.718-.683-16.408-7.504-22.603-7.809-7.092-8.903-9.479-9.115-17.8 7.035 10.523 16.552 14.494 28.892 12.26-13.5-3.43-16.799-13.817-18.779-25.53-1.138-6.729-3.649-13.071-12.891-14.953 8.226-1.209 11.5.576 14.371 6.812 2.194 4.768 4.374 9.539 6.949 15.152 3.41-16.966-.923-31.156-8.896-44.872 4.355 2.957 7.984 5.419 11.614 7.885.209-.358.416-.718.623-1.075-4.946-11.912-9.895-23.822-14.822-35.686l6.682-1.45c-8.031-6.582-15.261-12.494-22.459-18.443-.489-.403-.81-1.06-1.09-1.656-.67-1.425-.878-3.409-1.973-4.217-2.408-1.775-5.131-3.296-7.943-4.312-6.1-2.208-9.88-5.628-8.113-13.022 2.57.851 5.115 1.692 7.658 2.532l2.083-2.428zm-191.188-113.858c-.182-.095-.364-.19-.546-.286-.037.036-.074.072-.111.108zm0 0c5.869 3.075 11.759 6.158 18.427 9.652-.36-2.407.009-4.993-1.113-6.382-2.276-2.819-5.332-5.007-8.078-7.445l.039.09c2.371 3.094 4.729 6.173 6.374 8.322zm9.219-4.19c.005.005.011.01.017.015l-4.073-9.295c4.424.96 8.432 2.205 10.546 7.056.754 1.724 2.493 3.263 4.152 4.297 3.488 2.176 7.219 3.962 10.642 5.795 3.281-7.372-8.03-9.007-7.68-14.824 3.892 1.827 8.124 3.048 11.361 5.552 3.109 2.403 5.191 6.132 7.799 9.377 3.112-6.813-.201-12.333-3.825-18.319 3.738 1.712 7.816 3.516 9.643 6.635 1.871 3.196 1.539 7.677 2.228 11.955 3.874-4.676 5.308-9.637 4.386-15.386-.135-.848.845-1.875 1.373-2.828 1.644 4.657 3.287 9.314 4.928 13.972 4.463-6.861 1.062-13.401.528-19.479 9.924 1.198 5.528 12.485 11.936 16.404 4.827-12.411 4.827-12.411 3.571-18.303 4.365 2.64 4.846 6.142 3.498 10.607-2.155 7.133.018 12.52 6.242 16.264 1.134-3.789 2.248-7.519 3.362-11.25-1.622 2.746-3.244 5.491-4.962 8.392-3.891-4.408-4.926-8.73-2.976-14.276.87-2.474-.469-5.932-1.382-8.759-.991-3.069-2.65-5.921-3.982-8.792-2.25 2.131-3.541 5.588-1.364 9.636 2.867 5.337.196 8.981-3.263 13.136-1.222-3.939-1.272-8.281-3.465-10.309-4.497-4.156-9.772-7.308-8.566-14.942-5.658 8.596 2.947 16.069 1.147 24.572l-5.201-6.967c.003-.007.007-.014.011-.021-2.246-5.253-4.952-10.099-11.76-13.359 9.363 13.046 10.887 18.469 7.476 24.637-3.346-10.642-10.669-15.128-21.262-12.396 5.761 2.338 10.158 5.367 10.665 11.416-2.931-1.522-5.593-3.292-8.518-4.328-4.216-1.493-7.161-3.446-7.868-8.444-.3-2.128-2.901-3.933-4.456-5.883-.106 2.828 1.756 5.041 1.359 6.718-1.408 5.939 1.04 9.736 5.554 12.927.393.278.365 1.15.607 2.01-5.399-1.691-10.084-3.042-12.083-8.845-.668-1.942-3.957-3.71-6.325-4.186-4.987-1.003-10.158-1.099-15.252-1.567l-.543 1.685c6.908.841 12.61 3.431 15.775 9.7zm109.547 4.946c11.428-5.538 7.216-16.028 8.229-24.87-1.843 3.296-2.831 6.87-4.086 10.348-.96 2.665-1.565 6.185-3.559 7.594-3.927 2.781-8.708 4.363-13.502 6.612-.246-7.746 3.66-13.394 10.799-18.251-10.44.686-13.348 9.133-18.196 14.767 1.062-5.985 2.126-11.994 3.19-18.001l-2.238-.658c-2.083 4.934-4.165 9.871-6.246 14.806 2.03-2.641 4.063-5.283 6.349-8.259.964 6.626-7.138 12.081-2.705 19.255 2.8-4.867 5.493-9.541 8.538-14.835v14.831l15.865-9.918c-.922 2.488-1.7 4.585-2.438 6.579zm-.34.918c.112-.304.226-.61.34-.918-.36.175-.736.344-1.128.509.262.136.525.273.788.409zm-16.08 226.644c.085-.021.17-.042.255-.064l-.171-.137zm-50.177 41.797 2.964 9.053 6.99.573 3.372-9.033.041.001c3.319 4.572 5.525 7.614 7.73 10.658.605-2.632-.144-4.795-.52-7.024-.384-2.275-.399-4.61-.577-6.919.257-.018.515-.036.771-.05l2.969 5.878 2.618-4.856 5.942 4.082c-.477-4.282-.844-7.549-1.207-10.815l1.2-.673c2.19 2.46 4.378 4.921 7.314 8.224v-9.667l8.21 2.827c-1.757-3.138-2.847-5.09-4.288-7.664 2.34 1.683 3.974 2.853 5.679 4.078 4.677-11.592 3.748-18.284-2.376-22.485l3.345-7.985c-8.097 1.953-15.013-1.607-21.461-5.489-5.763-3.469-10.954-7.972-16.038-12.426-1.715-1.502-3.207-4.219-3.29-6.44-.378-10.198 5.315-16.288 15.497-18.904 9.571-2.459 18.122-8.082 14.505-18.84-1.148.605-2.277 1.101-3.301 1.763-1.051.681-1.998 1.52-3.085 2.361-2.333-6.086-4.914-7.158-11.073-4.7-7.279 2.905-14.57 3.793-21.946.46-7.845-3.543-9.401-3.231-14.746 3.253l-5.834-3.271c-2.822 3.757-1.775 6.881 1.146 9.095 3.422 2.593 7.129 5.052 11.082 6.662 9.603 3.915 15.294 11.566 14.817 21.989-.106 2.318-1.762 5.41-3.675 6.655-9.202 5.966-18.605 11.614-28.194 16.934-2.649 1.472-6.14 1.432-10.522 2.353l4.428 7.569c.43-.303.859-.604 1.289-.906.132-.113.264-.227.394-.342.007.017.015.033.022.05 7.611-5.194 15.182-10.448 22.872-15.522 1.291-.851 3.124-1.378 4.659-1.282 7.251.446 14.486 1.131 21.723 1.811 1.043.099 2.234.369 3.035.984 5.691 4.358 11.279 8.851 16.943 13.246 1.431 1.112 3.027 2.014 4.944 3.269-1.348.484-2.446.876-3.801 1.364 1.788 1.144 3.393 2.169 6.089 3.894l-6.416 2.122c1.335 1.612 2.552 3.089 3.943 4.77-1.841 1.66-6.833-3.789-6.01 3.162-2.065-1.473-3.87-2.763-5.675-4.053-.269.25-.538.504-.804.755l3.114 6.081c-2.882-2.283-4.585-3.629-6.857-5.43-.174 2.385-.287 3.968-.382 5.283-2.886-.793-5.616-1.544-8.839-2.428-.699 1.94-1.398 3.88-2.099 5.819-2.029-1.305-4.187-2.69-6.954-4.464-.386 2.702-.684 4.803-1.155 8.102-1.603-3.415-2.747-5.859-4.246-9.055l-3.363 4.636c-.763-1.237-1.514-2.455-2.844-4.616l-2.248 6.705-7.025-5.216c-1.263-1.153 1.677-5.971-4.943-3.763.167-1.817.317-3.43.507-5.476l-7.828 3.125c-2.118-4.605-4.231-9.213-6.34-13.823-.012.008-.024.016-.036.025-.127.089-.254.178-.38.267-1.327 1.135-2.756 2.206-3.84 3.556-1.266 1.577-2.74 3.391-2.977 5.249-.172 1.358 1.509 2.953 2.51 4.696l5.915-.663-1.153 7.505 8.989-3.056.782 5.95c4.249 4.924 7.928 9.185 11.896 13.781l2.315-4.392 1.315 9.543 1.967-.019.57-12.279c1.057 1.322 1.198 2.741 1.888 3.806zm-7.583-103.715c-.131-.047-.263-.093-.397-.138.132.046.264.092.397.138zm32.695.626c.382-.171.763-.35 1.145-.537-.393.172-.775.351-1.145.537zm-32.695-.626c10.526 3.808 9.69 14.072 12.045 22.371.461-.184.92-.367 1.383-.55l2.031-8.067 1.363.112 1.37 8.677c.587.201 1.172.401 1.759.604 1.597-9.101 3.61-17.931 12.744-22.521-11.031 4.94-21.757 3.172-32.695-.626zm76.223-40.96-1.392-.718c-5.734 3.186-11.464 6.372-17.193 9.557.271.557.544 1.115.814 1.674 4.703-1.445 9.6-2.475 14.013-4.536 1.793-.838 2.536-3.918 3.758-5.977zm-119.149-1.699-1.458 1.142c.677 9.235 10.889 5.602 15.167 9.972.412-.554.824-1.112 1.235-1.667z"
    fill="#4c566a"
  />
</svg>
