<svg clip-rule="evenodd" fill-rule="evenodd" stroke-linejoin="round" stroke-miterlimit="2" viewBox="0 0 888 600" xmlns="http://www.w3.org/2000/svg">
  <g fill="#d8dee9">
    <g fill-rule="nonzero">
      <path
        d="m298.919 478.279c-3.888 0-7.188-.624-9.9-1.872s-4.788-2.856-6.228-4.824-2.208-4.056-2.304-6.264c0-.384.144-.72.432-1.008s.648-.432 1.08-.432h1.44c.48 0 .852.144 1.116.432s.42.624.468 1.008c.192 1.344.792 2.676 1.8 3.996s2.496 2.424 4.464 3.312 4.512 1.332 7.632 1.332c4.704 0 8.136-.852 10.296-2.556s3.24-3.996 3.24-6.876c0-1.92-.564-3.468-1.692-4.644s-2.844-2.232-5.148-3.168-5.256-1.98-8.856-3.132c-3.408-1.104-6.216-2.244-8.424-3.42s-3.828-2.604-4.86-4.284-1.548-3.84-1.548-6.48c0-2.448.648-4.644 1.944-6.588s3.18-3.492 5.652-4.644 5.484-1.728 9.036-1.728c2.832 0 5.304.384 7.416 1.152s3.864 1.788 5.256 3.06 2.448 2.64 3.168 4.104 1.104 2.892 1.152 4.284c0 .336-.12.66-.36.972s-.624.468-1.152.468h-1.44c-.24 0-.54-.096-.9-.288s-.588-.576-.684-1.152c-.288-2.4-1.548-4.38-3.78-5.94s-5.124-2.34-8.676-2.34-6.456.696-8.712 2.088-3.384 3.576-3.384 6.552c0 1.92.504 3.492 1.512 4.716s2.592 2.304 4.752 3.24 4.944 1.956 8.352 3.06c3.6 1.152 6.576 2.304 8.928 3.456s4.104 2.556 5.256 4.212 1.728 3.804 1.728 6.444c0 2.928-.732 5.412-2.196 7.452s-3.54 3.6-6.228 4.68-5.904 1.62-9.648 1.62z"
      />
      <path
        d="m338.951 477.559c-.768 0-1.356-.168-1.764-.504s-.732-.768-.972-1.296l-13.248-33.408c-.096-.288-.144-.552-.144-.792 0-.384.144-.72.432-1.008s.624-.432 1.008-.432h1.512c.48 0 .852.132 1.116.396s.42.492.468.684l12.168 31.104 12.168-31.104c.096-.192.264-.42.504-.684s.6-.396 1.08-.396h1.512c.384 0 .72.144 1.008.432s.432.624.432 1.008c0 .24-.048.504-.144.792l-13.248 33.408c-.192.528-.504.96-.936 1.296s-1.032.504-1.8.504z"
      />
      <path
        d="m377.255 478.279c-4.656 0-8.352-1.524-11.088-4.572s-4.296-7.044-4.68-11.988c-.048-.72-.072-1.68-.072-2.88s.024-2.16.072-2.88c.24-3.264 1.008-6.144 2.304-8.64s3.084-4.44 5.364-5.832 4.98-2.088 8.1-2.088c3.36 0 6.216.744 8.568 2.232s4.164 3.624 5.436 6.408 1.908 6.096 1.908 9.936v1.08c0 .48-.156.864-.468 1.152s-.708.432-1.188.432h-25.632v.72c.096 2.16.6 4.212 1.512 6.156s2.208 3.528 3.888 4.752 3.672 1.836 5.976 1.836c2.064 0 3.78-.312 5.148-.936s2.46-1.308 3.276-2.052 1.344-1.308 1.584-1.692c.432-.624.768-.996 1.008-1.116s.624-.18 1.152-.18h1.152c.432 0 .804.132 1.116.396s.444.612.396 1.044c-.048.672-.42 1.5-1.116 2.484s-1.68 1.956-2.952 2.916-2.82 1.752-4.644 2.376-3.864.936-6.12.936zm-11.376-21.672h22.896v-.288c0-2.4-.456-4.56-1.368-6.48s-2.232-3.444-3.96-4.572-3.792-1.692-6.192-1.692-4.452.564-6.156 1.692-3 2.652-3.888 4.572-1.332 4.08-1.332 6.48z"
      />
      <path
        d="m404.255 477.559c-.48 0-.864-.144-1.152-.432s-.432-.672-.432-1.152v-34.272c0-.48.144-.864.432-1.152s.672-.432 1.152-.432h1.224c.48 0 .864.144 1.152.432s.432.672.432 1.152v3.384c1.296-1.68 2.868-3.048 4.716-4.104s4.308-1.584 7.38-1.584c3.264 0 5.988.708 8.172 2.124s3.816 3.336 4.896 5.76 1.62 5.172 1.62 8.244v20.448c0 .48-.144.864-.432 1.152s-.672.432-1.152.432h-1.224c-.48 0-.864-.144-1.152-.432s-.432-.672-.432-1.152v-20.088c0-3.84-.936-6.852-2.808-9.036s-4.608-3.276-8.208-3.276c-3.408 0-6.156 1.092-8.244 3.276s-3.132 5.196-3.132 9.036v20.088c0 .48-.144.864-.432 1.152s-.672.432-1.152.432z"
      />
      <path
        d="m481.943 478.279c-4.128 0-7.596-.804-10.404-2.412s-4.944-3.852-6.408-6.732-2.268-6.192-2.412-9.936c-.048-2.16-.072-4.44-.072-6.84s.024-4.68.072-6.84c.144-3.792.948-7.116 2.412-9.972s3.612-5.088 6.444-6.696 6.288-2.412 10.368-2.412c3.312 0 6.144.492 8.496 1.476s4.272 2.208 5.76 3.672 2.592 2.94 3.312 4.428 1.104 2.736 1.152 3.744c.048.432-.072.78-.36 1.044s-.672.396-1.152.396h-1.584c-.432 0-.744-.108-.936-.324s-.384-.588-.576-1.116c-.48-1.488-1.284-2.916-2.412-4.284s-2.64-2.496-4.536-3.384-4.284-1.332-7.164-1.332c-4.272 0-7.74 1.164-10.404 3.492s-4.092 6.204-4.284 11.628c-.144 4.32-.144 8.64 0 12.96.192 5.376 1.62 9.24 4.284 11.592s6.132 3.528 10.404 3.528c2.832 0 5.376-.54 7.632-1.62s4.032-2.736 5.328-4.968 1.944-5.076 1.944-8.532v-3.672h-12.528c-.48 0-.864-.156-1.152-.468s-.432-.708-.432-1.188v-1.008c0-.528.144-.936.432-1.224s.672-.432 1.152-.432h15.408c.528 0 .936.144 1.224.432s.432.696.432 1.224v6.336c0 3.84-.756 7.224-2.268 10.152s-3.72 5.208-6.624 6.84-6.42 2.448-10.548 2.448z"
      />
      <path
        d="m513.119 477.559c-.48 0-.864-.144-1.152-.432s-.432-.672-.432-1.152v-34.2c0-.48.144-.876.432-1.188s.672-.468 1.152-.468h1.152c.48 0 .876.156 1.188.468s.468.708.468 1.188v3.312c.864-1.68 2.112-2.928 3.744-3.744s3.648-1.224 6.048-1.224h2.664c.48 0 .864.144 1.152.432s.432.672.432 1.152v1.008c0 .48-.144.864-.432 1.152s-.672.432-1.152.432h-3.096c-2.88 0-5.16.84-6.84 2.52s-2.52 3.96-2.52 6.84v22.32c0 .48-.156.864-.468 1.152s-.708.432-1.188.432z"
      />
      <path
        d="m549.623 478.279c-4.656 0-8.352-1.524-11.088-4.572s-4.296-7.044-4.68-11.988c-.048-.72-.072-1.68-.072-2.88s.024-2.16.072-2.88c.24-3.264 1.008-6.144 2.304-8.64s3.084-4.44 5.364-5.832 4.98-2.088 8.1-2.088c3.36 0 6.216.744 8.568 2.232s4.164 3.624 5.436 6.408 1.908 6.096 1.908 9.936v1.08c0 .48-.156.864-.468 1.152s-.708.432-1.188.432h-25.632v.72c.096 2.16.6 4.212 1.512 6.156s2.208 3.528 3.888 4.752 3.672 1.836 5.976 1.836c2.064 0 3.78-.312 5.148-.936s2.46-1.308 3.276-2.052 1.344-1.308 1.584-1.692c.432-.624.768-.996 1.008-1.116s.624-.18 1.152-.18h1.152c.432 0 .804.132 1.116.396s.444.612.396 1.044c-.048.672-.42 1.5-1.116 2.484s-1.68 1.956-2.952 2.916-2.82 1.752-4.644 2.376-3.864.936-6.12.936zm-11.376-21.672h22.896v-.288c0-2.4-.456-4.56-1.368-6.48s-2.232-3.444-3.96-4.572-3.792-1.692-6.192-1.692-4.452.564-6.156 1.692-3 2.652-3.888 4.572-1.332 4.08-1.332 6.48z"
      />
      <path
        d="m591.599 478.279c-2.976 0-5.436-.54-7.38-1.62s-3.516-2.436-4.716-4.068v3.384c0 .48-.144.864-.432 1.152s-.672.432-1.152.432h-1.224c-.48 0-.864-.144-1.152-.432s-.432-.672-.432-1.152v-47.952c0-.48.144-.864.432-1.152s.672-.432 1.152-.432h1.224c.48 0 .864.144 1.152.432s.432.672.432 1.152v17.064c1.2-1.584 2.772-2.928 4.716-4.032s4.404-1.656 7.38-1.656c2.832 0 5.208.504 7.128 1.512s3.48 2.352 4.68 4.032 2.088 3.552 2.664 5.616.888 4.152.936 6.264c.048.72.072 1.392.072 2.016s-.024 1.296-.072 2.016c-.048 2.112-.36 4.2-.936 6.264s-1.464 3.936-2.664 5.616-2.76 3.024-4.68 4.032-4.296 1.512-7.128 1.512zm-.432-4.176c2.832 0 5.064-.624 6.696-1.872s2.808-2.88 3.528-4.896 1.128-4.176 1.224-6.48c.048-1.344.048-2.688 0-4.032-.096-2.304-.504-4.464-1.224-6.48s-1.896-3.648-3.528-4.896-3.864-1.872-6.696-1.872c-2.64 0-4.812.624-6.516 1.872s-2.976 2.808-3.816 4.68-1.284 3.768-1.332 5.688c-.048.72-.072 1.656-.072 2.808s.024 2.088.072 2.808c.096 1.968.54 3.924 1.332 5.868s2.028 3.564 3.708 4.86 3.888 1.944 6.624 1.944z"
      />
      <path d="m450.096 305.091-2.063 5.527-4.221-.346-1.816-5.548z" />
    </g>
    <path
      d="m441.994 304.804c-.417-.644-.502-1.5-1.14-2.299l-.345 7.415-1.187.012-.795-5.763-1.398 2.652c-2.396-2.775-4.618-5.349-7.184-8.323l-.472-3.593-5.429 1.846.697-4.533-3.572.401c-.605-1.053-1.62-2.016-1.516-2.836.143-1.122 1.033-2.218 1.798-3.17.719-.896 1.692-1.59 2.556-2.354 1.278 2.794 2.559 5.587 3.842 8.378l4.728-1.887c-.115 1.235-.206 2.21-.307 3.307 3.999-1.334 2.223 1.576 2.986 2.272l4.242 3.15 1.358-4.049c.803 1.305 1.257 2.041 1.717 2.788l2.031-2.8c.906 1.93 1.597 3.406 2.565 5.469.284-1.993.464-3.262.697-4.894 1.671 1.072 2.974 1.908 4.199 2.696.424-1.171.846-2.342 1.268-3.514 1.947.534 3.596.988 5.338 1.466.058-.794.126-1.75.231-3.19 1.372 1.088 2.4 1.9 4.141 3.279l-1.881-3.672c.161-.152.323-.305.486-.456 1.09.779 2.18 1.558 3.427 2.448-.497-4.198 2.518-.907 3.63-1.91-.841-1.015-1.576-1.907-2.382-2.881l3.875-1.281c-1.628-1.042-2.597-1.661-3.677-2.351.818-.295 1.481-.532 2.295-.824-1.157-.758-2.121-1.303-2.986-1.974-3.42-2.655-6.794-5.368-10.231-8-.484-.371-1.203-.534-1.834-.594-4.37-.411-8.739-.825-13.118-1.094-.927-.058-2.034.26-2.814.774-4.651 3.069-9.231 6.248-13.834 9.389-.336.237-.672.472-1.008.709l-2.674-4.571c2.646-.557 4.755-.532 6.354-1.421 5.791-3.213 11.47-6.624 17.027-10.227 1.155-.752 2.155-2.619 2.219-4.019.288-6.295-3.148-10.915-8.948-13.279-2.387-.973-4.626-2.457-6.693-4.023-1.763-1.337-2.396-3.224-.692-5.493l3.524 1.975c3.228-3.916 4.168-4.104 8.905-1.964 4.454 2.013 8.857 1.476 13.254-.278 3.719-1.485 5.278-.837 6.686 2.839.657-.508 1.229-1.015 1.864-1.426.618-.4 1.3-.7 1.993-1.065 2.184 6.497-2.98 9.892-8.759 11.377-6.15 1.58-9.588 5.258-9.359 11.417.05 1.341.951 2.982 1.986 3.889 3.071 2.69 6.206 5.409 9.686 7.504 3.935 2.369 8.158 4.54 13.114 3.276l-.103-.083-2.071 4.944c3.699 2.537 4.26 6.579 1.435 13.579-1.03-.74-2.016-1.446-3.429-2.463.87 1.555 1.528 2.734 2.589 4.629l-4.958-1.708v5.839c-1.773-1.995-3.094-3.481-4.417-4.967l-.725.406c.22 1.973.441 3.946.729 6.532l-3.588-2.465-1.581 2.932-1.793-3.55c-.154.009-.31.02-.466.031.108 1.394.117 2.804.349 4.178.227 1.346.679 2.652.314 4.242-1.332-1.838-2.664-3.675-4.669-6.436m-1.665-49.38c.354.121.708.242 1.062.365 1.004-5.719 2.279-11.26 8.388-13.925-6.986 3.419-13.759 2.294-20.676-.137 6.609 2.229 6.074 8.519 7.514 13.593.278-.111.555-.221.835-.332l1.226-4.872.823.068zm20.365-21.145c-3.182-4.271-5.428-12.091-4.094-14.637 1.373 4.905 2.691 9.621 4.094 14.637zm-39.113-15.307c.818 4.858-1.358 10.782-4.598 14.243zm53.793-1.898c-.737 1.243-1.186 3.103-2.269 3.61-2.665 1.244-5.622 1.866-8.463 2.739-.163-.338-.328-.674-.492-1.011 3.461-1.924 6.921-3.848 10.384-5.772zm-71.955-1.026 9.025 5.705c-.248.336-.497.672-.746 1.007-2.583-2.64-8.751-.445-9.159-6.023zm57.126 3.92c-.727-.578-1.772-1.408-3.319-2.639.705-2.227 1.082-4.992 2.449-7.128.772-1.207 3.327-2.156 4.803-1.857 3.401.69 6.658 2.152 9.911 3.457.559.224.809 1.216 1.201 1.853-.644.312-1.277.654-1.938.93-.876.367-1.777.676-2.661 1.025-2.267.897-4.535 1.786-6.791 2.709-1.064.436-2.101.945-3.655 1.65zm2.801-2.794c.546.043 1.093.086 1.639.128 1.216-1.497 2.431-2.995 3.648-4.492-1.228-.886-2.346-2.232-3.708-2.551-2.06-.481-4.103.443-3.879 2.911.127 1.392 1.492 2.673 2.3 4.004zm-43.052 1.631c-5.479-.867-10.725-.421-14.187-5.377-.566-.811-2.862-.416-5.104-.66 1.058-1.177 1.883-2.952 3.104-3.288 3.276-.901 6.64-1.442 10.033-1.611 2.999-.145 4.786 1.573 5.008 4.799.129 1.864.673 3.699 1.146 6.137zm-4.065-6.021c.225-2.469-1.819-3.392-3.879-2.911-1.36.318-2.48 1.665-3.707 2.551 1.216 1.497 2.432 2.994 3.647 4.492.547-.042 1.093-.086 1.64-.128.808-1.331 2.172-2.611 2.299-4.004zm-2.993-44.01 3.096.473-3.507-4.478.732-.766c1.684 1.302 3.369 2.603 5.272 4.071l-.353-2.52 5.417 2.606.016-.559-8.24-9.5c.194-.312.387-.626.58-.939 1.626 1.2 3.716 2.092 4.77 3.673 1.594 2.39 3.508 3.584 6.222 4.279 2.107.541 4.004 1.898 6.386 3.089l-4.667-17.139 6.623 6.647.839-.371c-3.067-3.067-4.804-6.4-2.305-11.279l2.046 7.156c.288-.06.576-.117.865-.175l1.281-7.661 1.01.047c.224 1.888.448 3.776.673 5.663l.876.061c.175-2.072.348-4.143.581-6.893 2.931 4.175 2.235 7.657.648 11.271.982-1.315 1.963-2.631 2.765-3.703.309 2.729.852 5.302.788 7.86-.032 1.329-1.042 2.686-1.779 3.931-1.256 2.129-1.176 2.724 1.198 4.416l.793-3.912 1.029-.187 1.185 6.211 17.628-12.839c-1.029 5.05-6.944 6.566-8.279 11.379 2.122-1.222 4.372-2.521 6.625-3.821l.522.639c-.218.557-.435 1.115-.946 2.417l7.001-2.718c-.399 3.199-3.165 3.503-6.027 4.886h5.011c-2.184 2.836-4.575 2.331-6.992 2.277-3.605-.082-7.272-.142-10.807.435-2.089.34-3.974 1.925-6.623 3.299-.889-.547-2.369-2.054-4.05-2.323-1.71-.273-3.798.328-5.394 1.168-2.048 1.077-3.308.651-5.213-.477-2.039-1.207-4.674-1.548-7.102-1.93-3.637-.573-7.328-.825-10.194-3.764zm93.525-12.123c-3.247-.029-6.523.196-9.73-.167-2.563-.288-5.044-1.295-7.561-1.982 3.886.24 7.783.366 11.651.767 1.907.198 3.761.905 5.64 1.382z"
    />
    <path
      d="m507.755 147.291c.131.026.261.021.386-.015-2.661 2.003-5.312 4.015-7.98 6.004-.801.598-1.649 1.133-2.477 1.696l-1.084-.917c3.84-2.33 7.497-4.549 11.155-6.768z"
    />
    <path
      d="m507.755 147.291c-1.201.291-2.388.687-3.605.847-2.403.315-4.819.523-7.233.727-2.946.25-5.898.451-9.05.689-.884-2.694.151-4.565 4.073-5.549 3.253-.817 6.031-2.074 7.452-5.484l-18.169 6.363c.793-2.142 1.504-4.063 2.49-6.721l-9.581 5.99v-8.957c-1.839 3.197-3.465 6.02-5.156 8.959-2.677-4.333 2.215-7.627 1.633-11.628-1.38 1.797-2.608 3.392-3.834 4.987 1.257-2.98 2.514-5.961 3.772-8.941l1.351.397c-.642 3.628-1.285 7.257-1.926 10.871 2.928-3.402 4.684-8.503 10.989-8.918-4.311 2.933-6.67 6.344-6.521 11.022 2.895-1.358 5.782-2.314 8.153-3.993 1.204-.851 1.57-2.977 2.15-4.586.758-2.1 1.354-4.259 2.467-6.249-.631 5.508 2.095 12.075-5.651 15.327.416.216.833.432 1.248.649l21.7-7.292c-2.602 2.62-4.697 5.336-7.37 7.243-2.508 1.786-5.628 2.716-8.244 4.592 6.904-.074 13.778 1.459 20.167-2.12 2.268-1.272 5.072-1.595 7.741-1.928-2.888 1.228-5.777 2.457-8.66 3.688-.125.036-.258.041-.386.015zm-42.975-9.202c-.673 2.253-1.346 4.506-2.031 6.794-3.758-2.261-5.07-5.514-3.769-9.822.814-2.696.524-4.811-2.113-6.405.759 3.558.759 3.558-2.156 11.053-3.87-2.367-1.216-9.183-7.209-9.907.323 3.671 2.377 7.621-.318 11.764-1.013-2.875-2.027-5.749-3.042-8.623l3.237 4.336c1.087-5.135-4.109-9.648-.692-14.84-.729 4.611 2.457 6.515 5.172 9.024 1.325 1.225 1.355 3.847 2.093 6.226 2.089-2.509 3.702-4.71 1.971-7.933-1.315-2.444-.535-4.532.824-5.819.804 1.734 1.806 3.456 2.405 5.309.551 1.707 1.359 3.796.834 5.29-1.177 3.349-.552 5.959 1.797 8.622 1.038-1.753 2.017-3.411 2.997-5.069z"
    />
    <path
      d="m444.245 133.059c-.307.594-.951 1.244-.866 1.777.556 3.472-.31 6.468-2.649 9.292-.416-2.584-.216-5.29-1.346-7.22-1.103-1.884-3.566-2.973-5.824-4.007 2.189 3.615 4.19 6.948 2.311 11.063-1.575-1.96-2.833-4.212-4.71-5.663-1.955-1.512-4.511-2.249-6.861-3.353-.212 3.513 6.619 4.501 4.638 8.953-2.067-1.107-4.321-2.186-6.427-3.5-1.002-.625-2.052-1.554-2.507-2.595-1.277-2.93-3.697-3.681-6.37-4.261l2.502 5.709c-1.901-3.862-5.369-5.45-9.579-5.963l.328-1.017c3.076.282 6.199.34 9.211.946 1.43.287 3.417 1.355 3.82 2.528 1.207 3.504 4.037 4.32 7.297 5.341-.146-.519-.129-1.046-.367-1.214-2.726-1.926-4.204-4.22-3.354-7.806.24-1.013-.884-2.349-.82-4.057.939 1.178 2.509 2.268 2.691 3.553.426 3.018 2.205 4.197 4.751 5.099 1.766.626 3.374 1.695 5.145 2.614-.307-3.653-2.963-5.483-6.441-6.894 6.397-1.65 10.819 1.059 12.84 7.486 2.06-3.725 1.14-7-4.515-14.879 4.112 1.969 5.746 4.895 7.102 8.068z"
    />
    <path
      d="m416.039 139.109c1.673 1.492 3.544 2.824 4.934 4.546.677.838.455 2.4.672 3.854-4.152-2.176-7.805-4.088-11.458-6.002-.244.238-.489.475-.733.713 3.26 2.989 3.909 6.412 1.808 11.42-1.778-8.472-9.71-5.775-13.936-9.687.249 3.11.229 3.157 3.799 4.689 3.086 1.323 5.102 3.246 4.693 6.544-9.69-4.807-19.601-8.207-31.743-6.779 2.579.452 4.225 1.105 5.788.947 4.586-.465 7.757 1.048 10.331 5.042 1.32 2.049 4.126 3.142 6.315 4.706-4.322 2.899-7.23-1.758-11.212-2.75 1.354 1.686 2.436 3.031 3.849 4.788-1.726.671-2.942 1.143-3.677 1.429 2.997 1.845 6.259 3.855 9.522 5.865-.225.403-.45.807-.674 1.211-.96-.382-1.922-.764-3.11-1.237v1.885c-1.615-.336-3.122-.65-5.081-1.057l1.14 2.685c-1.765-.215-3.26-.398-5.127-.628l3.03 5.3c-4.902 2.723-8.937 1.952-15.441-3.397l1.239 4.281c-.818.346-1.637.693-2.455 1.039l1.228 2.357-7-1.152c-.122.108-.243.217-.364.324 1.307.793 2.529 2.018 3.936 2.29 3.324.641 6.815 1.464 10.094 1.056 5.539-.687 10.887-.826 16.396 1.245-1.102 5.025-5.936 4.572-10.431 6.287 2.197.147 3.359.224 5.268.351l-4.266 2.6.802.66 11.527-2.386.724 1.459c-1.523 1.197-3.045 2.396-4.527 3.563l1.845.519.228.804c-4.675 1.96-9.349 3.922-14.248 5.975.952 5.677-5.433 4.255-7.898 7.536l7.378-1.348 1.767 5.392 3.247-2.675-2.716 11.313c.262.115.525.233.787.348.762-.811 1.523-1.621 2.284-2.432v5.576l.588.119c1.647-3.71 3.475-7.352 4.903-11.145 2.785-7.4 8.514-12.638 13.745-18.059 1.569-1.628 2.986-3.37 4.471-5.076 2.01-2.313 4.097-4.577 6.359-6.636.595-.542 1.954-.247 3.134.24-6.118 3.513-8.835 9.314-11.814 15.183-4.402-2.144-3.878 2.48-5.242 4.142-1.881 2.293-2.396 5.482-5.759 6.85-2.448.995-4.973 8.706-4.035 11.289.978 2.692.633 4.954-.697 7.472-.763 1.444-.464 3.448-.643 5.199l.983.233c.823-.62 1.645-1.239 3.226-2.428l-1.532 5.567.651.328 2.113-1.9c1.608 7.827 6.603 13.615 10.843 19.823 1.143 1.676 2.281 1.321 3.771.507 1.675-.915 3.506-1.545 5.27-2.3l.386.825c-2.28 1.471-4.559 2.942-7.15 4.616-4.609-1.556-5.487-1.503-9.479 1.104l1.535-4.89c-1.636.707-2.915 1.261-4.567 1.974l.938-3.334c-.183-.196-.366-.389-.55-.582-1.95 1.998-3.901 3.995-5.852 5.995-.176-.08-.351-.158-.527-.239l5.539-9.551c-.151-.097-.302-.195-.454-.29-1.939 1.706-3.88 3.413-5.82 5.118l-.584-.282 2.532-5.338c-1.185.532-2.369 1.064-3.553 1.596l-.441-.53c1.248-1.348 2.494-2.696 4.448-4.805l-5.239 2.545-.662-.618c1.498-1.371 2.996-2.742 4.386-4.016-4.71.024-7.417 2.727-12.088 12.24-.225-5.35 2.066-10.448 7.512-16.712-4.148 1.753-6.322 4.326-11.725 13.874.469-6.224 3.835-11.57 11.406-19.213-3.115.915-6.23 1.829-10.181 2.989l7.732-5.946c-2.492-2.535-5.737-1.912-8.956-2.605 2.208-.53 4.417-1.059 7.507-1.801-.589-3.195-1.093-6.685-1.984-10.072-.161-.611-2.108-1.364-2.906-1.094-3.761 1.271-7.408 2.876-10.637 4.178.091 1.476.172 2.403.184 3.329.002.165-.255.407-.445.492-5.058 2.251-8.286 6.827-11.137 10.923-3.231 4.645-8.479 6.916-11.481 11.901l1.756.51-6.136 15.848 1.119.709c1.21-1.083 2.427-2.158 3.629-3.25 3.012-2.735 5.921-5.598 9.084-8.149 1.01-.814 2.687-.806 4.059-1.176.352.453.704.905 1.056 1.356-.883.431-2.038.644-2.598 1.335-1.693 2.094-3.683 4.177-4.598 6.622-1.9 5.075-5.144 8.729-9.59 11.639-2.819 1.846-5.374 4.09-7.682 6.622 3.955-1.471 7.866-3.076 11.876-4.376 3.919-1.267 5.699-6.366 10.969-5.567-2.701 3.831-4.602 8.196-8.531 11.021-4.034 2.898-7.322 6.355-8.922 10.192 6.104-1.673 12.645-3.462 19.185-5.253.266.282.532.568.797.852-.836 1.148-1.472 2.553-2.549 3.395-2.329 1.819-4.864 3.381-7.349 4.994-4.447 2.885-7.373 6.73-7.82 11.561 2.406-1.227 4.96-3.008 7.795-3.855 3.43-1.025 7.329.938 8.861 3.692 1.722 3.094.921 5.561-2.568 6.179-3.799.674-4.141 3.146-4.505 6.344 4.053-3.766 10.187-5.047 15.016-3.208-.82.87-1.842 1.557-2.274 2.513-.56 1.242-1.24 2.901-.847 4.022 2.388 6.804 2.485 6.769-1.699 11.617 4.862-.287 7.371-2.507 9.337-6.821 1.002-2.199 2.928-4.451 5.03-5.57 3.332-1.778 7.16-2.622 11.153-3.99-.104 3.36-2.228 5.14-4.418 6.165-4.405 2.062-5.507 5.367-5.74 9.894-.209 4.077-1.57 8.094-2.348 11.784 2.578-3.125 6.68-5.499 8.048-10.602 1.138-4.245 9.403-6.614 13.31-4.509 2.327 1.253 3.8 3.301 3.26 5.868-.702 3.317-1.744 6.552-3.11 9.654-2.305 5.237-2.786 8.595-1.221 13.572.688-2.349 1.144-4.728 2.085-6.898.971-2.24 2.577-4.542 5.425-3.619 3.077.997 1.722 3.713 1.437 5.876-.058.443-.201.873-.41 1.751 3.643-1.807 5.207.341 6.633 3.48 2.957-2.486 5.979-3.001 9.183.475 1.033-5.573 1.154-11.139 6.74-14.04l-.695 15.722 1.201.179c1.128-5.568.287-12.176 7.225-14.852-.931 6.143-1.831 12.08-2.729 18.015l1.027.218 1.859-5.921c.369-.038.737-.077 1.104-.114.976 4.171 1.949 8.342 2.971 12.717 2.194-1.35 3.064-3.199 2.144-5.661-1.208-3.239-.588-6.136.851-9.196 1.094-2.331 1.428-5.012 2.134-7.53.325-1.161.73-2.299 1.099-3.448l1.361.006c.333 4.081.667 8.163 1.015 12.407l5.554-11.757c.904 7.75-.067 15.298 6.637 20.163.537-1.937 1.492-4.404 1.849-6.954.346-2.464.075-5.016.075-7.819 7.711 3.338 5.225 12.992 10.68 17.49 1.599-2.438 3.079-4.81 4.679-7.098 1.866-2.671 2.256-5.312.661-8.31-1.336-2.511-1.922-5.224-.722-8.245 5.621 5.858 8.824 12.249 7.917 20.309.963-2.775 1.927-5.549 2.89-8.323.998-2.873.803-5.376-1.264-7.944-2.852-3.536-2.808-8.359-.434-12.478 1.186 2.067 2.084 4.349 3.606 6.089 1.609 1.835 3.811 3.155 6.605 5.376-1.238-2.713-2.062-4.523-2.889-6.335-.898-1.962-2.005-3.857-2.652-5.9-1.15-3.635-.116-7.17 2.23-8.658 2.535-1.61 6.893-1.124 9.546 1.365 1.82 1.707 3.295 3.775 4.967 5.64 1.497 1.671 3.052 3.289 5.157 5.548-.684-3.161-1.654-5.431-1.526-7.636.148-2.531 1.066-5.089 2.037-7.477.716-1.759 2.272-3.168 3.052-4.91.764-1.713 1.023-3.65 1.675-6.139 1.983 3.3 1.527 6.311 1.357 9.394-.14 2.543.162 5.162.672 7.665.198.973 1.503 1.725 1.945 2.196 1.071-2.983 2.402-5.642 2.948-8.452.838-4.306 1.195-8.71 1.629-13.086.14-1.424-.12-2.889-.196-4.32 4.472-.402 8.412 2.514 10.438 7.432.953 2.312 1.836 4.661 2.962 6.886.524 1.037 1.553 1.819 2.38 2.746-1.514-5.447-2.417-10.961-4.6-15.912-2.182-4.948-5.646-9.335-8.547-13.967.427-.427.856-.854 1.285-1.281 2.08 1.488 4.677 2.601 6.105 4.564 1.688 2.317 3.594 3.615 6.222 4.339 3.28.901 6.51 1.979 10.434 2.655-1.826-2.086-3.84-4.041-5.427-6.294-1.666-2.37-2.975-4.997-4.343-7.562-1.365-2.565-2.608-5.193-4.132-8.248 3.32.649 5.687 2.523 7.918 4.666l6.789 6.518c-1.94-5.983-3.634-11.155-5.29-16.336-1.033-3.232-3.531-4.587-6.591-5.256-.938-.205-1.885-.371-3.048-.599 4.784-5.414 10.019-3.989 16.269 4.4-.433-9.942-5.012-17.465-11.373-25.221 4.709.557 7.015 3.553 9.873 5.487.316-.188.631-.375.947-.562l-9.439-19.011 1.64-.11c-.081-.327-.053-.762-.247-.916-3.091-2.433-6.184-4.863-9.332-7.222-1.188-.889-3.256-1.049-2.3-3.43.127-.315-.501-1.196-.974-1.446-3.224-1.702-6.389-3.612-9.796-4.847-2.905-1.053-6.106-1.295-9.44-1.947l5.038 2.388c-5.408-1.23-10.501-1.888-14.737 3.898 2.384-.501 4.109-.863 6.837-1.435-1.416 1.245-2.076 1.825-3.01 2.645l7.845.809-.062.594c-2.284.34-4.569.681-7.355 1.097 4.073 1.354 7.583 2.519 11.093 3.685-.088.293-.176.586-.262.879l-10.691-1.646c-.178.333-.357.665-.537.997 6.714 2.639 9.936 7.919 11.663 14.375-3.447-2.81-5.196-7.646-10.199-8.239l5.207 7.774c-.208.165-.416.33-.624.496-1.72-1.487-3.441-2.974-5.161-4.46-.098.097-.197.194-.294.291l7.117 14.024c-.156.067-.312.135-.468.202-3.183-2.949-6.367-5.897-9.551-8.844-.093.151-.187.302-.282.452 1.162 2.301 2.321 4.603 3.483 6.903l-.851.512-5.802-6.88-.554.413c.349 1.235.699 2.469 1.05 3.706-.203.136-.406.27-.608.404l-2.024-3.063c-.241.149-.485.3-.726.452l2.061 7.18-.592.403c-1.348-1.5-2.696-3-4.346-4.833l.681 4.346c-2.993-2.296-5.219-.916-7.384 1.079-1.692 1.561-3.468 3.844-4.982-.277-.231-.626-1.397-.908-2.967-1.854 1.376.212 1.798.226 2.186.345 5.229 1.603 5.835 1.473 7.948-3.501 1.751-4.124 4.373-7.933 3.957-12.879-.251-2.97 1.502-3.584 4.234-2.149-.615-2.49-1.266-5.123-1.979-8.011-.341.105-1.228.375-2.752.84l1.33-4.098c-.623.144-1.175.272-2.237.519.69-2.193 1.277-4.061 1.865-5.929-.159-.117-.318-.234-.478-.351-.313.587-.626 1.173-.937 1.759-.258-.099-.514-.198-.771-.298l.832-8.732c-.767-.087-1.452-.164-2.102-.238-.056-.402-.179-.661-.104-.836 2.399-5.585-.609-9.606-3.909-13.544-2.913-3.475-5.874-6.91-8.698-10.454-.578-.725-.641-1.859-.941-2.805l.991-.662c1.852 1.876 3.768 3.693 5.54 5.64 2.683 2.948 5.712 5.715 7.769 9.064 2.077 3.381 3.15 7.378 4.041 11.589l1.24-3.025.844.138c-.268 3.556-.537 7.111-.804 10.667.262-.072.526-.144.789-.215l1.033 4.556c1.33-4.182 2.572-8.082 3.813-11.982.145.016.29.033.436.051v6.548c3.407-2.88 3.394-6.456 2.915-10.955 6.174 3.068 11.749 5.835 17.499 8.691l-2.774-3.604 4.931.216c-2.076-2.299-6.328-1.795-6.935-6.169l-9.72-6.253c.115-.28.228-.56.342-.84l4.734-.383-10.251-3.981.266-.9h4.78c-1.375-1.013-2.311-1.702-3.349-2.468l13.469-3.771-.006-.494h-6.184l4.382-5.576h-8.347c1.221-1.163 1.828-1.741 2.854-2.719-1.874-.295-3.354-.528-4.834-.76l-.259-.674 6.533-2.546h-9.532c-.069-.186-.137-.373-.206-.559l4.77-2.151c-2.151-.227-3.898-.414-5.643-.598-.012-.211-.025-.421-.039-.631 1.144-.502 2.288-1.002 3.802-1.665l-2.498-1.031c3.352-1.865 6.407-3.563 9.384-5.218-3.81-2.167-7.305-5.887-12.739-3.645l-.203-1.127c1.758-.812 3.453-2.068 5.29-2.332 2.657-.38 5.418-.014 8.133-.052.292-.003.577-.566.865-.871 3.339.62 6.677 1.239 9.791 1.816-2.848 1.442-6.157 2.302-9.611.638-3.457-1.667-6.844-1.159-10.466.492 5.071 1.617 10.211 3.045 15.177 4.933 2.259.859 4.171 2.626 5.985 4.432-4.695-2.242-9.276-3.818-14.299-1.98 3.215 1.97 6.259 3.852 9.318 5.709 3.149 1.912 4.226 4.893 4.497 8.363.645 8.274-.515 16.134-5.128 23.247-.302.468-.527.988-.996 1.882l8.086 3.371-2.223 1.275c.292-.296.584-.591.877-.886l5.837 6.005-1.258 1.466c-1.536-.507-3.072-1.015-4.625-1.529-1.067 4.465 1.216 6.531 4.9 7.864 1.698.614 3.343 1.533 4.797 2.604.661.488.787 1.687 1.192 2.547.169.36.362.757.658 1 4.347 3.593 8.713 7.163 13.563 11.138l-4.036.876c2.976 7.164 5.965 14.357 8.952 21.551-.125.216-.25.433-.376.649-2.193-1.489-4.384-2.976-7.014-4.762 4.815 8.283 7.432 16.853 5.372 27.099-1.555-3.39-2.872-6.271-4.197-9.151-1.733-3.766-3.711-4.844-8.678-4.114 5.581 1.137 7.097 4.967 7.785 9.031 1.195 7.073 3.188 13.346 11.341 15.418-7.452 1.349-13.2-1.049-17.449-7.404.128 5.025.789 6.466 5.505 10.749 4.119 3.742 5.214 8.386 4.532 13.65-.076.59-.457 1.14-1.011 1.845-.406-6.969-5.49-8.479-10.757-9.616-3.831-.825-7.249-2.097-8.988-6.064l-.775.572c1.253 1.958 2.241 4.17 3.818 5.819 2.858 2.995 4.287 6.551 4.424 10.476.181 5.28 1.845 9.319 7.471 11.041-3.825 1.916-8.233.628-10.818-3.261-1.369-2.06-1.988-4.61-3.309-6.712-1.677-2.67-3.72-5.108-5.606-7.646-.348.199-.698.4-1.047.6 0 2.222.271 4.488-.061 6.66-.546 3.566-1.011 7.27-2.394 10.542-1.307 3.092-1.875 5.554 1.109 8.079-2.56 1.477-4.899 1.372-6.905-.119-3.712-2.76-3.542-6.833-3.072-10.972-5.935 5.42-5.333 9.96 2.318 21.865-2.414-1.224-5.145-2.07-7.169-3.76-3.041-2.537-5.55-5.704-8.364-8.524-1.356-1.361-2.727-2.849-4.384-3.737-4.017-2.158-7.655.253-7.074 4.725.27 2.071 1.261 4.105 2.199 6.021 1.861 3.804 4.013 7.533 3.283 11.977-.306 1.865-1.134 3.644-2.291 5.442 1.096-7.509-4.383-10.337-9.583-13.462.794 1.668 1.251 3.651 2.452 4.945 2.551 2.749 2.625 5.615 1.452 8.856-1.727 4.764-3.4 9.547-5.447 15.307-.823-2.481-1.802-4.344-2.002-6.287-.304-2.933.187-5.948-.14-8.874-.233-2.091-1.257-4.094-2.664-6.084 3.017 5.532.386 9.655-2.838 13.683-1.784 2.229-2.307 4.675-.869 7.342-3.503.12-6.45-1.983-8.01-6.093-1.257-3.316-2.133-6.775-3.573-10.135-.628 7.256-3.438 13.31-8.543 19.107l1.535-9.439c-1.785 1.42-2.868 2.28-3.952 3.142l-.969-.127c3.679-5.13 1.119-9.436-1.753-14.588-1.069 3.219-2.459 5.891-2.741 8.676-.289 2.851.509 5.811.298 8.881-1.246-3.037-3.136-5.989-3.563-9.139-.438-3.236.55-6.663.762-10.039-1.411 4.256-4.68 7.887-2.652 13.168 1.524 3.972-1.481 6.948-6.69 7.878v-10.516c-2.289 3.239-3.491 6.978-6.79 8.059.673-5.345 1.367-10.862 2.061-16.377l-.948-.192c-1.145 4.742-.165 10.363-5.024 13.411l-1.136-18.097c-2.057 3.181-1.497 6.477-1.593 9.694-.096 3.212-.507 6.415-.779 9.622l-1.027-.029c-.334-2.01-.582-4.038-1.021-6.024-.55-2.488-1.718-4.769-4.628-4.632-2.847.135-3.394 2.629-3.813 4.941-.118.648-.184 1.305-.839 2.053-.526-2.128-.92-4.302-1.633-6.365-.371-1.068-1.308-1.942-1.989-2.903-.864.946-1.819 1.826-2.549 2.864-.353.505-.283 1.304-.405 1.969l-.856.084c-.253-2.039-.743-4.084-.69-6.116.052-2.02.652-4.024.487-6.166-6.295 3.29-4.118 9.716-5.629 15.803-3.899-6.205-5.335-11.773-3.407-17.896.678-2.156 1.914-4.13 2.777-6.235.689-1.679 1.439-3.389 1.739-5.157.632-3.737-1.754-6.27-5.552-5.867-4.081.436-7.521 1.869-8.614 6.482-.305 1.283-.95 2.71-1.893 3.58-3.233 2.985-6.862 5.607-7.542 10.594-2.337-3.117-1.64-5.998-.59-9.053.981-2.848 2.1-5.851 2.11-8.788.019-5.291 1.383-9.407 6.539-11.638.38-.166.657-.571 1.459-1.293-5.661.736-9.682 2.115-11.429 7.893-1.888 6.246-13.348 9.615-19.14 5.539 1.671-.271 2.822-.444 3.968-.645 6.025-1.053 7.73-4.71 5.366-10.214-.806-1.876-.128-4.388-.128-6.669-7.237-.659-9.004.662-6.705 6.62-2.601-1.667-5.435-2.142-5.446-5.047-.01-2.775.493-5.761 3.874-6.936 1.695-.59 4.71-.624 3.728-3.224-.64-1.694-3.089-3.429-4.987-3.793-6.424-1.232-9.895 2.497-10.415 10.524-3.011-3.471-3.224-10.161.817-15.259 3.303-4.168 7.947-7.274 11.707-10.597-8.845 1.357-9.776-.661-17.8 8.876.106-2.139-.132-3.59.295-4.808 1.64-4.682 4.019-8.874 8.097-12.011 2.466-1.896 4.603-4.219 6.611-6.666-7.029 4.065-16.053 4.132-21.304 11.361-.31-.208-.621-.417-.931-.626.736-1.729 1.083-3.817 2.284-5.114 2.766-2.986 5.712-5.917 9.017-8.265 4.854-3.448 8.526-7.456 9.508-14.286-4.146 4.146-6.753 9.655-13.229 9.515l5.059-15.471c-1.42.796-2.479 1.387-3.537 1.979l-.795-.793c3.455-4.173 6.909-8.344 10.376-12.529l-3.758.227-.216-.674 3.943-2.152-4.754-.475c6.866-4.07 13.418-7.954 19.97-11.837l-.35-.778c-1.354.141-2.706.283-4.06.426l-.504-1.154c6.173-3.183 12.346-6.365 18.586-9.583.094.103-.041-.127-.242-.241-.285-.159-.618-.233-1.184-.434l3.501-2.927-14.04 2.097c5.219-2.74 9.522-4.998 14.687-7.71h-5.958l3.279-2.623c-1.492-2.86-3.091-5.705-4.468-8.654-.764-1.637-1.486-3.418-1.649-5.187-.356-3.866-1.49-6.659-5.71-7.98-2.855-.895-4.045-3.73-4.487-7.376 1.956 1.422 3.975 2.89 5.993 4.36.286-.277.572-.552.857-.829l-3.861-9.456c2.546 2.913 4.58 5.24 6.613 7.569l.774-.445-5.48-9.475 7.546 5.906c3.053-5.43 8.017-7.843 14.736-7.43-2.913-1.495-5.432-2.788-7.952-4.082.14-.21.28-.419.42-.628l8.29 1.039c-1.457-3.95-3.752-5.096-7.689-4.544-1.931.271-3.898.286-5.873.148 6.241-3.523 12.248-3.442 17.921.976-1.329-1.758-2.411-3.813-4.061-5.186-1.57-1.305-3.889-2.878-5.608-2.609-4.422.691-7.777-.778-11.185-3.688 11.647-.31 22.658 1.542 33.416 5.66-3.905-3.104-7.737-6.307-11.766-9.241-.954-.695-2.566-.488-3.787-1.003 8.313-.12 15.467 3.318 22.509 6.868.632-3.007-.453-4.962-4.014-6.337-2.189-.846-4.384-1.673-6.577-2.508l.327-.981 19.1 5.171c-1.011-1.321-2.47-3.226-3.928-5.129z"
    />
  </g>
  <path d="m0 0h888v600h-888z" fill="none" />
</svg>
