<svg clip-rule="evenodd" fill-rule="evenodd" stroke-miterlimit="10" viewBox="0 0 888 600" xmlns="http://www.w3.org/2000/svg">
  <path d="m0 0h888v600h-888z" fill="none" />
  <path
    d="m544.911 286.538h-9.448v26.279h-1.711v-26.279h-9.757v-1.478h21.845l10.029 14.695 10.068-14.695h1.906l-11.158 16.133v11.624h-1.71v-11.624zm-262.797 17.454c-.272 4.12.427 8.009 5.947 8.009 6.414 0 6.103-4.549 6.103-8.397v-18.544h1.711v19.127c0 3.265.117 9.289-7.619 9.289-7.502 0-7.852-5.325-7.852-9.485zm28.764-18.932 10.962 27.757h-1.827l-3.499-8.902h-13.294l-3.538 8.902h-1.827l11.157-27.757zm5.092 17.377-5.947-15.705h-.078l-6.18 15.705zm14.964 8.902h.078l9.601-26.279h1.71l-10.379 27.757h-1.983l-10.339-27.757h1.788zm21.728-26.279 10.962 27.757h-1.826l-3.498-8.902h-13.295l-3.537 8.902h-1.827l11.157-27.757zm5.093 17.377-5.948-15.705h-.077l-6.182 15.705zm25.963-9.446c-.193-4.742-3.77-7.113-8.901-7.113-3.148 0-7.619 1.321-7.619 5.909 0 4.47 4.743 5.208 9.447 6.18 4.741.973 9.484 2.177 9.484 7.697 0 5.754-5.52 7.814-9.757 7.814-6.492 0-11.778-2.682-11.701-9.834h1.711c-.35 6.064 4.509 8.358 9.99 8.358 3.343 0 8.047-1.516 8.047-6.337 0-4.703-4.743-5.52-9.485-6.492-4.703-.971-9.446-2.098-9.446-7.385 0-5.326 4.936-7.386 9.329-7.386 5.793 0 10.341 2.488 10.613 8.591h-1.712zm27.988.35c-.74-4.665-4.821-7.464-9.447-7.464-7.269 0-11.506 5.947-11.506 13.062 0 7.114 4.238 13.062 11.506 13.062 5.403 0 9.601-4.821 9.913-9.992h1.71c-.622 6.609-5.52 11.468-11.622 11.468-8.32 0-13.217-6.414-13.217-14.537 0-8.126 4.897-14.539 13.217-14.539 9.834 0 11.118 8.553 11.157 8.941h-1.711zm5.749-8.281h11.585c4.859 0 8.786 1.788 8.786 7.153 0 3.732-2.255 6.493-5.948 7.113v.079c4.121.466 5.131 3.071 5.404 5.947.272 2.876-.196 5.986.931 7.464h-1.904c-1.049-1.906-.428-5.093-.739-7.775-.35-2.682-1.671-4.86-6.53-4.86h-9.874v12.635h-1.711zm11.585 13.646c4.042 0 7.075-1.905 7.075-6.376 0-4.198-3.344-5.792-7.075-5.792h-9.874v12.168zm12.902-13.646h1.712v27.757h-1.712zm6.608 0h11.819c3.148 0 8.085 1.128 8.085 7.776 0 4.858-3.187 7.618-8.708 7.618h-9.484v12.362h-1.712zm1.712 13.917h9.757c5.014 0 6.725-3.304 6.725-6.18 0-2.061-.934-6.259-6.493-6.259h-9.989zm18.267-12.439v-1.478h21.263v1.478h-9.796v26.279h-1.711v-26.279zm52.086 6.453c-.193-4.742-3.77-7.113-8.901-7.113-3.15 0-7.619 1.321-7.619 5.909 0 4.47 4.743 5.208 9.447 6.18 4.741.973 9.485 2.177 9.485 7.697 0 5.754-5.52 7.814-9.759 7.814-6.491 0-11.777-2.682-11.7-9.834h1.711c-.35 6.064 4.51 8.358 9.989 8.358 3.344 0 8.048-1.516 8.048-6.337 0-4.703-4.742-5.52-9.486-6.492-4.703-.971-9.446-2.098-9.446-7.385 0-5.326 4.936-7.386 9.33-7.386 5.792 0 10.34 2.488 10.613 8.591h-1.712zm48.857-7.931h1.71v26.279h15.744v1.478h-17.454zm38.288 26.279v1.478h-18.853v-27.757h18.659v1.478h-16.948v11.118h15.937v1.477h-15.937v12.207zm37.821-12.129v13.607h-1.478v-5.91h-.077c-1.361 4.043-5.598 6.569-10.496 6.569-8.397 0-13.062-6.414-13.062-14.383 0-7.852 4.742-14.694 13.101-14.694 5.713 0 10.572 3.46 11.545 9.253h-1.633c-1.283-4.782-4.821-7.775-9.874-7.775-7.503 0-11.429 6.297-11.429 13.216 0 7.076 3.809 12.907 11.429 12.907 6.609 0 10.769-4.51 10.496-11.313h-10.223v-1.478zm6.411-14.15v16.639c0 3.342.699 10.302 8.707 10.302 6.803 0 9.097-4.005 9.097-10.302v-16.639h1.71v16.639c0 6.608-2.487 11.777-10.807 11.777-9.873 0-10.417-8.085-10.417-11.777v-16.639zm24.409 0h1.712v27.757h-1.712zm6.608 0h9.096c9.913 0 12.828 6.803 12.828 13.839 0 7.854-4.003 13.918-12.904 13.918h-9.019zm1.711 26.279h7.464c5.169 0 11.039-2.838 11.039-12.44 0-11.35-7.269-12.361-11.389-12.361h-7.114zm43.069 0v1.478h-18.855v-27.757h18.66v1.478h-16.948v11.118h15.936v1.477h-15.936v12.207z"
    fill="#88c0d0"
  />
  <path d="m264.339 342.461h479.661m-479.661-84.923h479.661m-600-8.813h102.55v102.55h-102.55z" fill="none" stroke="#88c0d0" stroke-width="1.64" />
  <path
    d="m199.065 319.725 18.819-38.394h1.814l18.819 38.394h-1.587l-18.139-37.033-18.14 37.033zm-8.638 0-38.394-18.818v-1.815l38.394-18.819v1.587l-37.034 18.139 37.034 18.139z"
    fill="#88c0d0"
    fill-rule="nonzero"
  />
</svg>
