<svg
  xml:space="preserve"
  style="fill-rule:evenodd;clip-rule:evenodd;stroke-linejoin:round;stroke-miterlimit:2"
  viewBox="0 0 888 600"
  xmlns="http://www.w3.org/2000/svg"
>
  <path d="M0 0h888v600H0z" style="fill:none" />
  <path
    d="M769.559 348.617c21.838 0 34.441-11.655 34.441-27.682 0-17.039-14.912-23.5-26.767-26.604l-9.047-2.407c-7.113-1.901-16.721-5.258-16.721-14.19 0-7.981 7.113-13.809 18.406-13.809 10.544 0 18.094 4.941 19.03 13.556h13.851c-.437-15.013-13.477-26.098-32.569-26.098-18.718 0-32.944 10.832-32.944 27.175 0 12.922 8.985 20.84 24.209 24.958l10.856 3.04c9.983 2.724 17.658 5.955 17.658 14.189 0 9.122-8.673 15.203-20.465 15.203-10.732 0-19.717-4.814-20.528-15.139h-14.288c.874 17.229 13.976 27.808 34.878 27.808"
    style="fill:#4c566b;fill-rule:nonzero"
  />
  <path
    d="M648.404 347.192v-94.384h33.318c21.525 0 32.195 13.239 32.195 30.659s-10.732 30.659-32.32 30.659h-18.968v33.066zm37.691-54.535h11.733v-18.331h-11.733v-9.165l-23.466.027v36.634l23.466.078z"
    style="fill:#4c566b"
  />
  <path
    d="M569.723 332.073c17.447 0 31.591-14.36 31.591-32.072 0-17.714-14.144-32.073-31.591-32.073s-31.591 14.359-31.591 32.073c.018 17.705 14.152 32.053 31.591 32.072m-20.29-48.892 11.251 11.423c-.496.85-.872 1.767-1.118 2.723h-15.903a26.65 26.65 0 0 1 5.77-14.146m46.349 14.146h-15.903a10.7 10.7 0 0 0-1.118-2.723l11.251-11.423a26.66 26.66 0 0 1 5.77 14.146m-5.77 19.493-11.251-11.423c.497-.85.873-1.768 1.118-2.724h15.903a26.65 26.65 0 0 1-5.77 14.147m-20.289-22.166c2.908 0 5.265 2.393 5.265 5.347 0 2.951-2.357 5.345-5.265 5.345-2.909 0-5.266-2.393-5.266-5.345.004-2.951 2.359-5.343 5.266-5.347m-5.316 14.523c.838.503 1.741.885 2.683 1.135v16.145a25.83 25.83 0 0 1-13.934-5.858zm7.948 1.135c.943-.25 1.846-.632 2.684-1.135l11.251 11.422a25.84 25.84 0 0 1-13.935 5.858zm2.684-19.489a10.4 10.4 0 0 0-2.684-1.134v-16.146a25.84 25.84 0 0 1 13.935 5.858zm-7.949-1.134c-.942.249-1.845.631-2.683 1.134l-11.251-11.422a25.83 25.83 0 0 1 13.934-5.858zm-7.524 12.984c.246.956.622 1.874 1.118 2.724l-11.251 11.423a26.66 26.66 0 0 1-5.77-14.147z"
    style="fill:#4c566b;fill-rule:nonzero"
  />
  <path
    d="M619.741 291.982h-8.666a42.9 42.9 0 0 0-6.527-16l6.128-6.22c3.084-3.131 3.084-8.208 0-11.34a7.815 7.815 0 0 0-11.169 0l-6.127 6.221a41.6 41.6 0 0 0-15.759-6.626v-8.798c0-4.429-3.536-8.019-7.898-8.019-4.363 0-7.898 3.59-7.898 8.019v8.798a41.5 41.5 0 0 0-15.759 6.626l-6.127-6.221a7.816 7.816 0 0 0-11.17 0c-3.084 3.132-3.084 8.209 0 11.34l6.128 6.22a42.9 42.9 0 0 0-6.527 16h-8.666c-4.362 0-7.898 3.589-7.898 8.019 0 4.428 3.536 8.018 7.898 8.018h8.666a42.9 42.9 0 0 0 6.527 15.999l-6.128 6.221c-3.07 3.133-3.063 8.198.015 11.323a7.815 7.815 0 0 0 11.155.016l6.127-6.221a41.5 41.5 0 0 0 15.759 6.626v8.798c0 4.43 3.535 8.019 7.898 8.019s7.898-3.589 7.898-8.019v-8.798a41.6 41.6 0 0 0 15.759-6.626l6.127 6.221a7.814 7.814 0 0 0 11.154-.016c3.078-3.125 3.085-8.19.015-11.323l-6.128-6.221a42.9 42.9 0 0 0 6.527-15.999h8.666c4.363 0 7.898-3.59 7.898-8.018 0-4.43-3.535-8.019-7.898-8.019m-16.511-29.78a2.606 2.606 0 0 1 3.723 0 2.7 2.7 0 0 1 0 3.78l-5.687 5.773a43 43 0 0 0-3.723-3.779zm-36.14-12.983c0-1.476 1.179-2.674 2.633-2.674s2.632 1.197 2.632 2.674v8.153c-.875-.055-1.744-.135-2.632-.135s-1.758.08-2.633.135zm-34.598 16.763a2.7 2.7 0 0 1 0-3.78 2.606 2.606 0 0 1 3.723 0l5.687 5.774a43 43 0 0 0-3.723 3.78zm-12.788 36.691c-1.454 0-2.633-1.196-2.633-2.672s1.179-2.674 2.633-2.674h8.031c-.055.889-.134 1.771-.134 2.674 0 .901.079 1.784.134 2.672zm50.019-40.091c20.355 0 36.856 16.753 36.856 37.419s-16.502 37.417-36.856 37.417c-20.356 0-36.857-16.753-36.857-37.417.023-20.657 16.511-37.396 36.857-37.419m-33.508 75.216a2.61 2.61 0 0 1-2.547.701 2.67 2.67 0 0 1-1.955-2.583c0-.712.28-1.396.779-1.898l5.687-5.774a43 43 0 0 0 3.723 3.78zm36.14 12.983c0 1.476-1.178 2.674-2.632 2.674s-2.633-1.197-2.633-2.674v-8.153c.875.055 1.744.135 2.633.135.888 0 1.757-.08 2.632-.135zm34.598-16.763c.506.503.791 1.192.791 1.91 0 1.466-1.189 2.673-2.633 2.673-.708 0-1.386-.29-1.881-.803l-5.687-5.774a43 43 0 0 0 3.724-3.78zm12.788-31.345h-8.03c.054-.888.133-1.771.133-2.672 0-.903-.079-1.785-.133-2.674h8.03c1.454 0 2.633 1.197 2.633 2.674s-1.179 2.672-2.633 2.672m-187.599 44.519h58.899v-12.416h-44.673v-29.075h41.179v-12.352h-41.179v-28.125h44.299v-12.416h-58.525zm-116.85 0h13.851v-50.803c0-7.221-.312-19.32-.561-29.201 3.556 11.655 7.237 23.5 9.359 29.201l19.279 50.803h12.167l19.03-50.803c2.121-5.891 5.99-18.053 9.296-29.518-.187 10.515-.499 22.55-.499 29.518v50.803h14.164v-94.384h-21.089l-19.966 54.16c-1.81 5.194-4.742 15.709-6.926 24.134-2.121-8.615-5.054-19.067-6.863-24.134l-20.278-54.16h-20.964z"
    style="fill:#4c566b;fill-rule:nonzero"
  />
  <path
    d="M195.591 309.285a70 70 0 0 1-.593-9.222c0-30.278 17.844-48.522 41.99-48.522 24.084 0 41.866 18.244 41.866 48.522 0 3.213-.202 6.29-.591 9.224l-41.337-41.967zm80.083 11.134c-6.145 17.806-20.648 28.04-38.686 28.04-18.087 0-32.639-10.237-38.802-28.048l38.74-39.331zm-77.488-.008-12.085 12.269-6.777-6.88 16.267-16.515c.53 3.978 1.407 7.692 2.595 11.126"
    style="fill:#4c566b"
  />
  <path d="m278.263 309.287 16.264 16.513-6.776 6.88-12.077-12.261c1.186-3.435 2.06-7.152 2.589-11.132" style="fill:#4c566b" />
  <path
    d="m195.591 309.285 41.335-41.965 41.337 41.967c-.529 3.98-1.403 7.697-2.589 11.132l-38.748-39.339-38.74 39.331c-1.188-3.434-2.065-7.148-2.595-11.126"
    style="fill:none"
  />
  <path d="M84 347.192h14.226v-42.061h46.046v42.061h14.288v-94.384h-14.288v39.907H98.226v-39.907H84z" style="fill:#4c566b;fill-rule:nonzero" />
</svg>
