<svg clip-rule="evenodd" fill-rule="evenodd" stroke-linejoin="round" stroke-miterlimit="2" viewBox="0 0 327 356" xmlns="http://www.w3.org/2000/svg">
  <g fill="#4c566a">
    <g fill-rule="nonzero">
      <path
        d="m18.432 355.84c-3.888 0-7.188-.624-9.9-1.872s-4.788-2.856-6.228-4.824-2.208-4.056-2.304-6.264c0-.384.144-.72.432-1.008s.648-.432 1.08-.432h1.44c.48 0 .852.144 1.116.432s.42.624.468 1.008c.192 1.344.792 2.676 1.8 3.996s2.496 2.424 4.464 3.312 4.512 1.332 7.632 1.332c4.704 0 8.136-.852 10.296-2.556s3.24-3.996 3.24-6.876c0-1.92-.564-3.468-1.692-4.644s-2.844-2.232-5.148-3.168-5.256-1.98-8.856-3.132c-3.408-1.104-6.216-2.244-8.424-3.42s-3.828-2.604-4.86-4.284-1.548-3.84-1.548-6.48c0-2.448.648-4.644 1.944-6.588s3.18-3.492 5.652-4.644 5.484-1.728 9.036-1.728c2.832 0 5.304.384 7.416 1.152s3.864 1.788 5.256 3.06 2.448 2.64 3.168 4.104 1.104 2.892 1.152 4.284c0 .336-.12.66-.36.972s-.624.468-1.152.468h-1.44c-.24 0-.54-.096-.9-.288s-.588-.576-.684-1.152c-.288-2.4-1.548-4.38-3.78-5.94s-5.124-2.34-8.676-2.34-6.456.696-8.712 2.088-3.384 3.576-3.384 6.552c0 1.92.504 3.492 1.512 4.716s2.592 2.304 4.752 3.24 4.944 1.956 8.352 3.06c3.6 1.152 6.576 2.304 8.928 3.456s4.104 2.556 5.256 4.212 1.728 3.804 1.728 6.444c0 2.928-.732 5.412-2.196 7.452s-3.54 3.6-6.228 4.68-5.904 1.62-9.648 1.62z"
      />
      <path
        d="m58.464 355.12c-.768 0-1.356-.168-1.764-.504s-.732-.768-.972-1.296l-13.248-33.408c-.096-.288-.144-.552-.144-.792 0-.384.144-.72.432-1.008s.624-.432 1.008-.432h1.512c.48 0 .852.132 1.116.396s.42.492.468.684l12.168 31.104 12.168-31.104c.096-.192.264-.42.504-.684s.6-.396 1.08-.396h1.512c.384 0 .72.144 1.008.432s.432.624.432 1.008c0 .24-.048.504-.144.792l-13.248 33.408c-.192.528-.504.96-.936 1.296s-1.032.504-1.8.504z"
      />
      <path
        d="m96.768 355.84c-4.656 0-8.352-1.524-11.088-4.572s-4.296-7.044-4.68-11.988c-.048-.72-.072-1.68-.072-2.88s.024-2.16.072-2.88c.24-3.264 1.008-6.144 2.304-8.64s3.084-4.44 5.364-5.832 4.98-2.088 8.1-2.088c3.36 0 6.216.744 8.568 2.232s4.164 3.624 5.436 6.408 1.908 6.096 1.908 9.936v1.08c0 .48-.156.864-.468 1.152s-.708.432-1.188.432h-25.632v.72c.096 2.16.6 4.212 1.512 6.156s2.208 3.528 3.888 4.752 3.672 1.836 5.976 1.836c2.064 0 3.78-.312 5.148-.936s2.46-1.308 3.276-2.052 1.344-1.308 1.584-1.692c.432-.624.768-.996 1.008-1.116s.624-.18 1.152-.18h1.152c.432 0 .804.132 1.116.396s.444.612.396 1.044c-.048.672-.42 1.5-1.116 2.484s-1.68 1.956-2.952 2.916-2.82 1.752-4.644 2.376-3.864.936-6.12.936zm-11.376-21.672h22.896v-.288c0-2.4-.456-4.56-1.368-6.48s-2.232-3.444-3.96-4.572-3.792-1.692-6.192-1.692-4.452.564-6.156 1.692-3 2.652-3.888 4.572-1.332 4.08-1.332 6.48z"
      />
      <path
        d="m123.768 355.12c-.48 0-.864-.144-1.152-.432s-.432-.672-.432-1.152v-34.272c0-.48.144-.864.432-1.152s.672-.432 1.152-.432h1.224c.48 0 .864.144 1.152.432s.432.672.432 1.152v3.384c1.296-1.68 2.868-3.048 4.716-4.104s4.308-1.584 7.38-1.584c3.264 0 5.988.708 8.172 2.124s3.816 3.336 4.896 5.76 1.62 5.172 1.62 8.244v20.448c0 .48-.144.864-.432 1.152s-.672.432-1.152.432h-1.224c-.48 0-.864-.144-1.152-.432s-.432-.672-.432-1.152v-20.088c0-3.84-.936-6.852-2.808-9.036s-4.608-3.276-8.208-3.276c-3.408 0-6.156 1.092-8.244 3.276s-3.132 5.196-3.132 9.036v20.088c0 .48-.144.864-.432 1.152s-.672.432-1.152.432z"
      />
      <path
        d="m201.456 355.84c-4.128 0-7.596-.804-10.404-2.412s-4.944-3.852-6.408-6.732-2.268-6.192-2.412-9.936c-.048-2.16-.072-4.44-.072-6.84s.024-4.68.072-6.84c.144-3.792.948-7.116 2.412-9.972s3.612-5.088 6.444-6.696 6.288-2.412 10.368-2.412c3.312 0 6.144.492 8.496 1.476s4.272 2.208 5.76 3.672 2.592 2.94 3.312 4.428 1.104 2.736 1.152 3.744c.048.432-.072.78-.36 1.044s-.672.396-1.152.396h-1.584c-.432 0-.744-.108-.936-.324s-.384-.588-.576-1.116c-.48-1.488-1.284-2.916-2.412-4.284s-2.64-2.496-4.536-3.384-4.284-1.332-7.164-1.332c-4.272 0-7.74 1.164-10.404 3.492s-4.092 6.204-4.284 11.628c-.144 4.32-.144 8.64 0 12.96.192 5.376 1.62 9.24 4.284 11.592s6.132 3.528 10.404 3.528c2.832 0 5.376-.54 7.632-1.62s4.032-2.736 5.328-4.968 1.944-5.076 1.944-8.532v-3.672h-12.528c-.48 0-.864-.156-1.152-.468s-.432-.708-.432-1.188v-1.008c0-.528.144-.936.432-1.224s.672-.432 1.152-.432h15.408c.528 0 .936.144 1.224.432s.432.696.432 1.224v6.336c0 3.84-.756 7.224-2.268 10.152s-3.72 5.208-6.624 6.84-6.42 2.448-10.548 2.448z"
      />
      <path
        d="m232.632 355.12c-.48 0-.864-.144-1.152-.432s-.432-.672-.432-1.152v-34.2c0-.48.144-.876.432-1.188s.672-.468 1.152-.468h1.152c.48 0 .876.156 1.188.468s.468.708.468 1.188v3.312c.864-1.68 2.112-2.928 3.744-3.744s3.648-1.224 6.048-1.224h2.664c.48 0 .864.144 1.152.432s.432.672.432 1.152v1.008c0 .48-.144.864-.432 1.152s-.672.432-1.152.432h-3.096c-2.88 0-5.16.84-6.84 2.52s-2.52 3.96-2.52 6.84v22.32c0 .48-.156.864-.468 1.152s-.708.432-1.188.432z"
      />
      <path
        d="m269.136 355.84c-4.656 0-8.352-1.524-11.088-4.572s-4.296-7.044-4.68-11.988c-.048-.72-.072-1.68-.072-2.88s.024-2.16.072-2.88c.24-3.264 1.008-6.144 2.304-8.64s3.084-4.44 5.364-5.832 4.98-2.088 8.1-2.088c3.36 0 6.216.744 8.568 2.232s4.164 3.624 5.436 6.408 1.908 6.096 1.908 9.936v1.08c0 .48-.156.864-.468 1.152s-.708.432-1.188.432h-25.632v.72c.096 2.16.6 4.212 1.512 6.156s2.208 3.528 3.888 4.752 3.672 1.836 5.976 1.836c2.064 0 3.78-.312 5.148-.936s2.46-1.308 3.276-2.052 1.344-1.308 1.584-1.692c.432-.624.768-.996 1.008-1.116s.624-.18 1.152-.18h1.152c.432 0 .804.132 1.116.396s.444.612.396 1.044c-.048.672-.42 1.5-1.116 2.484s-1.68 1.956-2.952 2.916-2.82 1.752-4.644 2.376-3.864.936-6.12.936zm-11.376-21.672h22.896v-.288c0-2.4-.456-4.56-1.368-6.48s-2.232-3.444-3.96-4.572-3.792-1.692-6.192-1.692-4.452.564-6.156 1.692-3 2.652-3.888 4.572-1.332 4.08-1.332 6.48z"
      />
      <path
        d="m311.112 355.84c-2.976 0-5.436-.54-7.38-1.62s-3.516-2.436-4.716-4.068v3.384c0 .48-.144.864-.432 1.152s-.672.432-1.152.432h-1.224c-.48 0-.864-.144-1.152-.432s-.432-.672-.432-1.152v-47.952c0-.48.144-.864.432-1.152s.672-.432 1.152-.432h1.224c.48 0 .864.144 1.152.432s.432.672.432 1.152v17.064c1.2-1.584 2.772-2.928 4.716-4.032s4.404-1.656 7.38-1.656c2.832 0 5.208.504 7.128 1.512s3.48 2.352 4.68 4.032 2.088 3.552 2.664 5.616.888 4.152.936 6.264c.048.72.072 1.392.072 2.016s-.024 1.296-.072 2.016c-.048 2.112-.36 4.2-.936 6.264s-1.464 3.936-2.664 5.616-2.76 3.024-4.68 4.032-4.296 1.512-7.128 1.512zm-.432-4.176c2.832 0 5.064-.624 6.696-1.872s2.808-2.88 3.528-4.896 1.128-4.176 1.224-6.48c.048-1.344.048-2.688 0-4.032-.096-2.304-.504-4.464-1.224-6.48s-1.896-3.648-3.528-4.896-3.864-1.872-6.696-1.872c-2.64 0-4.812.624-6.516 1.872s-2.976 2.808-3.816 4.68-1.284 3.768-1.332 5.688c-.048.72-.072 1.656-.072 2.808s.024 2.088.072 2.808c.096 1.968.54 3.924 1.332 5.868s2.028 3.564 3.708 4.86 3.888 1.944 6.624 1.944z"
      />
      <path d="m169.609 182.651-2.063 5.527-4.221-.346-1.817-5.548z" />
    </g>
    <path
      d="m161.506 182.364c-.416-.643-.502-1.5-1.14-2.298l-.344 7.415-1.188.011-.794-5.763-1.398 2.653c-2.396-2.776-4.619-5.349-7.185-8.323l-.472-3.593-5.428 1.845.696-4.532-3.572.4c-.604-1.052-1.62-2.015-1.516-2.836.143-1.121 1.034-2.217 1.798-3.169.72-.897 1.692-1.59 2.557-2.354 1.278 2.794 2.558 5.586 3.842 8.378l4.727-1.888c-.114 1.236-.205 2.21-.306 3.307 3.998-1.333 2.223 1.576 2.986 2.273l4.242 3.15 1.357-4.05c.804 1.306 1.257 2.041 1.718 2.788l2.031-2.8c.905 1.931 1.596 3.406 2.564 5.469.284-1.992.464-3.261.698-4.893 1.671 1.071 2.974 1.908 4.199 2.696.423-1.171.846-2.342 1.268-3.514 1.946.534 3.595.987 5.338 1.466.057-.794.126-1.75.231-3.19 1.372 1.087 2.4 1.9 4.141 3.279l-1.881-3.673c.161-.151.323-.304.485-.456 1.09.78 2.181 1.558 3.428 2.448-.497-4.198 2.517-.907 3.629-1.909-.84-1.016-1.575-1.907-2.381-2.881l3.874-1.281c-1.628-1.042-2.597-1.661-3.677-2.352.819-.295 1.482-.532 2.296-.824-1.158-.758-2.122-1.302-2.986-1.974-3.42-2.654-6.795-5.368-10.232-8-.483-.371-1.203-.534-1.833-.594-4.37-.41-8.74-.824-13.118-1.094-.927-.057-2.034.261-2.814.775-4.652 3.069-9.231 6.247-13.835 9.389-.336.237-.671.472-1.007.708l-2.675-4.571c2.647-.556 4.755-.532 6.355-1.421 5.791-3.213 11.469-6.624 17.026-10.226 1.156-.752 2.156-2.619 2.22-4.019.288-6.295-3.149-10.916-8.948-13.28-2.387-.972-4.626-2.457-6.693-4.023-1.764-1.337-2.396-3.223-.692-5.492l3.523 1.975c3.228-3.916 4.168-4.105 8.905-1.965 4.455 2.013 8.858 1.477 13.254-.277 3.719-1.485 5.278-.837 6.687 2.838.656-.508 1.228-1.015 1.863-1.426.618-.399 1.3-.699 1.993-1.064 2.185 6.496-2.979 9.892-8.759 11.377-6.149 1.58-9.587 5.257-9.359 11.416.05 1.342.951 2.982 1.987 3.889 3.07 2.69 6.205 5.41 9.685 7.504 3.935 2.369 8.159 4.54 13.115 3.277l-.104-.083-2.07 4.944c3.698 2.537 4.259 6.578 1.434 13.579-1.029-.74-2.016-1.447-3.429-2.463.87 1.554 1.529 2.733 2.59 4.629l-4.958-1.708v5.838c-1.774-1.994-3.095-3.481-4.417-4.967l-.725.407c.219 1.973.441 3.945.729 6.531l-3.588-2.465-1.581 2.933-1.793-3.55c-.155.009-.311.019-.466.03.107 1.395.117 2.805.348 4.179.228 1.346.68 2.652.315 4.241-1.332-1.838-2.665-3.675-4.669-6.436m-1.666-49.379c.355.121.708.242 1.063.364 1.003-5.718 2.279-11.26 8.388-13.924-6.987 3.419-13.76 2.293-20.677-.138 6.61 2.229 6.074 8.52 7.514 13.594.279-.112.556-.222.835-.332l1.227-4.872.823.068zm20.365-21.146c-3.182-4.27-5.428-12.091-4.094-14.636 1.373 4.905 2.691 9.62 4.094 14.636zm-39.113-15.307c.818 4.858-1.358 10.782-4.598 14.243zm53.794-1.898c-.738 1.244-1.187 3.104-2.27 3.61-2.664 1.245-5.622 1.867-8.462 2.74-.163-.338-.328-.675-.492-1.011 3.46-1.924 6.921-3.848 10.383-5.772zm-71.956-1.026 9.026 5.706c-.249.335-.497.672-.746 1.007-2.584-2.64-8.751-.446-9.16-6.023zm57.127 3.92c-.727-.577-1.772-1.407-3.319-2.638.705-2.227 1.082-4.992 2.449-7.129.772-1.207 3.327-2.155 4.802-1.856 3.401.689 6.658 2.151 9.912 3.456.558.225.808 1.216 1.201 1.854-.645.312-1.278.653-1.939.929-.876.368-1.776.676-2.66 1.026-2.267.896-4.536 1.785-6.791 2.708-1.065.437-2.101.945-3.655 1.65zm2.8-2.793c.546.043 1.093.086 1.64.128 1.215-1.498 2.431-2.996 3.648-4.493-1.229-.885-2.347-2.232-3.708-2.55-2.06-.481-4.104.442-3.879 2.911.127 1.392 1.492 2.672 2.299 4.004zm-43.052 1.63c-5.479-.867-10.724-.421-14.186-5.377-.566-.81-2.862-.416-5.105-.66 1.059-1.177 1.883-2.951 3.104-3.287 3.276-.902 6.641-1.442 10.034-1.611 2.999-.146 4.785 1.573 5.008 4.799.129 1.863.673 3.698 1.145 6.136zm-4.065-6.021c.226-2.468-1.818-3.392-3.878-2.91-1.361.318-2.48 1.664-3.708 2.55 1.216 1.497 2.432 2.994 3.647 4.493.547-.043 1.094-.086 1.641-.128.807-1.332 2.172-2.612 2.298-4.005zm-2.993-44.009 3.096.473-3.506-4.479.731-.765c1.685 1.301 3.37 2.602 5.272 4.071l-.352-2.52 5.416 2.606.017-.56-8.24-9.499c.193-.312.386-.626.58-.94 1.626 1.2 3.715 2.092 4.769 3.673 1.594 2.39 3.508 3.584 6.222 4.28 2.108.54 4.004 1.898 6.387 3.089l-4.668-17.139 6.624 6.646.838-.37c-3.066-3.067-4.803-6.401-2.304-11.28l2.045 7.156c.289-.059.577-.117.866-.175l1.28-7.661 1.01.047c.225 1.889.448 3.776.673 5.664l.876.06c.175-2.071.349-4.142.581-6.893 2.932 4.176 2.235 7.657.648 11.271.983-1.315 1.964-2.63 2.765-3.703.31 2.729.853 5.302.789 7.86-.032 1.329-1.043 2.687-1.78 3.932-1.256 2.129-1.176 2.723 1.198 4.415l.794-3.912 1.028-.186 1.186 6.211 17.627-12.839c-1.029 5.05-6.944 6.566-8.279 11.379 2.122-1.223 4.373-2.522 6.625-3.822l.523.639c-.218.557-.436 1.115-.947 2.418l7.001-2.718c-.398 3.198-3.164 3.502-6.026 4.885h5.011c-2.184 2.837-4.575 2.332-6.992 2.277-3.606-.082-7.273-.141-10.807.435-2.09.341-3.974 1.925-6.623 3.3-.89-.548-2.37-2.055-4.05-2.324-1.71-.273-3.798.328-5.394 1.169-2.049 1.076-3.309.651-5.213-.477-2.04-1.207-4.674-1.549-7.103-1.93-3.636-.573-7.327-.825-10.194-3.764zm93.525-12.124c-3.247-.028-6.522.197-9.73-.166-2.563-.289-5.043-1.295-7.56-1.982 3.885.239 7.783.365 11.651.767 1.907.197 3.761.905 5.639 1.381z"
    />
    <path
      d="m227.268 24.852c.131.026.26.021.385-.016-2.66 2.004-5.311 4.015-7.979 6.005-.801.598-1.65 1.132-2.477 1.696l-1.084-.917c3.839-2.33 7.497-4.55 11.155-6.768z"
    />
    <path
      d="m227.268 24.852c-1.202.29-2.388.687-3.606.846-2.402.315-4.818.523-7.233.728-2.946.249-5.897.45-9.049.688-.884-2.693.15-4.564 4.073-5.549 3.252-.816 6.031-2.073 7.451-5.484l-18.168 6.363c.793-2.142 1.504-4.062 2.49-6.721l-9.581 5.99v-8.957c-1.84 3.197-3.466 6.02-5.157 8.96-2.677-4.333 2.216-7.627 1.634-11.629-1.381 1.797-2.609 3.393-3.834 4.988 1.256-2.981 2.514-5.962 3.771-8.942l1.352.398c-.643 3.627-1.285 7.256-1.927 10.871 2.928-3.403 4.685-8.504 10.99-8.918-4.312 2.933-6.67 6.344-6.522 11.022 2.895-1.359 5.782-2.314 8.154-3.993 1.204-.851 1.569-2.977 2.149-4.586.758-2.101 1.355-4.259 2.468-6.25-.631 5.508 2.095 12.076-5.651 15.327.416.216.833.433 1.248.649l21.699-7.291c-2.601 2.619-4.696 5.336-7.369 7.242-2.509 1.787-5.628 2.716-8.244 4.593 6.903-.074 13.778 1.459 20.166-2.12 2.269-1.272 5.073-1.596 7.742-1.929-2.888 1.228-5.777 2.458-8.661 3.688-.125.037-.257.042-.385.016zm-42.976-9.202c-.673 2.253-1.345 4.506-2.03 6.794-3.759-2.261-5.071-5.515-3.769-9.822.813-2.697.523-4.811-2.113-6.406.759 3.558.759 3.558-2.157 11.053-3.87-2.366-1.215-9.182-7.208-9.906.322 3.67 2.376 7.62-.319 11.763-1.013-2.874-2.027-5.749-3.041-8.623l3.237 4.336c1.087-5.135-4.11-9.648-.693-14.839-.728 4.61 2.457 6.514 5.173 9.024 1.324 1.224 1.355 3.847 2.093 6.225 2.089-2.509 3.702-4.71 1.97-7.932-1.314-2.445-.535-4.533.824-5.82.805 1.734 1.807 3.456 2.405 5.31.551 1.707 1.36 3.795.834 5.289-1.177 3.35-.552 5.96 1.798 8.622 1.037-1.752 2.017-3.41 2.996-5.068z"
    />
    <path
      d="m163.757 10.619c-.307.595-.951 1.245-.866 1.777.557 3.472-.309 6.468-2.649 9.292-.416-2.583-.215-5.289-1.345-7.219-1.103-1.884-3.566-2.974-5.824-4.007 2.189 3.615 4.19 6.948 2.31 11.063-1.575-1.96-2.832-4.212-4.71-5.663-1.955-1.512-4.51-2.25-6.861-3.353-.211 3.513 6.62 4.5 4.638 8.952-2.067-1.107-4.32-2.185-6.427-3.5-1.001-.624-2.052-1.553-2.507-2.595-1.277-2.929-3.697-3.681-6.369-4.261l2.502 5.709c-1.901-3.862-5.369-5.45-9.579-5.962l.328-1.018c3.076.283 6.199.341 9.211.947 1.43.287 3.416 1.355 3.82 2.527 1.207 3.505 4.036 4.321 7.296 5.342-.146-.519-.129-1.046-.366-1.214-2.726-1.927-4.204-4.22-3.354-7.807.24-1.012-.885-2.349-.821-4.057.939 1.178 2.51 2.268 2.691 3.553.427 3.018 2.205 4.198 4.752 5.099 1.766.626 3.374 1.695 5.144 2.614-.306-3.653-2.962-5.482-6.441-6.894 6.397-1.65 10.82 1.059 12.84 7.486 2.06-3.725 1.14-7-4.514-14.878 4.111 1.969 5.745 4.895 7.101 8.067z"
    />
    <path
      d="m135.551 16.669c1.673 1.492 3.545 2.824 4.934 4.546.678.839.455 2.401.672 3.854-4.151-2.175-7.804-4.087-11.458-6.002-.244.238-.489.475-.732.714 3.26 2.988 3.908 6.411 1.808 11.419-1.778-8.472-9.711-5.774-13.936-9.686.249 3.11.228 3.156 3.799 4.688 3.086 1.323 5.102 3.246 4.692 6.545-9.689-4.807-19.6-8.207-31.743-6.779 2.579.452 4.225 1.104 5.788.946 4.586-.465 7.757 1.048 10.332 5.043 1.319 2.049 4.126 3.142 6.315 4.706-4.322 2.899-7.231-1.758-11.213-2.75 1.354 1.686 2.437 3.031 3.849 4.787-1.726.672-2.941 1.144-3.676 1.429 2.996 1.845 6.259 3.856 9.522 5.865-.225.404-.45.808-.674 1.211-.961-.382-1.922-.763-3.111-1.236v1.885c-1.614-.336-3.122-.651-5.081-1.058l1.14 2.685c-1.764-.215-3.26-.397-5.127-.627l3.031 5.3c-4.903 2.722-8.938 1.952-15.442-3.398l1.24 4.281c-.819.347-1.637.693-2.456 1.04l1.228 2.357-7-1.152c-.121.108-.242.216-.363.323 1.306.793 2.528 2.019 3.936 2.291 3.323.64 6.814 1.463 10.093 1.055 5.54-.686 10.887-.826 16.397 1.246-1.102 5.025-5.936 4.572-10.432 6.287 2.198.147 3.36.224 5.269.351l-4.266 2.599.802.661 11.526-2.386.724 1.458c-1.522 1.198-3.045 2.397-4.526 3.563l1.844.519.228.804c-4.674 1.96-9.349 3.922-14.247 5.976.951 5.676-5.434 4.254-7.899 7.535l7.378-1.347 1.768 5.392 3.247-2.675-2.716 11.313c.262.115.524.232.786.347.762-.81 1.524-1.621 2.285-2.431v5.575l.588.119c1.647-3.71 3.475-7.351 4.902-11.145 2.786-7.399 8.515-12.638 13.745-18.059 1.57-1.627 2.987-3.369 4.471-5.076 2.011-2.312 4.098-4.577 6.359-6.636.595-.542 1.955-.246 3.135.24-6.118 3.513-8.835 9.315-11.815 15.183-4.402-2.143-3.877 2.481-5.241 4.143-1.882 2.292-2.397 5.481-5.76 6.849-2.448.995-4.972 8.707-4.034 11.29.978 2.692.633 4.954-.698 7.471-.763 1.445-.464 3.449-.642 5.2l.983.233c.822-.62 1.644-1.239 3.225-2.428l-1.531 5.567.65.327 2.113-1.9c1.608 7.828 6.604 13.615 10.844 19.824 1.143 1.675 2.28 1.321 3.77.507 1.676-.915 3.507-1.545 5.27-2.3l.386.825c-2.279 1.47-4.559 2.942-7.15 4.616-4.608-1.556-5.487-1.504-9.479 1.103l1.536-4.889c-1.636.707-2.915 1.261-4.568 1.974l.939-3.335c-.184-.195-.367-.388-.55-.582-1.951 1.998-3.902 3.996-5.853 5.995-.175-.08-.351-.158-.526-.238l5.538-9.552c-.15-.096-.301-.194-.453-.29-1.94 1.706-3.88 3.413-5.821 5.119l-.583-.282 2.531-5.338c-1.184.531-2.369 1.063-3.553 1.596l-.44-.531c1.247-1.348 2.494-2.696 4.447-4.805l-5.238 2.545-.663-.618c1.498-1.37 2.997-2.742 4.387-4.016-4.71.025-7.418 2.727-12.088 12.241-.226-5.35 2.066-10.448 7.512-16.712-4.149 1.752-6.323 4.325-11.725 13.873.469-6.224 3.834-11.569 11.405-19.212-3.114.914-6.23 1.828-10.18 2.989l7.732-5.947c-2.493-2.535-5.738-1.912-8.957-2.605 2.209-.53 4.417-1.058 7.507-1.8-.589-3.196-1.092-6.685-1.984-10.073-.16-.61-2.108-1.363-2.905-1.093-3.761 1.271-7.409 2.875-10.638 4.177.091 1.477.173 2.404.184 3.33.002.165-.254.406-.445.492-5.057 2.251-8.286 6.826-11.136 10.923-3.231 4.644-8.48 6.915-11.481 11.9l1.755.51-6.135 15.849 1.118.708c1.211-1.082 2.428-2.157 3.63-3.249 3.012-2.735 5.92-5.599 9.083-8.149 1.011-.815 2.687-.807 4.059-1.176.353.453.704.904 1.056 1.355-.883.432-2.037.645-2.597 1.335-1.694 2.094-3.683 4.177-4.598 6.623-1.9 5.074-5.144 8.728-9.591 11.638-2.818 1.846-5.374 4.091-7.681 6.623 3.955-1.472 7.865-3.076 11.875-4.376 3.92-1.268 5.699-6.366 10.969-5.567-2.7 3.83-4.602 8.196-8.53 11.021-4.035 2.898-7.323 6.355-8.922 10.191 6.103-1.673 12.644-3.461 19.185-5.252.265.282.531.567.797.851-.836 1.149-1.472 2.553-2.55 3.395-2.329 1.819-4.863 3.382-7.348 4.995-4.447 2.884-7.374 6.73-7.821 11.56 2.407-1.227 4.96-3.007 7.795-3.855 3.43-1.024 7.329.939 8.861 3.692 1.722 3.095.922 5.561-2.568 6.179-3.799.674-4.141 3.146-4.504 6.345 4.053-3.767 10.187-5.047 15.016-3.209-.82.87-1.843 1.558-2.274 2.513-.561 1.243-1.241 2.901-.848 4.022 2.388 6.805 2.485 6.77-1.699 11.618 4.862-.287 7.371-2.508 9.337-6.822 1.003-2.199 2.929-4.45 5.031-5.57 3.331-1.777 7.16-2.621 11.153-3.99-.104 3.361-2.228 5.141-4.418 6.165-4.405 2.062-5.507 5.367-5.74 9.894-.209 4.077-1.57 8.094-2.348 11.785 2.577-3.126 6.679-5.5 8.048-10.602 1.137-4.246 9.403-6.615 13.31-4.51 2.326 1.253 3.799 3.302 3.259 5.869-.702 3.316-1.744 6.551-3.109 9.654-2.305 5.237-2.786 8.594-1.221 13.571.687-2.349 1.144-4.727 2.084-6.897.971-2.241 2.577-4.543 5.425-3.62 3.077.997 1.723 3.714 1.438 5.877-.059.442-.201.873-.411 1.75 3.644-1.807 5.208.341 6.633 3.48 2.957-2.485 5.98-3 9.183.476 1.033-5.574 1.154-11.139 6.74-14.04l-.694 15.722 1.2.178c1.128-5.567.287-12.176 7.225-14.851-.931 6.143-1.83 12.079-2.729 18.015l1.028.218 1.858-5.921c.369-.038.737-.077 1.105-.115.975 4.172 1.949 8.342 2.97 12.718 2.195-1.351 3.064-3.2 2.145-5.662-1.209-3.239-.588-6.135.85-9.195 1.094-2.331 1.429-5.013 2.134-7.53.325-1.161.731-2.299 1.1-3.449l1.36.006c.334 4.082.667 8.163 1.015 12.407l5.554-11.756c.905 7.749-.066 15.298 6.638 20.162.537-1.936 1.492-4.404 1.849-6.954.345-2.464.075-5.015.075-7.818 7.71 3.337 5.225 12.992 10.679 17.489 1.599-2.437 3.08-4.809 4.68-7.098 1.866-2.67 2.256-5.312.661-8.31-1.336-2.51-1.922-5.224-.723-8.245 5.621 5.859 8.824 12.249 7.917 20.31.963-2.775 1.927-5.55 2.891-8.323.997-2.873.802-5.376-1.265-7.944-2.851-3.536-2.807-8.36-.433-12.479 1.185 2.068 2.084 4.35 3.606 6.09 1.609 1.835 3.811 3.155 6.604 5.375-1.238-2.713-2.062-4.523-2.889-6.334-.897-1.963-2.005-3.857-2.652-5.9-1.149-3.635-.116-7.171 2.23-8.659 2.536-1.61 6.894-1.123 9.547 1.365 1.819 1.707 3.295 3.775 4.966 5.64 1.497 1.671 3.052 3.289 5.158 5.548-.685-3.161-1.655-5.43-1.527-7.635.149-2.532 1.067-5.09 2.037-7.477.716-1.76 2.272-3.169 3.052-4.911.765-1.713 1.024-3.649 1.675-6.139 1.983 3.3 1.527 6.311 1.357 9.394-.139 2.544.162 5.162.672 7.665.198.974 1.503 1.725 1.946 2.196 1.07-2.983 2.401-5.642 2.948-8.452.837-4.306 1.195-8.709 1.628-13.086.141-1.424-.12-2.889-.195-4.32 4.472-.401 8.412 2.514 10.438 7.433.952 2.312 1.835 4.661 2.961 6.886.525 1.037 1.554 1.819 2.38 2.745-1.513-5.447-2.417-10.961-4.599-15.911-2.182-4.949-5.646-9.335-8.548-13.967.428-.428.857-.855 1.285-1.282 2.08 1.489 4.678 2.602 6.106 4.565 1.688 2.317 3.594 3.614 6.222 4.338 3.28.902 6.51 1.98 10.434 2.656-1.827-2.086-3.841-4.041-5.427-6.295-1.667-2.369-2.975-4.997-4.343-7.561-1.365-2.565-2.609-5.194-4.132-8.248 3.319.648 5.687 2.522 7.918 4.665l6.788 6.518c-1.94-5.983-3.633-11.154-5.289-16.336-1.033-3.232-3.532-4.586-6.591-5.256-.939-.205-1.886-.371-3.048-.598 4.784-5.415 10.018-3.989 16.269 4.4-.433-9.943-5.012-17.465-11.373-25.222 4.708.558 7.015 3.553 9.873 5.487.315-.187.631-.375.947-.561l-9.439-19.012 1.64-.109c-.081-.328-.054-.762-.247-.916-3.091-2.433-6.185-4.863-9.332-7.222-1.188-.889-3.257-1.049-2.3-3.43.127-.316-.502-1.197-.974-1.447-3.225-1.701-6.389-3.612-9.796-4.846-2.906-1.054-6.106-1.296-9.44-1.947l5.037 2.387c-5.407-1.23-10.501-1.887-14.737 3.898 2.385-.5 4.109-.863 6.837-1.435-1.416 1.245-2.076 1.826-3.009 2.645l7.844.809-.061.594c-2.284.34-4.57.681-7.355 1.097 4.073 1.354 7.582 2.519 11.093 3.685-.088.294-.176.586-.263.88l-10.69-1.647c-.179.334-.358.665-.537.998 6.714 2.638 9.935 7.919 11.663 14.375-3.447-2.81-5.196-7.646-10.2-8.239l5.208 7.773c-.208.165-.416.33-.625.497-1.719-1.488-3.44-2.974-5.161-4.46-.097.096-.196.193-.294.291l7.117 14.023c-.155.068-.312.136-.467.202-3.184-2.948-6.367-5.896-9.552-8.843-.093.151-.186.301-.281.451 1.161 2.301 2.321 4.603 3.482 6.903l-.851.513-5.801-6.88-.555.412c.35 1.236.699 2.47 1.05 3.707-.203.135-.405.269-.607.403l-2.025-3.063c-.241.15-.484.3-.726.452l2.061 7.181-.592.402c-1.347-1.5-2.696-2.999-4.345-4.832l.681 4.346c-2.993-2.297-5.22-.916-7.385 1.079-1.691 1.561-3.467 3.844-4.982-.278-.23-.626-1.396-.908-2.967-1.853 1.376.212 1.798.225 2.187.344 5.229 1.604 5.834 1.474 7.947-3.5 1.751-4.125 4.374-7.934 3.958-12.88-.251-2.97 1.501-3.583 4.233-2.149-.614-2.489-1.266-5.122-1.979-8.011-.341.105-1.228.376-2.751.841l1.33-4.099c-.623.144-1.175.273-2.237.519.69-2.192 1.277-4.061 1.865-5.928-.159-.118-.319-.234-.479-.351-.312.586-.626 1.173-.936 1.759-.258-.1-.514-.198-.771-.298l.831-8.732c-.767-.087-1.451-.164-2.102-.239-.055-.401-.178-.66-.103-.836 2.399-5.584-.61-9.605-3.91-13.544-2.912-3.475-5.873-6.909-8.697-10.453-.578-.725-.642-1.86-.942-2.806l.991-.662c1.852 1.876 3.768 3.694 5.541 5.64 2.683 2.949 5.712 5.715 7.768 9.064 2.078 3.382 3.15 7.378 4.041 11.589l1.24-3.024.844.137c-.267 3.556-.536 7.112-.804 10.668.263-.072.526-.145.79-.215l1.033 4.556c1.33-4.183 2.571-8.083 3.812-11.983.146.017.29.034.437.052v6.547c3.406-2.879 3.394-6.455 2.914-10.955 6.175 3.068 11.749 5.836 17.5 8.692l-2.774-3.605 4.93.217c-2.075-2.299-6.328-1.795-6.934-6.17l-9.72-6.253c.114-.279.227-.559.342-.839l4.733-.384-10.251-3.98.267-.901h4.779c-1.375-1.013-2.311-1.702-3.349-2.468l13.469-3.77-.006-.495h-6.183l4.382-5.575h-8.347c1.22-1.164 1.828-1.741 2.853-2.719-1.874-.296-3.353-.528-4.834-.761l-.258-.674 6.533-2.546h-9.532c-.07-.186-.138-.373-.206-.559l4.769-2.15c-2.151-.228-3.897-.414-5.642-.598-.013-.212-.026-.422-.039-.632 1.143-.501 2.287-1.002 3.801-1.664l-2.497-1.032c3.351-1.864 6.407-3.562 9.383-5.218-3.81-2.166-7.304-5.886-12.739-3.644l-.203-1.127c1.758-.813 3.453-2.069 5.291-2.332 2.656-.381 5.417-.014 8.132-.052.292-.003.577-.567.865-.871 3.34.62 6.677 1.239 9.791 1.816-2.848 1.442-6.156 2.302-9.61.638-3.457-1.667-6.845-1.159-10.466.492 5.07 1.616 10.211 3.045 15.176 4.932 2.259.859 4.172 2.627 5.986 4.433-4.696-2.243-9.277-3.818-14.3-1.98 3.215 1.97 6.26 3.852 9.318 5.708 3.149 1.913 4.226 4.893 4.498 8.364.645 8.273-.516 16.134-5.129 23.247-.302.467-.526.987-.996 1.881l8.086 3.372-2.223 1.274c.293-.295.585-.591.878-.885l5.837 6.004-1.258 1.467c-1.536-.508-3.073-1.015-4.625-1.529-1.067 4.465 1.216 6.531 4.899 7.864 1.699.614 3.343 1.532 4.798 2.604.661.488.787 1.686 1.191 2.547.169.36.363.756.658 1 4.347 3.592 8.713 7.162 13.563 11.138l-4.035.875c2.975 7.165 5.964 14.357 8.951 21.551-.125.216-.25.434-.376.65-2.192-1.49-4.384-2.976-7.014-4.763 4.815 8.284 7.432 16.853 5.373 27.1-1.555-3.39-2.872-6.271-4.197-9.151-1.734-3.766-3.711-4.844-8.679-4.114 5.581 1.136 7.098 4.966 7.785 9.031 1.196 7.073 3.189 13.346 11.341 15.417-7.452 1.349-13.2-1.049-17.448-7.404.128 5.025.789 6.467 5.504 10.75 4.12 3.741 5.215 8.385 4.532 13.65-.076.59-.456 1.139-1.011 1.844-.405-6.969-5.489-8.479-10.756-9.616-3.831-.825-7.25-2.096-8.988-6.064l-.776.573c1.254 1.957 2.241 4.169 3.818 5.819 2.859 2.994 4.287 6.551 4.424 10.476.182 5.279 1.846 9.319 7.472 11.04-3.826 1.917-8.234.628-10.819-3.261-1.369-2.059-1.988-4.609-3.308-6.712-1.677-2.669-3.72-5.108-5.606-7.645-.349.199-.698.399-1.047.6 0 2.221.27 4.487-.062 6.659-.546 3.567-1.01 7.271-2.394 10.543-1.307 3.091-1.874 5.554 1.11 8.079-2.56 1.476-4.899 1.372-6.905-.119-3.713-2.761-3.543-6.834-3.072-10.973-5.936 5.421-5.333 9.96 2.318 21.865-2.415-1.223-5.145-2.069-7.17-3.759-3.04-2.537-5.55-5.704-8.363-8.525-1.357-1.361-2.728-2.849-4.385-3.737-4.016-2.157-7.654.253-7.073 4.725.269 2.072 1.26 4.106 2.199 6.022 1.861 3.804 4.012 7.533 3.282 11.977-.305 1.864-1.134 3.644-2.29 5.441 1.096-7.508-4.383-10.336-9.583-13.462.794 1.669 1.251 3.651 2.452 4.945 2.55 2.75 2.625 5.616 1.451 8.856-1.727 4.764-3.4 9.547-5.447 15.308-.823-2.481-1.802-4.344-2.002-6.287-.303-2.933.188-5.948-.139-8.874-.234-2.092-1.258-4.095-2.665-6.084 3.017 5.531.387 9.655-2.837 13.682-1.785 2.23-2.307 4.676-.869 7.343-3.503.12-6.451-1.984-8.011-6.094-1.257-3.316-2.133-6.775-3.572-10.135-.628 7.257-3.439 13.31-8.543 19.108l1.535-9.44c-1.786 1.42-2.869 2.281-3.952 3.142l-.97-.127c3.68-5.129 1.119-9.436-1.752-14.587-1.07 3.219-2.459 5.891-2.741 8.675-.289 2.851.509 5.812.298 8.881-1.246-3.037-3.136-5.989-3.563-9.138-.438-3.236.55-6.664.762-10.04-1.412 4.256-4.681 7.887-2.653 13.168 1.525 3.972-1.481 6.948-6.689 7.878v-10.516c-2.29 3.239-3.492 6.979-6.791 8.06.674-5.345 1.368-10.863 2.062-16.377l-.948-.193c-1.145 4.743-.165 10.363-5.024 13.412l-1.136-18.097c-2.057 3.181-1.497 6.477-1.594 9.693-.096 3.212-.507 6.416-.779 9.622l-1.027-.028c-.333-2.011-.582-4.039-1.021-6.025-.55-2.487-1.718-4.769-4.628-4.631-2.847.135-3.393 2.628-3.813 4.94-.118.649-.184 1.306-.838 2.054-.527-2.128-.92-4.302-1.634-6.365-.37-1.069-1.308-1.943-1.989-2.904-.863.947-1.818 1.826-2.548 2.865-.354.504-.284 1.304-.406 1.969l-.856.084c-.252-2.04-.743-4.085-.69-6.116.053-2.02.653-4.024.488-6.166-6.295 3.289-4.119 9.715-5.63 15.803-3.899-6.205-5.335-11.774-3.407-17.896.679-2.156 1.914-4.131 2.778-6.236.688-1.678 1.439-3.388 1.738-5.157.632-3.737-1.753-6.27-5.552-5.866-4.08.435-7.521 1.869-8.614 6.482-.304 1.283-.95 2.71-1.892 3.58-3.234 2.985-6.863 5.606-7.543 10.594-2.336-3.117-1.64-5.999-.589-9.053.98-2.848 2.099-5.851 2.11-8.789.019-5.29 1.382-9.407 6.539-11.638.38-.166.657-.57 1.459-1.293-5.661.737-9.683 2.115-11.429 7.894-1.888 6.245-13.348 9.615-19.141 5.538 1.671-.27 2.823-.443 3.969-.644 6.025-1.053 7.729-4.711 5.365-10.215-.806-1.876-.127-4.388-.127-6.669-7.237-.659-9.005.662-6.705 6.62-2.601-1.667-5.435-2.141-5.446-5.046-.011-2.775.492-5.762 3.874-6.937 1.695-.59 4.71-.624 3.728-3.224-.64-1.693-3.089-3.429-4.988-3.792-6.424-1.233-9.894 2.496-10.415 10.523-3.01-3.47-3.223-10.161.817-15.258 3.304-4.168 7.947-7.275 11.707-10.597-8.845 1.356-9.775-.661-17.799 8.875.106-2.138-.132-3.59.295-4.807 1.639-4.682 4.019-8.874 8.097-12.011 2.465-1.897 4.602-4.22 6.61-6.666-7.028 4.065-16.053 4.132-21.303 11.361-.311-.208-.621-.417-.931-.626.735-1.73 1.082-3.817 2.284-5.115 2.765-2.985 5.712-5.917 9.017-8.265 4.854-3.448 8.526-7.455 9.507-14.286-4.146 4.147-6.753 9.655-13.228 9.515l5.058-15.47c-1.42.796-2.478 1.386-3.536 1.978l-.795-.793c3.454-4.172 6.908-8.343 10.375-12.529l-3.758.228-.215-.674 3.942-2.153-4.754-.475c6.867-4.07 13.419-7.954 19.971-11.837l-.351-.778c-1.353.142-2.706.283-4.059.426l-.505-1.154c6.173-3.182 12.347-6.365 18.587-9.582.094.102-.041-.127-.243-.241-.284-.159-.617-.234-1.184-.434l3.502-2.927-14.04 2.096c5.218-2.739 9.521-4.998 14.686-7.71h-5.957l3.278-2.623c-1.491-2.859-3.091-5.704-4.468-8.654-.764-1.636-1.485-3.418-1.648-5.187-.357-3.866-1.491-6.659-5.71-7.979-2.856-.895-4.045-3.731-4.487-7.376 1.956 1.422 3.974 2.89 5.992 4.359.286-.276.572-.552.858-.829l-3.861-9.456c2.546 2.914 4.58 5.241 6.613 7.57l.774-.446-5.48-9.475 7.546 5.907c3.053-5.431 8.017-7.843 14.736-7.431-2.913-1.494-5.433-2.788-7.952-4.082.139-.21.28-.418.42-.627l8.289 1.039c-1.457-3.951-3.751-5.097-7.688-4.545-1.932.272-3.898.286-5.874.149 6.242-3.523 12.248-3.443 17.922.975-1.33-1.757-2.411-3.813-4.062-5.185-1.569-1.306-3.888-2.879-5.607-2.61-4.423.692-7.778-.778-11.185-3.687 11.647-.31 22.657 1.542 33.415 5.659-3.904-3.104-7.736-6.306-11.765-9.241-.954-.695-2.567-.488-3.788-1.003 8.313-.119 15.468 3.318 22.51 6.868.631-3.006-.453-4.962-4.015-6.337-2.188-.845-4.384-1.672-6.576-2.508l.326-.98 19.101 5.171c-1.012-1.322-2.47-3.226-3.929-5.13z"
    />
  </g>
</svg>
