<svg clip-rule="evenodd" fill-rule="evenodd" stroke-miterlimit="1.5" viewBox="0 0 800 600" xmlns="http://www.w3.org/2000/svg">
  <g fill="none">
    <path d="m0 0h800v600h-800z" />
    <g stroke="#d8dee9" stroke-width="2">
      <path d="m100 232.952h134.096v134.096h-134.096z" />
      <g stroke-linecap="square" stroke-linejoin="round">
        <path d="m253.597 357.787h446.403" />
        <path d="m253.597 243.197h446.403" />
      </g>
    </g>
  </g>
  <g fill="#d8dee9" fill-rule="nonzero">
    <path
      d="m172.168 327.146 25.429-51.878h2.452l25.429 51.878h-2.145l-24.51-50.04-24.511 50.04zm-11.67 0-51.88-25.429v-2.451l51.88-25.428v2.145l-50.041 24.508 50.041 24.51z"
    />
    <path
      d="m273.078 338.082v-27.657h11.515c1.177 0 2.254.246 3.23.738.977.491 1.823 1.148 2.54 1.971.717.822 1.276 1.741 1.677 2.756.401 1.016.601 2.054.601 3.116 0 1.359-.272 2.636-.818 3.829-.546 1.194-1.305 2.193-2.276 2.998-.972.805-2.107 1.306-3.406 1.501l6.874 10.748h-2.276l-6.702-10.456h-8.977v10.456zm1.982-12.266h9.703c1.207 0 2.248-.325 3.121-.973.874-.648 1.552-1.494 2.034-2.536.483-1.043.724-2.143.724-3.301 0-1.198-.277-2.312-.832-3.342-.554-1.029-1.295-1.858-2.222-2.486-.928-.629-1.955-.943-3.081-.943h-9.447z"
    />
    <path d="m316.512 336.272v1.81h-18.426v-27.657h18.076v1.81h-16.095v10.853h14.06v1.725h-14.06v11.459z" />
    <path d="m347.168 338.082v-23.812l-10.877 18.616h-1.294l-10.895-18.616v23.812h-1.982v-27.657h1.981l11.534 19.808 11.552-19.808h1.964v27.657z" />
    <path d="m365.251 310.425h1.698l11.71 27.657h-2.129l-3.859-9.104h-13.198l-3.842 9.104h-2.129zm6.88 16.915-6.031-14.496-6.143 14.496z" />
    <path
      d="m382.809 338.082v-27.657h11.515c1.177 0 2.254.246 3.23.738.977.491 1.823 1.148 2.54 1.971.717.822 1.276 1.741 1.677 2.756.401 1.016.601 2.054.601 3.116 0 1.359-.273 2.636-.818 3.829-.546 1.194-1.305 2.193-2.276 2.998-.972.805-2.107 1.306-3.406 1.501l6.874 10.748h-2.276l-6.702-10.456h-8.977v10.456zm1.982-12.266h9.702c1.208 0 2.249-.325 3.122-.973.874-.648 1.552-1.494 2.034-2.536.483-1.043.724-2.143.724-3.301 0-1.198-.277-2.312-.832-3.342-.554-1.029-1.295-1.858-2.223-2.486-.927-.629-1.954-.943-3.08-.943h-9.447z"
    />
    <path d="m407.817 338.082v-27.64h1.981v16.772l16.129-16.789h2.299l-11.494 12.127 12.074 15.53h-2.302l-11.078-14.297-5.628 5.757v8.54z" />
    <path d="m430.019 326.586h11.23v1.811h-11.23z" />
    <path d="m447.432 338.082v-27.657h1.982v25.847h16.513v1.81z" />
    <path d="m469.986 310.425h1.982v27.657h-1.982z" />
    <path d="m480.459 314.127v23.955h-1.981v-27.657h1.632l19.278 24.361v-24.344h1.982v27.64h-1.909z" />
    <path d="m528.018 312.235h-10.131v25.847h-1.983v-25.847h-10.131v-1.81h22.245z" />
    <path
      d="m541.153 338.082v-27.657h11.378c1.177 0 2.253.246 3.23.738.976.491 1.823 1.148 2.54 1.971.717.822 1.275 1.741 1.677 2.756.401 1.016.601 2.054.601 3.116 0 1.463-.327 2.854-.98 4.174s-1.561 2.391-2.724 3.213-2.525 1.233-4.089 1.233h-9.651v10.456zm1.982-12.266h9.565c1.208 0 2.252-.325 3.133-.975s1.559-1.496 2.034-2.539c.475-1.042.713-2.141.713-3.296 0-1.221-.277-2.347-.832-3.376-.554-1.03-1.295-1.853-2.222-2.47-.928-.617-1.955-.925-3.081-.925h-9.31z"
    />
    <path
      d="m565.265 338.082v-27.657h11.515c1.177 0 2.254.246 3.23.738.977.491 1.824 1.148 2.54 1.971.717.822 1.276 1.741 1.677 2.756.401 1.016.602 2.054.602 3.116 0 1.359-.273 2.636-.819 3.829-.546 1.194-1.304 2.193-2.276 2.998s-2.107 1.306-3.406 1.501l6.874 10.748h-2.275l-6.703-10.456h-8.977v10.456zm1.982-12.266h9.703c1.207 0 2.248-.325 3.122-.973.873-.648 1.551-1.494 2.034-2.536.482-1.043.723-2.143.723-3.301 0-1.198-.277-2.312-.831-3.342-.555-1.029-1.296-1.858-2.223-2.486-.927-.629-1.954-.943-3.081-.943h-9.447z"
    />
    <path d="m608.7 336.272v1.81h-18.427v-27.657h18.076v1.81h-16.094v10.853h14.059v1.725h-14.059v11.459z" />
    <path
      d="m629.813 315.032c-.442-.494-.933-.928-1.475-1.302-.541-.374-1.125-.686-1.752-.937-.628-.251-1.303-.443-2.025-.575-.723-.133-1.5-.199-2.331-.199-2.695 0-4.662.515-5.899 1.545-1.238 1.03-1.857 2.413-1.857 4.149 0 1.175.282 2.103.845 2.783.562.68 1.441 1.227 2.635 1.642 1.194.414 2.73.823 4.61 1.227 1.994.416 3.722.904 5.182 1.465s2.585 1.32 3.375 2.276c.789.956 1.184 2.258 1.184 3.906 0 1.208-.235 2.27-.706 3.186-.47.916-1.141 1.677-2.014 2.284-.873.608-1.916 1.064-3.129 1.37s-2.555.458-4.027.458c-1.446 0-2.816-.152-4.11-.458s-2.509-.763-3.645-1.37c-1.137-.608-2.21-1.369-3.22-2.284l1.066-1.589c.575.601 1.219 1.141 1.932 1.62s1.491.893 2.335 1.242c.844.35 1.745.616 2.703.801.958.184 1.956.276 2.995.276 2.409 0 4.3-.447 5.674-1.343 1.373-.895 2.06-2.22 2.06-3.974 0-1.227-.316-2.214-.948-2.96-.632-.747-1.593-1.36-2.881-1.841-1.289-.481-2.907-.929-4.853-1.345-1.956-.424-3.615-.893-4.974-1.408-1.36-.515-2.387-1.215-3.081-2.103-.694-.887-1.042-2.079-1.042-3.577 0-1.679.411-3.096 1.232-4.251.821-1.156 1.969-2.03 3.446-2.624 1.477-.595 3.178-.892 5.103-.892 1.203 0 2.315.119 3.334.357 1.02.238 1.965.594 2.834 1.069.87.474 1.68 1.08 2.429 1.816z"
    />
    <path d="m655.599 336.272v1.81h-18.426v-27.657h18.076v1.81h-16.095v10.853h14.06v1.725h-14.06v11.459z" />
    <path d="m680.519 312.235h-10.131v25.847h-1.982v-25.847h-10.131v-1.81h22.244z" />
    <path
      d="m388.457 267.475c-.443-.494-.934-.928-1.475-1.302s-1.126-.686-1.753-.937c-.628-.251-1.303-.443-2.025-.575-.723-.133-1.499-.199-2.33-.199-2.696 0-4.662.515-5.9 1.545s-1.856 2.413-1.856 4.149c0 1.175.281 2.103.844 2.783s1.441 1.227 2.635 1.642c1.194.414 2.731.823 4.61 1.227 1.994.416 3.722.904 5.182 1.465s2.585 1.32 3.375 2.276c.789.956 1.184 2.258 1.184 3.906 0 1.208-.235 2.27-.706 3.186-.47.916-1.141 1.677-2.014 2.285-.872.607-1.915 1.063-3.129 1.369-1.213.306-2.555.459-4.027.459-1.446 0-2.816-.153-4.11-.459s-2.509-.762-3.645-1.37c-1.137-.608-2.21-1.369-3.219-2.284l1.065-1.589c.575.601 1.219 1.141 1.932 1.62s1.492.893 2.335 1.243c.844.349 1.745.616 2.703.8s1.956.277 2.995.277c2.409 0 4.3-.448 5.674-1.344 1.373-.895 2.06-2.22 2.06-3.974 0-1.227-.316-2.214-.948-2.96-.632-.747-1.592-1.36-2.881-1.841s-2.907-.929-4.853-1.345c-1.956-.424-3.614-.893-4.974-1.408-1.36-.514-2.387-1.215-3.081-2.103-.694-.887-1.041-2.079-1.041-3.577 0-1.679.41-3.096 1.231-4.251s1.97-2.03 3.447-2.624c1.477-.595 3.178-.892 5.102-.892 1.204 0 2.315.119 3.335.357 1.019.238 1.964.594 2.833 1.069.87.475 1.68 1.08 2.43 1.817z"
    />
    <path d="m394.252 262.868 10.547 25.17 10.508-25.17h2.111l-11.675 27.657h-1.888l-11.693-27.657z" />
    <path d="m440.029 288.715v1.81h-18.426v-27.657h18.076v1.81h-16.095v10.853h14.06v1.725h-14.06v11.459z" />
    <path d="m447.619 266.57v23.955h-1.982v-27.657h1.632l19.278 24.362v-24.345h1.983v27.64h-1.91z" />
    <path
      d="m497.111 290.72c-1.876 0-3.607-.4-5.192-1.2-1.586-.799-2.96-1.871-4.121-3.216-1.161-1.344-2.063-2.85-2.705-4.518s-.963-3.376-.963-5.124c0-1.826.314-3.577.942-5.252.627-1.675 1.511-3.169 2.652-4.482s2.487-2.35 4.036-3.112 3.246-1.143 5.09-1.143c2.776 0 5.009.562 6.698 1.686s2.975 2.575 3.858 4.352l-1.599.956c-.936-1.799-2.181-3.11-3.736-3.932-1.555-.823-3.307-1.234-5.256-1.234-1.634 0-3.11.342-4.427 1.027-1.316.684-2.442 1.608-3.376 2.771-.934 1.164-1.648 2.471-2.142 3.922-.493 1.451-.74 2.942-.74 4.475 0 1.626.283 3.171.851 4.634.567 1.464 1.358 2.765 2.372 3.902 1.013 1.138 2.191 2.032 3.534 2.683s2.791.977 4.344.977c1.773 0 3.453-.435 5.041-1.306 1.588-.87 3.112-2.238 4.574-4.103v2.208c-2.755 3.352-6 5.029-9.735 5.029zm9.284-12.032h-6.264v-1.605h8.006v13.442h-1.742z"
    />
    <path
      d="m514.077 290.525v-27.657h11.515c1.177 0 2.254.246 3.231.738.976.492 1.823 1.149 2.54 1.971.716.822 1.275 1.741 1.676 2.756.401 1.016.602 2.054.602 3.116 0 1.36-.273 2.636-.819 3.83-.545 1.193-1.304 2.192-2.276 2.997-.971.805-2.106 1.306-3.405 1.501l6.874 10.748h-2.276l-6.702-10.456h-8.978v10.456zm1.982-12.266h9.703c1.208 0 2.248-.324 3.122-.973.873-.648 1.551-1.494 2.034-2.536.482-1.043.724-2.143.724-3.301 0-1.198-.278-2.312-.832-3.341-.555-1.03-1.295-1.859-2.223-2.487-.927-.629-1.954-.943-3.081-.943h-9.447z"
    />
    <path d="m557.512 288.715v1.81h-18.427v-27.657h18.076v1.81h-16.094v10.853h14.06v1.725h-14.06v11.459z" />
    <path
      d="m583.5 283.374c0 1.342-.335 2.552-1.004 3.631s-1.566 1.936-2.691 2.569c-1.124.634-2.369.951-3.733.951h-12.953v-27.657h12.902c1.298 0 2.421.344 3.369 1.032s1.675 1.571 2.182 2.649c.506 1.078.759 2.201.759 3.37 0 1.379-.351 2.656-1.054 3.83-.703 1.175-1.676 2.04-2.919 2.597 1.584.467 2.837 1.345 3.759 2.634.922 1.288 1.383 2.753 1.383 4.394zm-2-.275c0-1.002-.224-1.931-.673-2.789-.45-.858-1.061-1.555-1.835-2.09-.774-.536-1.656-.804-2.647-.804h-11.244v11.333h10.971c1.017 0 1.935-.272 2.753-.815.819-.543 1.47-1.244 1.952-2.103.482-.86.723-1.77.723-2.732zm-16.399-18.455v11.082h10.153c1.006 0 1.888-.266 2.647-.797.76-.532 1.361-1.221 1.802-2.067.442-.847.663-1.736.663-2.668 0-1.014-.208-1.937-.624-2.771-.415-.833-.99-1.504-1.724-2.014-.733-.51-1.577-.765-2.53-.765z"
    />
  </g>
</svg>
