<svg clip-rule="evenodd" fill-rule="evenodd" stroke-linejoin="round" stroke-miterlimit="2" viewBox="0 0 888 100" xmlns="http://www.w3.org/2000/svg">
  <path
    d="m168.946 61.376-.789 1.884c1.445.991 1.664 2.57.561 5.304-.403-.289-.788-.565-1.34-.962.34.608.597 1.068 1.012 1.808l-1.937-.667v2.281c-.693-.779-1.209-1.36-1.725-1.94l-.284.159c.086.77.173 1.541.285 2.551l-1.402-.963-.617 1.145-.701-1.386c-.06.003-.121.007-.182.012.042.544.046 1.095.137 1.632.088.526.265 1.036.122 1.657-.52-.718-1.04-1.436-1.823-2.514l-.01-.001-.795 2.131-1.649-.135-.699-2.136h-.012c-.162-.251-.196-.586-.445-.898l-.134 2.897-.464.004-.311-2.251-.546 1.036c-.936-1.084-1.804-2.089-2.806-3.251l-.185-1.404-2.12.721.272-1.77-1.395.156c-.237-.411-.633-.787-.593-1.108.056-.438.404-.866.703-1.238.255-.318.593-.571.906-.839.029-.021.059-.042.089-.063l.009-.006c.497 1.088.996 2.175 1.495 3.262l1.847-.738c-.045.483-.08.864-.12 1.292 1.562-.521.868.616 1.167.888l1.657 1.23.53-1.582c.314.51.491.798.671 1.089l.793-1.093c.354.754.624 1.33 1.002 2.136.111-.778.181-1.274.272-1.912.653.419 1.162.746 1.641 1.054.165-.458.33-.915.495-1.373.76.209 1.404.386 2.085.573.022-.311.049-.684.09-1.246.536.424.938.742 1.618 1.28l-.735-1.434c.063-.059.126-.119.19-.178.426.304.852.608 1.339.956-.194-1.64.983-.354 1.417-.746-.328-.397-.615-.745-.93-1.125l1.514-.501c-.636-.407-1.015-.649-1.437-.918.32-.116.579-.208.897-.322-.452-.296-.829-.509-1.166-.771-1.336-1.037-2.655-2.097-3.997-3.125-.189-.145-.47-.209-.716-.232-1.707-.161-3.414-.322-5.125-.428-.362-.022-.794.102-1.099.303-1.814 1.197-3.6 2.436-5.395 3.661l-.006-.011c-.03.027-.061.054-.092.08-.102.072-.203.143-.304.214l-1.045-1.785c1.034-.218 1.857-.208 2.482-.555 2.262-1.255 4.48-2.588 6.651-3.995.451-.294.842-1.023.867-1.57.113-2.459-1.23-4.264-3.495-5.187-.933-.38-1.807-.96-2.615-1.572-.689-.522-.936-1.259-.27-2.145l1.376.771c1.261-1.53 1.628-1.603 3.479-.767 1.74.786 3.46.576 5.177-.109 1.453-.58 2.062-.327 2.612 1.109.257-.198.48-.396.728-.557.241-.156.508-.273.779-.416.853 2.538-1.164 3.864-3.422 4.444-2.402.618-3.745 2.054-3.656 4.46.02.524.372 1.165.776 1.519 1.2 1.051 2.424 2.113 3.784 2.931 1.521.916 3.152 1.756 5.062 1.295zm0 0 .02-.047.041.032c-.021.005-.041.01-.061.015zm-5.912-14.459c-2.603 1.166-5.133.749-7.713-.147 2.483.898 2.285 3.319 2.841 5.277.109-.043.217-.086.326-.129l.479-1.904.322.027.323 2.047c.139.047.277.094.415.142.377-2.147.852-4.23 3.007-5.313zm9.706-39.006c-.062-.033-.124-.065-.186-.097.092-.039.181-.079.266-.12zm-27.937-.395 3.691.999c-.388-.507-.944-1.233-1.503-1.963l-.01-.021c.648.575 1.369 1.091 1.906 1.756.265.328.178.938.263 1.506-1.573-.825-2.963-1.552-4.347-2.277zm28.017.178c.174-.47.357-.965.575-1.552l-3.743 2.34v-3.499c-.718 1.249-1.353 2.352-2.014 3.5-1.045-1.693.866-2.98.638-4.543-.539.702-1.019 1.326-1.497 1.949.491-1.165.982-2.329 1.473-3.493l.528.155c-.251 1.417-.502 2.835-.753 4.247 1.144-1.33 1.83-3.322 4.293-3.484-1.684 1.146-2.605 2.478-2.547 4.306 1.13-.531 2.258-.904 3.185-1.56.47-.333.613-1.163.839-1.792.296-.82.529-1.663.964-2.441-.239 2.086.755 4.561-1.941 5.867zm-28.172-.22.026-.026.129.068zm2.333-.943-.004-.004c-.746-1.479-2.091-2.09-3.721-2.288l.128-.397c1.202.11 2.422.133 3.598.369.559.112 1.335.53 1.492.988.472 1.369 1.577 1.687 2.851 2.086-.057-.203-.051-.408-.144-.474-1.064-.753-1.642-1.649-1.31-3.05.094-.395-.345-.917-.32-1.584.367.46.98.886 1.051 1.388.167 1.178.861 1.639 1.856 1.991.69.245 1.318.663 2.009 1.022-.119-1.427-1.157-2.142-2.515-2.694 2.498-.644 4.226.414 5.015 2.925.805-1.455.445-2.735-1.763-5.812 1.606.769 2.244 1.912 2.774 3.151l-.003.005 1.227 1.644c.425-2.006-1.605-3.769-.27-5.797-.285 1.801.959 2.545 2.02 3.525.518.478.53 1.503.818 2.432.816-.98 1.446-1.84.769-3.099-.513-.955-.209-1.77.322-2.273.315.677.706 1.35.94 2.074.215.667.531 1.483.326 2.066-.46 1.309-.216 2.328.702 3.368.405-.684.788-1.332 1.17-1.98-.263.88-.525 1.76-.793 2.654-1.468-.883-1.981-2.154-1.472-3.837.318-1.053.204-1.879-.826-2.502.297 1.39.297 1.39-.842 4.318-1.512-.925-.475-3.587-2.816-3.87.126 1.434.929 2.977-.124 4.595-.387-1.098-.775-2.197-1.163-3.296-.124.225-.355.467-.324.667.218 1.357-.12 2.527-1.034 3.63-.163-1.009-.085-2.066-.526-2.82-.431-.736-1.393-1.162-2.275-1.565.855 1.412 1.637 2.714.903 4.321-.616-.765-1.107-1.645-1.84-2.212-.764-.591-1.762-.879-2.68-1.31-.083 1.373 2.586 1.758 1.811 3.497-.807-.432-1.687-.853-2.51-1.367-.391-.244-.802-.607-.979-1.014-.499-1.144-1.445-1.437-2.488-1.664zm-27.841 38.313c2.278-1.35 4.478-2.654 6.679-3.958l-.137-.304c-.529.055-1.057.11-1.586.166l-.197-.451c2.411-1.243 4.823-2.486 7.26-3.743.037.04-.016-.049-.095-.094-.111-.062-.241-.091-.462-.169l1.368-1.144-5.485.819c2.039-1.07 3.72-1.952 5.737-3.012h-2.327l1.281-1.024c-.583-1.117-1.208-2.228-1.745-3.381-.299-.639-.581-1.335-.644-2.026-.14-1.51-.583-2.601-2.231-3.117-1.115-.349-1.58-1.457-1.753-2.881.764.555 1.553 1.129 2.341 1.703.112-.108.224-.216.335-.324l-1.508-3.694c.994 1.138 1.789 2.047 2.583 2.957l.302-.174-2.14-3.701 2.948 2.307c1.192-2.121 3.131-3.064 5.756-2.902-1.138-.584-2.122-1.09-3.107-1.595.055-.082.11-.163.164-.245l3.239.406c-.57-1.543-1.466-1.991-3.004-1.775-.754.106-1.522.111-2.294.058 2.438-1.377 4.784-1.345 7.001.381-.52-.687-.942-1.49-1.587-2.026-.613-.51-1.519-1.124-2.19-1.019-1.728.27-3.038-.304-4.369-1.441 4.549-.121 8.85.603 13.052 2.211-1.525-1.212-3.022-2.463-4.595-3.61-.373-.271-1.003-.19-1.48-.391 3.247-.047 6.042 1.296 8.793 2.682.247-1.174-.177-1.938-1.568-2.475-.855-.33-1.713-.653-2.569-.98l.127-.383 3.615.979c-.087.084-.174.168-.26.253 1.273 1.167 1.527 2.504.706 4.461-.695-3.31-3.793-2.256-5.444-3.784.097 1.215.089 1.233 1.484 1.831 1.206.517 1.993 1.268 1.833 2.557-3.785-1.878-7.656-3.206-12.399-2.648 1.007.176 1.65.431 2.26.369 1.792-.181 3.031.41 4.036 1.97.516.801 1.612 1.228 2.467 1.838-1.688 1.133-2.824-.686-4.38-1.074.529.659.952 1.184 1.504 1.87-.675.263-1.149.447-1.436.558 1.17.721 2.445 1.506 3.719 2.291-.088.158-.176.316-.263.474-.375-.15-.751-.299-1.215-.483v.736c-.631-.131-1.22-.254-1.985-.413l.445 1.049c-.689-.084-1.273-.156-2.002-.246l1.183 2.071c-1.915 1.063-3.491.762-6.031-1.327l.484 1.672c-.32.135-.64.271-.959.406l.479.921-2.734-.45c-.048.042-.095.084-.142.126.51.31.988.788 1.537.895 1.299.25 2.662.571 3.943.412 2.164-.268 4.253-.323 6.405.487-.43 1.962-2.319 1.786-4.075 2.455.859.058 1.313.088 2.058.138l-1.666 1.015.313.258 4.503-.932.282.57c-.594.468-1.189.936-1.768 1.392l.721.202.089.314c-1.826.766-3.652 1.532-5.566 2.334.372 2.218-2.122 1.662-3.085 2.944l2.882-.526.69 2.106 1.269-1.045-1.061 4.419c.102.045.205.091.307.136.298-.317.595-.633.893-.95v2.178l.229.046c.644-1.449 1.358-2.871 1.915-4.353 1.088-2.89 3.326-4.937 5.369-7.054.614-.636 1.167-1.316 1.747-1.983.785-.903 1.601-1.788 2.484-2.592.232-.212.763-.097 1.224.093-2.389 1.373-3.451 3.639-4.615 5.931-1.719-.837-1.514.969-2.047 1.618-.735.896-.936 2.142-2.25 2.676-.956.389-1.942 3.401-1.576 4.41.382 1.052.247 1.935-.272 2.919-.298.564-.182 1.347-.251 2.031l.384.091c.321-.243.642-.484 1.26-.949l-.599 2.175.254.128.826-.742c.628 3.057 2.579 5.318 4.236 7.743.446.654.89.516 1.472.198.655-.357 1.37-.603 2.059-.898l.151.322c-.891.574-1.781 1.149-2.793 1.803-1.8-.608-2.144-.587-3.703.431l.6-1.91c-.639.276-1.139.493-1.784.771l.366-1.302c-.072-.077-.143-.152-.215-.228-.761.781-1.524 1.561-2.286 2.342-.068-.031-.137-.062-.205-.093l2.163-3.731c-.059-.038-.118-.076-.177-.113-.758.666-1.516 1.333-2.274 1.999l-.228-.11.989-2.085c-.462.207-.925.415-1.388.623l-.172-.207c.488-.527.975-1.053 1.738-1.877l-2.047.994-.258-.241c.585-.536 1.17-1.071 1.713-1.569-1.84.01-2.897 1.065-4.722 4.782-.088-2.09.807-4.082 2.934-6.529-1.62.685-2.469 1.69-4.58 5.42.184-2.432 1.498-4.52 4.456-7.505-1.217.357-2.434.714-3.977 1.167l3.02-2.322c-.973-.991-2.241-.747-3.498-1.018.862-.207 1.725-.414 2.932-.703-.23-1.249-.427-2.612-.775-3.935-.063-.238-.823-.532-1.135-.427-1.469.496-2.894 1.123-4.155 1.632.035.576.067.939.072 1.3 0 .065-.1.159-.174.192-1.976.88-3.237 2.667-4.35 4.267-1.262 1.814-3.313 2.702-4.485 4.649l.686.199-2.397 6.191.437.277c.473-.423.948-.843 1.418-1.27 1.176-1.068 2.312-2.186 3.548-3.183.395-.318 1.05-.315 1.585-.459.138.177.275.353.413.529-.345.169-.796.252-1.015.522-.661.818-1.438 1.631-1.796 2.587-.742 1.982-2.009 3.409-3.746 4.546-1.101.721-2.099 1.598-3.001 2.587 1.545-.575 3.073-1.202 4.639-1.709 1.531-.496 2.226-2.487 4.285-2.175-1.055 1.496-1.798 3.202-3.332 4.305-1.576 1.132-2.861 2.482-3.486 3.981 2.385-.653 4.94-1.352 7.495-2.052.103.11.207.222.311.333-.327.449-.575.997-.996 1.326-.91.711-1.9 1.321-2.87 1.951-1.738 1.127-2.881 2.629-3.055 4.516.94-.479 1.937-1.175 3.045-1.506 1.34-.4 2.862.367 3.461 1.442.673 1.209.36 2.173-1.003 2.414-1.484.263-1.618 1.229-1.76 2.478 1.584-1.471 3.98-1.971 5.866-1.253-.32.34-.72.608-.888.981-.219.486-.485 1.134-.331 1.572.932 2.658.97 2.644-.664 4.538 1.899-.112 2.879-.98 3.647-2.665.392-.859 1.144-1.738 1.965-2.176 1.302-.694 2.797-1.024 4.357-1.558-.041 1.312-.87 2.008-1.726 2.408-1.721.805-2.151 2.096-2.242 3.865-.082 1.592-.613 3.161-.917 4.603 1.006-1.221 2.609-2.148 3.143-4.141.445-1.659 3.674-2.584 5.2-1.762.908.49 1.484 1.29 1.273 2.293-.274 1.295-.681 2.559-1.215 3.771-.9 2.045-1.088 3.357-.477 5.301.269-.917.447-1.847.814-2.694.38-.876 1.007-1.775 2.12-1.414 1.202.389.673 1.45.561 2.295-.023.173-.078.341-.16.684 1.423-.706 2.034.133 2.591 1.359 1.155-.971 2.336-1.172 3.587.186.403-2.177.451-4.351 2.633-5.484l-.271 6.141.468.07c.441-2.175.113-4.756 2.823-5.801-.364 2.399-.715 4.718-1.066 7.037l.401.085.726-2.313.432-.045c.38 1.63.761 3.259 1.16 4.968.857-.527 1.197-1.25.838-2.212-.473-1.265-.23-2.396.332-3.592.427-.91.558-1.957.833-2.941.127-.453.286-.898.43-1.347l.531.002c.131 1.595.261 3.189.397 4.847l2.169-4.593c.354 3.028-.026 5.976 2.593 7.876.21-.756.583-1.72.722-2.716.135-.963.03-1.959.03-3.054 3.012 1.304 2.041 5.075 4.171 6.832.625-.952 1.203-1.879 1.828-2.773.729-1.043.881-2.075.258-3.246-.521-.981-.75-2.041-.282-3.221 2.196 2.289 3.447 4.785 3.093 7.934.376-1.084.753-2.168 1.129-3.252.39-1.122.313-2.099-.494-3.103-1.114-1.381-1.097-3.265-.169-4.874.463.808.814 1.699 1.408 2.379.629.716 1.489 1.232 2.58 2.1-.483-1.06-.805-1.767-1.128-2.475-.351-.767-.784-1.507-1.036-2.304-.449-1.42-.046-2.802.871-3.383.99-.629 2.692-.439 3.729.533.711.667 1.287 1.475 1.94 2.204.585.652 1.192 1.284 2.015 2.167-.268-1.235-.647-2.122-.597-2.983.058-.989.417-1.988.796-2.921.28-.687.887-1.237 1.192-1.918.299-.669.4-1.425.654-2.398.775 1.289.597 2.465.53 3.67-.054.993.064 2.016.263 2.994.077.38.587.674.76.858.418-1.166.938-2.204 1.152-3.302.327-1.682.466-3.402.636-5.112.055-.556-.047-1.128-.077-1.687 1.747-.157 3.286.982 4.078 2.903.372.903.717 1.821 1.156 2.69.205.405.607.711.93 1.072-.591-2.127-.944-4.281-1.797-6.215-.852-1.933-2.205-3.646-3.338-5.456.167-.167.334-.334.502-.5.812.581 1.827 1.016 2.384 1.783.66.905 1.404 1.411 2.431 1.694 1.281.352 2.543.774 4.076 1.038-.714-.815-1.5-1.579-2.12-2.459-.651-.926-1.162-1.952-1.697-2.954-.533-1.002-1.019-2.029-1.614-3.222 1.297.254 2.222.986 3.093 1.823l2.652 2.546c-.758-2.337-1.419-4.357-2.066-6.381-.404-1.263-1.38-1.792-2.575-2.053-.366-.081-.736-.145-1.19-.234 1.868-2.115 3.913-1.559 6.355 1.719-.17-3.884-1.958-6.823-4.443-9.853 1.839.218 2.74 1.388 3.857 2.144.123-.074.246-.147.37-.22l-3.687-7.426.64-.043c-.031-.128-.021-.297-.096-.358-1.208-.95-2.416-1.899-3.646-2.821-.464-.347-1.272-.41-.898-1.34.05-.123-.196-.467-.38-.565-1.26-.664-2.496-1.411-3.827-1.893-1.135-.411-2.385-.506-3.687-.76l1.967.932c-2.112-.48-4.102-.737-5.756 1.523.931-.196 1.605-.337 2.67-.561-.553.487-.811.713-1.175 1.034l3.064.316-.024.232c-.892.132-1.785.266-2.873.428 1.591.529 2.962.984 4.333 1.44-.034.114-.069.229-.103.343l-4.175-.643c-.07.13-.14.26-.21.39 2.622 1.03 3.881 3.093 4.556 5.615-1.347-1.098-2.03-2.987-3.984-3.218l2.034 3.036c-.082.064-.163.129-.244.194-.672-.581-1.344-1.162-2.016-1.742-.038.037-.077.075-.115.113l2.78 5.478c-.061.027-.122.053-.183.079-1.243-1.151-2.487-2.303-3.731-3.454-.036.059-.073.118-.11.176.454.899.907 1.798 1.361 2.697l-.333.2-2.266-2.688-.217.162c.137.482.273.964.411 1.447-.08.053-.159.106-.238.158l-.791-1.197c-.094.059-.189.118-.283.177l.805 2.805-.231.157c-.527-.586-1.054-1.171-1.698-1.887l.266 1.697c-1.169-.897-2.039-.358-2.884.422-.661.609-1.355 1.501-1.946-.109-.09-.244-.546-.354-1.159-.724.537.083.702.088.854.135 2.042.626 2.279.575 3.104-1.368.684-1.611 1.708-3.099 1.546-5.031-.098-1.16.587-1.399 1.654-.839-.24-.973-.495-2.001-.773-3.129-.134.041-.48.146-1.075.328l.519-1.601c-.243.056-.459.106-.873.203.269-.857.498-1.587.728-2.316-.062-.046-.124-.092-.187-.137-.122.229-.244.458-.366.687-.1-.039-.2-.078-.301-.117l.325-3.41c-.299-.034-.567-.065-.821-.094-.022-.156-.07-.258-.04-.326.937-2.182-.238-3.752-1.528-5.291-1.137-1.357-2.294-2.699-3.397-4.083-.226-.283-.251-.727-.368-1.096l.387-.259c.724.733 1.472 1.443 2.165 2.203 1.048 1.152 2.231 2.233 3.034 3.541.812 1.321 1.23 2.882 1.579 4.527l.484-1.182.33.054c-.105 1.389-.21 2.778-.314 4.167.102-.028.205-.056.308-.084l.403 1.78c.52-1.634 1.005-3.157 1.49-4.681.057.007.113.013.17.02v2.558c1.331-1.125 1.326-2.522 1.139-4.279 2.412 1.198 4.589 2.279 6.836 3.395l-1.084-1.408 1.926.084c-.811-.898-2.472-.701-2.709-2.41l-3.797-2.442c.045-.109.089-.219.134-.328l1.849-.15-4.004-1.555.104-.352h1.867c-.537-.395-.903-.664-1.309-.964l5.262-1.472-.003-.194h-2.415l1.712-2.178h-3.261c.477-.454.714-.68 1.115-1.062-.732-.115-1.31-.206-1.888-.297l-.101-.263 2.551-.995h-3.723c-.027-.072-.054-.145-.08-.218l1.863-.84c-.841-.089-1.523-.162-2.204-.234-.005-.082-.01-.164-.016-.246.447-.196.894-.392 1.485-.65l-.975-.403c1.309-.729 2.503-1.392 3.665-2.039-1.488-.846-2.853-2.299-4.976-1.423l-.079-.44c.686-.318 1.349-.808 2.066-.911 1.038-.149 2.117-.006 3.177-.021.102-.001.201-.176.301-.298-1.239-.007-2.489.074-3.713-.065-.974-.109-1.918-.485-2.875-.752-.011.007-.022.015-.034.023l-.423-.359c1.5-.91 2.929-1.777 4.358-2.643-.47.113-.933.268-1.409.33-.938.123-1.882.205-2.825.285-1.151.097-2.304.176-3.535.268-.346-1.052.059-1.783 1.591-2.167 1.27-.319 2.356-.81 2.91-2.142l-7.097 2.485c.108-.291.212-.571.318-.856.1.052.201.104.301.157l8.477-2.849c-1.017 1.024-1.835 2.085-2.879 2.829-.98.698-2.199 1.061-3.22 1.794 2.696-.028 5.382.57 7.877-.828.886-.497 1.981-.623 3.024-.753-1.128.48-2.256.96-3.383 1.441-1.039.782-2.075 1.568-3.117 2.345-.295.22-.606.418-.911.624 1.484.09 2.973.14 4.45.294.721.074 1.421.335 2.131.521.007-.008.014-.016.021-.024 1.304.242 2.608.484 3.825.709-1.113.564-2.405.9-3.755.25-1.35-.652-2.673-.453-4.088.192 1.981.631 3.989 1.189 5.928 1.926.883.336 1.63 1.026 2.339 1.732-1.835-.876-3.624-1.491-5.586-.773 1.256.769 2.445 1.504 3.64 2.229 1.23.748 1.65 1.912 1.757 3.268.251 3.231-.202 6.302-2.004 9.08-.118.183-.206.386-.389.735l3.159 1.317-.433.248-.093-.096c-.114.115-.228.231-.343.346l.436-.25 2.187 2.25-.491.573c-.6-.199-1.2-.397-1.807-.598-.417 1.745.475 2.551 1.914 3.072.664.24 1.306.599 1.874 1.017.258.191.307.659.465.995.066.141.142.296.257.391 1.103.911 2.21 1.819 3.369 2.769h689.291c.552 0 1 .448 1 1s-.448 1-1 1h-688.906c1.152 2.774 2.309 5.558 3.465 8.342-.049.084-.098.169-.147.254-.857-.582-1.712-1.163-2.74-1.861 1.881 3.236 2.903 6.584 2.099 10.586-.608-1.324-1.122-2.45-1.64-3.574-.677-1.472-1.449-1.893-3.39-1.607 2.18.443 2.773 1.94 3.041 3.527.467 2.763 1.246 5.214 4.43 6.023-2.911.527-5.156-.41-6.815-2.892.05 1.962.308 2.526 2.15 4.198 1.609 1.462 2.037 3.276 1.77 5.333-.03.23-.178.445-.395.72-.158-2.722-2.144-3.312-4.202-3.756-1.496-.322-2.832-.819-3.51-2.369l-.303.224c.489.764.875 1.628 1.491 2.273 1.116 1.169 1.674 2.559 1.728 4.092.071 2.062.721 3.64 2.919 4.313-1.495.748-3.217.245-4.226-1.274-.535-.805-.777-1.801-1.293-2.622-.655-1.043-1.453-1.995-2.19-2.987-.136.078-.272.156-.409.235 0 .868.106 1.753-.024 2.601-.213 1.393-.394 2.84-.935 4.118-.51 1.208-.732 2.17.434 3.156-1 .577-1.914.536-2.698-.046-1.45-1.079-1.384-2.67-1.2-4.286-2.318 2.117-2.083 3.89.906 8.541-.943-.478-2.01-.809-2.801-1.469-1.187-.991-2.168-2.228-3.267-3.33-.53-.531-1.065-1.113-1.712-1.46-1.569-.842-2.99.099-2.763 1.846.105.809.492 1.604.859 2.352.726 1.486 1.567 2.943 1.282 4.679-.12.728-.443 1.423-.895 2.125.428-2.933-1.712-4.037-3.743-5.258.31.651.488 1.426.957 1.931.997 1.074 1.026 2.194.567 3.46-.674 1.861-1.328 3.729-2.127 5.979-.322-.969-.704-1.697-.782-2.456-.119-1.145.073-2.323-.055-3.466-.091-.817-.491-1.599-1.041-2.377 1.179 2.161.151 3.772-1.108 5.345-.697.871-.901 1.827-.34 2.868-1.368.047-2.519-.774-3.129-2.38-.491-1.295-.833-2.647-1.395-3.959-.245 2.835-1.343 5.199-3.337 7.464l.599-3.687c-.697.554-1.12.89-1.543 1.227l-.379-.05c1.437-2.003.437-3.686-.685-5.698-.417 1.257-.96 2.301-1.07 3.389-.113 1.114.198 2.27.116 3.469-.487-1.186-1.225-2.339-1.392-3.57-.171-1.264.215-2.603.298-3.921-.551 1.662-1.828 3.081-1.036 5.143.595 1.552-.579 2.715-2.613 3.078v-4.108c-.895 1.265-1.364 2.726-2.653 3.148.263-2.088.534-4.243.805-6.397l-.37-.075c-.447 1.852-.064 4.048-1.962 5.239l-.444-7.069c-.804 1.242-.585 2.529-.623 3.786-.037 1.255-.198 2.506-.304 3.759l-.401-.011c-.13-.786-.227-1.578-.399-2.354-.215-.972-.671-1.863-1.808-1.809-1.112.053-1.325 1.027-1.489 1.93-.046.253-.072.51-.328.802-.205-.831-.359-1.681-.638-2.486-.145-.418-.511-.759-.777-1.135-.337.37-.71.714-.995 1.119-.138.197-.111.51-.159.77l-.334.032c-.099-.796-.29-1.595-.27-2.389.021-.789.255-1.571.191-2.408-2.459 1.285-1.609 3.795-2.199 6.173-1.523-2.424-2.084-4.599-1.331-6.991.265-.842.748-1.613 1.085-2.436.269-.655.562-1.323.679-2.014.247-1.46-.685-2.449-2.169-2.292-1.594.171-2.938.73-3.365 2.532-.119.501-.371 1.059-.739 1.399-1.263 1.166-2.68 2.19-2.946 4.138-.913-1.217-.641-2.343-.23-3.536.383-1.113.82-2.286.824-3.433.007-2.067.54-3.675 2.554-4.546.149-.065.257-.223.57-.505-2.211.287-3.782.826-4.464 3.083-.738 2.44-5.215 3.756-7.477 2.164.653-.106 1.102-.174 1.55-.252 2.354-.412 3.019-1.84 2.096-3.99-.315-.733-.05-1.714-.05-2.605-2.827-.258-3.517.258-2.619 2.585-1.016-.651-2.123-.836-2.127-1.971-.004-1.084.192-2.25 1.513-2.709.662-.231 1.84-.244 1.456-1.26-.25-.661-1.206-1.339-1.948-1.481-2.509-.482-3.865.975-4.068 4.111-1.176-1.356-1.26-3.97.319-5.961 1.29-1.628 3.104-2.841 4.573-4.139-3.455.53-3.819-.258-6.953 3.467.041-.835-.052-1.402.115-1.878.64-1.829 1.57-3.467 3.163-4.692.963-.741 1.798-1.648 2.582-2.604-2.745 1.588-6.27 1.614-8.321 4.438-.122-.081-.243-.163-.364-.245.287-.675.423-1.491.892-1.997 1.08-1.166 2.231-2.312 3.522-3.229 1.896-1.347 3.331-2.912 3.714-5.58-1.619 1.619-2.638 3.771-5.167 3.716l1.976-6.043c-.555.311-.968.542-1.382.773l-.31-.31c1.312-1.585 2.625-3.17 3.942-4.76h-118.776c-.552 0-1-.448-1-1s.448-1 1-1zm48.427-1.016c-1.243-1.668-2.12-4.723-1.599-5.717.536 1.915 1.051 3.757 1.599 5.717zm-15.278-5.979c.319 1.897-.531 4.211-1.796 5.563zm21.013-.742c-.288.486-.464 1.213-.887 1.41-1.041.486-2.196.729-3.305 1.07-.064-.132-.128-.263-.193-.395 1.352-.751 2.704-1.503 4.056-2.254zm-28.108-.401 3.526 2.229c-.097.131-.194.262-.292.393-1.009-1.031-3.418-.174-3.578-2.352zm22.315 1.532c-.284-.226-.692-.55-1.296-1.031.275-.87.422-1.95.956-2.785.302-.471 1.3-.842 1.876-.725 1.329.269 2.601.841 3.872 1.35.218.088.316.475.469.724-.252.122-.499.256-.757.364-.342.143-.694.264-1.039.4-.886.35-1.772.698-2.653 1.058-.416.171-.821.369-1.428.645zm1.094-1.092c.213.017.427.034.641.05.474-.585.949-1.17 1.424-1.754-.479-.346-.916-.872-1.448-.997-.805-.188-1.603.173-1.515 1.137.05.544.583 1.044.898 1.564zm-16.817.637c-2.14-.338-4.189-.164-5.542-2.1-.221-.317-1.118-.163-1.994-.258.414-.46.736-1.153 1.213-1.284 1.279-.352 2.594-.563 3.919-.629 1.172-.057 1.87.614 1.956 1.874.051.728.263 1.445.448 2.397zm-1.588-2.352c.088-.964-.71-1.325-1.515-1.137-.532.125-.969.651-1.448.997.475.585.95 1.169 1.424 1.755.214-.017.427-.034.641-.05.316-.52.849-1.02.898-1.565zm-1.169-17.191 1.209.185-1.369-1.75.285-.299c.658.509 1.317 1.017 2.06 1.591l-.138-.985 2.116 1.018.006-.218-3.219-3.711c.076-.122.151-.244.227-.367.635.469 1.451.817 1.863 1.435.623.933 1.371 1.4 2.431 1.671.823.212 1.564.742 2.494 1.207l-1.823-6.695 2.587 2.597.328-.145c-1.198-1.198-1.876-2.5-.9-4.406l.799 2.795c.112-.023.225-.046.338-.068l.5-2.993.395.018c.087.738.175 1.475.262 2.213l.343.023c.068-.809.136-1.618.227-2.692 1.145 1.631.873 2.991.253 4.403.384-.514.767-1.028 1.08-1.447.121 1.066.333 2.071.308 3.07-.013.52-.407 1.05-.695 1.536-.491.832-.46 1.064.468 1.725l.31-1.528.401-.073.463 2.426 6.886-5.015c-.402 1.972-2.712 2.565-3.234 4.445.829-.478 1.708-.985 2.588-1.493l.204.25c-.085.217-.17.435-.369.944l2.734-1.062c-.155 1.25-1.236 1.368-2.354 1.909h1.958c-.854 1.108-1.787.91-2.732.889-1.408-.032-2.841-.055-4.221.17-.816.133-1.553.752-2.587 1.289-.348-.214-.926-.803-1.582-.908-.668-.106-1.484.128-2.107.457-.801.42-1.293.254-2.037-.187-.796-.471-1.826-.605-2.774-.754-1.421-.223-2.862-.322-3.982-1.47z"
    fill="#d8dee9"
  />
</svg>
