<svg clip-rule="evenodd" fill-rule="evenodd" stroke-miterlimit="1.5" viewBox="0 0 800 600" xmlns="http://www.w3.org/2000/svg">
  <g fill="none">
    <path d="m0 0h800v600h-800z" />
    <g stroke="#d8dee9" stroke-width="2">
      <path d="m100 229.623h140.754v140.754h-140.754z" />
      <g stroke-linecap="square" stroke-linejoin="round">
        <path d="m257.387 354.427h442.613" />
        <path d="m257.387 245.573h442.613" />
      </g>
    </g>
  </g>
  <g fill-rule="nonzero">
    <path
      d="m175.751 328.494 26.691-54.454h2.574l26.692 54.454h-2.251l-25.727-52.525-25.728 52.525zm-12.25 0-54.455-26.692v-2.573l54.455-26.69v2.251l-52.525 25.726 52.525 25.726z"
      fill="#88c0d0"
    />
    <g fill="#d8dee9">
      <path d="m293.353 335.648v1.9h-19.341v-29.029h18.973v1.9h-16.893v11.392h14.757v1.81h-14.757v12.027z" />
      <path
        d="m315.515 313.354c-.464-.519-.98-.974-1.548-1.366-.568-.393-1.181-.721-1.84-.984s-1.367-.465-2.125-.604c-.759-.139-1.574-.208-2.446-.208-2.83 0-4.894.54-6.193 1.621s-1.948 2.533-1.948 4.355c0 1.234.295 2.208.886 2.922s1.513 1.288 2.766 1.723 2.866.864 4.839 1.288c2.093.437 3.906.949 5.439 1.538s2.714 1.385 3.542 2.389c.829 1.004 1.243 2.37 1.243 4.099 0 1.269-.247 2.384-.74 3.345-.494.961-1.199 1.76-2.115 2.398-.916.637-2.01 1.116-3.284 1.437-1.273.321-2.682.482-4.227.482-1.518 0-2.956-.161-4.314-.482s-2.633-.8-3.826-1.438-2.32-1.437-3.379-2.397l1.118-1.668c.604.631 1.28 1.197 2.028 1.7s1.565.938 2.451 1.305c.886.366 1.832.646 2.837.84 1.006.193 2.053.29 3.144.29 2.528 0 4.514-.47 5.955-1.41 1.442-.94 2.163-2.33 2.163-4.171 0-1.288-.332-2.324-.995-3.108-.664-.783-1.672-1.427-3.025-1.932s-3.05-.975-5.093-1.411c-2.054-.445-3.794-.938-5.221-1.478-1.428-.54-2.506-1.276-3.234-2.207-.729-.932-1.093-2.183-1.093-3.755 0-1.763.43-3.25 1.292-4.463.862-1.212 2.068-2.131 3.618-2.754 1.55-.624 3.336-.936 5.356-.936 1.263 0 2.43.125 3.5.375s2.062.624 2.974 1.122c.913.498 1.763 1.133 2.55 1.906z"
      />
      <path d="m323.24 337.548v-29.029h2.08v27.129h17.334v1.9z" />
      <path d="m346.913 308.519h2.08v29.03h-2.08z" />
      <path d="m357.907 312.405v25.143h-2.08v-29.029h1.713l20.236 25.571v-25.554h2.08v29.012h-2.004z" />
      <path d="m407.827 310.419h-10.635v27.129h-2.08v-27.129h-10.634v-1.9h23.349z" />
      <path
        d="m419.619 322.829c0-1.756.307-3.486.92-5.19s1.509-3.257 2.687-4.661 2.618-2.525 4.32-3.364c1.703-.839 3.644-1.259 5.825-1.259 2.589 0 4.795.593 6.619 1.779 1.823 1.185 3.176 2.705 4.06 4.558l-1.715.968c-.663-1.334-1.495-2.396-2.496-3.187-1-.791-2.072-1.355-3.216-1.693s-2.283-.507-3.416-.507c-1.837 0-3.471.366-4.901 1.096-1.431.73-2.637 1.709-3.619 2.936-.982 1.228-1.722 2.592-2.221 4.094-.499 1.501-.748 3.025-.748 4.571 0 1.697.294 3.321.882 4.871s1.408 2.925 2.459 4.125c1.052 1.2 2.283 2.152 3.692 2.855 1.41.703 2.936 1.054 4.579 1.054 1.16 0 2.348-.2 3.564-.6 1.215-.4 2.355-1.016 3.418-1.85 1.064-.833 1.922-1.911 2.574-3.232l1.787.854c-.63 1.445-1.572 2.672-2.826 3.68-1.254 1.009-2.643 1.772-4.168 2.29s-3.029.777-4.513.777c-1.975 0-3.79-.43-5.445-1.288-1.655-.859-3.089-2.004-4.302-3.435s-2.15-3.039-2.81-4.824c-.66-1.786-.99-3.592-.99-5.418z"
      />
      <path
        d="m461.419 337.753c-2.014 0-3.852-.413-5.515-1.238-1.663-.826-3.097-1.936-4.302-3.333-1.206-1.396-2.135-2.973-2.789-4.731-.655-1.758-.982-3.564-.982-5.418 0-1.935.344-3.782 1.031-5.54.688-1.758 1.648-3.325 2.88-4.702 1.233-1.376 2.677-2.467 4.332-3.271s3.449-1.206 5.381-1.206c2.029 0 3.871.423 5.526 1.268 1.656.845 3.079 1.976 4.271 3.393 1.192 1.418 2.115 2.999 2.769 4.743.654 1.745.981 3.522.981 5.333 0 1.951-.341 3.805-1.022 5.564-.682 1.758-1.639 3.325-2.871 4.702-1.233 1.376-2.673 2.46-4.321 3.25-1.647.791-3.437 1.186-5.369 1.186zm-11.489-14.72c0 1.655.28 3.251.841 4.787.561 1.537 1.353 2.905 2.378 4.105 1.024 1.2 2.241 2.152 3.651 2.855 1.409.703 2.955 1.054 4.637 1.054 1.736 0 3.309-.365 4.719-1.095 1.409-.73 2.615-1.709 3.619-2.937 1.003-1.227 1.776-2.602 2.317-4.125s.811-3.071.811-4.644c0-1.654-.284-3.247-.852-4.777-.569-1.531-1.368-2.899-2.399-4.105s-2.244-2.158-3.639-2.855c-1.396-.697-2.921-1.046-4.576-1.046-1.736 0-3.313.363-4.73 1.087s-2.627 1.7-3.631 2.927c-1.003 1.228-1.778 2.6-2.326 4.117-.547 1.517-.82 3.068-.82 4.652z"
      />
      <path d="m482.858 312.405v25.143h-2.08v-29.029h1.713l20.236 25.571v-25.554h2.08v29.012h-2.004z" />
      <path d="m512.506 337.548v-29.029h18.902v1.9h-16.821v11.495h14.276v1.81h-14.276v13.824z" />
      <path d="m537.12 308.519h2.08v29.03h-2.08z" />
      <path
        d="m557.664 337.753c-1.969 0-3.786-.42-5.45-1.259-1.665-.839-3.107-1.964-4.326-3.375-1.219-1.412-2.165-2.993-2.839-4.743-.673-1.751-1.01-3.543-1.01-5.378 0-1.917.329-3.755.988-5.513.658-1.758 1.586-3.326 2.784-4.705 1.198-1.378 2.61-2.467 4.236-3.266 1.626-.8 3.407-1.2 5.343-1.2 2.914 0 5.257.59 7.03 1.77s3.123 2.702 4.05 4.568l-1.679 1.003c-.982-1.888-2.289-3.264-3.921-4.127-1.632-.864-3.471-1.295-5.517-1.295-1.715 0-3.264.359-4.646 1.077s-2.564 1.688-3.544 2.909c-.98 1.222-1.73 2.594-2.248 4.117-.519 1.522-.778 3.088-.778 4.697 0 1.707.298 3.328.894 4.864.595 1.537 1.425 2.902 2.489 4.096s2.301 2.133 3.71 2.816c1.409.684 2.929 1.025 4.56 1.025 1.861 0 3.624-.456 5.291-1.37s3.267-2.349 4.801-4.307v2.318c-2.891 3.518-6.297 5.278-10.218 5.278zm9.745-12.629h-6.575v-1.684h8.403v14.108h-1.828z"
      />
      <path
        d="m607.536 330.043c0 1.408-.351 2.678-1.053 3.811s-1.644 2.032-2.824 2.697c-1.181.665-2.487.997-3.919.997h-13.596v-29.029h13.542c1.363 0 2.542.361 3.537 1.083s1.758 1.649 2.289 2.78c.532 1.132.798 2.31.798 3.537 0 1.448-.369 2.789-1.107 4.021-.737 1.233-1.759 2.141-3.064 2.725 1.663.491 2.978 1.413 3.946 2.765.968 1.353 1.451 2.89 1.451 4.613zm-2.098-.289c0-1.051-.236-2.027-.707-2.928-.472-.9-1.114-1.631-1.926-2.194-.813-.562-1.739-.843-2.778-.843h-11.803v11.895h11.516c1.067 0 2.03-.285 2.89-.855.859-.57 1.542-1.306 2.048-2.208.507-.902.76-1.857.76-2.867zm-17.214-19.371v11.632h10.658c1.055 0 1.981-.279 2.778-.837s1.428-1.281 1.892-2.17c.463-.888.695-1.821.695-2.8 0-1.064-.218-2.033-.655-2.908-.436-.875-1.039-1.579-1.809-2.115-.77-.535-1.655-.802-2.656-.802z"
      />
      <path d="m621.441 308.519h1.781l12.292 29.029h-2.235l-4.051-9.555h-13.852l-4.033 9.555h-2.235zm7.221 17.754-6.331-15.216-6.447 15.216z" />
      <path
        d="m656.31 313.354c-.465-.519-.981-.974-1.549-1.366-.568-.393-1.181-.721-1.84-.984-.658-.263-1.367-.465-2.125-.604s-1.574-.208-2.446-.208c-2.829 0-4.893.54-6.192 1.621s-1.949 2.533-1.949 4.355c0 1.234.295 2.208.886 2.922s1.513 1.288 2.766 1.723 2.866.864 4.839 1.288c2.094.437 3.907.949 5.439 1.538 1.533.589 2.714 1.385 3.543 2.389.828 1.004 1.243 2.37 1.243 4.099 0 1.269-.247 2.384-.741 3.345s-1.198 1.76-2.114 2.398c-.916.637-2.011 1.116-3.284 1.437-1.274.321-2.683.482-4.228.482-1.518 0-2.956-.161-4.314-.482s-2.633-.8-3.826-1.438-2.319-1.437-3.379-2.397l1.118-1.668c.604.631 1.28 1.197 2.028 1.7.749.503 1.566.938 2.452 1.305.886.366 1.831.646 2.837.84 1.005.193 2.053.29 3.143.29 2.529 0 4.514-.47 5.956-1.41 1.441-.94 2.162-2.33 2.162-4.171 0-1.288-.332-2.324-.995-3.108-.663-.783-1.671-1.427-3.024-1.932s-3.051-.975-5.094-1.411c-2.053-.445-3.794-.938-5.221-1.478s-2.505-1.276-3.234-2.207c-.729-.932-1.093-2.183-1.093-3.755 0-1.763.431-3.25 1.292-4.463.862-1.212 2.068-2.131 3.618-2.754 1.551-.624 3.336-.936 5.356-.936 1.263 0 2.43.125 3.5.375s2.062.624 2.975 1.122c.912.498 1.762 1.133 2.549 1.906z"
      />
      <path d="m683.376 335.648v1.9h-19.342v-29.029h18.974v1.9h-16.894v11.392h14.758v1.81h-14.758v12.027z" />
      <path
        d="m385.965 267.246c-.464-.519-.98-.974-1.548-1.366-.568-.393-1.181-.72-1.84-.984-.658-.263-1.367-.464-2.125-.604-.759-.139-1.574-.208-2.446-.208-2.829 0-4.894.54-6.193 1.621s-1.948 2.533-1.948 4.355c0 1.234.295 2.208.886 2.922s1.513 1.288 2.766 1.723 2.866.864 4.839 1.289c2.093.436 3.906.948 5.439 1.537s2.714 1.385 3.542 2.389c.829 1.004 1.243 2.37 1.243 4.1 0 1.268-.247 2.383-.74 3.344-.494.961-1.199 1.761-2.114 2.398-.916.637-2.011 1.116-3.285 1.437-1.273.321-2.682.482-4.227.482-1.518 0-2.956-.161-4.314-.482s-2.633-.8-3.826-1.438c-1.193-.637-2.32-1.437-3.379-2.397l1.118-1.668c.604.631 1.28 1.198 2.028 1.701.749.503 1.566.937 2.452 1.304.885.366 1.831.646 2.836.84 1.006.193 2.054.29 3.144.29 2.529 0 4.514-.47 5.955-1.41 1.442-.94 2.163-2.33 2.163-4.171 0-1.288-.332-2.324-.995-3.108-.663-.783-1.672-1.427-3.024-1.932-1.353-.504-3.051-.975-5.094-1.411-2.054-.445-3.794-.938-5.221-1.478s-2.505-1.276-3.234-2.207c-.729-.932-1.093-2.183-1.093-3.755 0-1.763.431-3.25 1.292-4.463.862-1.212 2.068-2.13 3.618-2.754s3.336-.936 5.356-.936c1.263 0 2.43.125 3.5.375s2.062.624 2.975 1.122c.912.498 1.762 1.133 2.549 1.906z"
      />
      <path d="m392.049 262.411 11.07 26.42 11.03-26.42h2.216l-12.255 29.03h-1.982l-12.273-29.03z" />
      <path d="m440.099 289.541v1.9h-19.342v-29.03h18.974v1.9h-16.894v11.392h14.758v1.81h-14.758v12.028z" />
      <path d="m448.065 266.297v25.144h-2.08v-29.03h1.713l20.235 25.571v-25.553h2.081v29.012h-2.005z" />
      <path
        d="m500.014 291.645c-1.969 0-3.785-.42-5.45-1.259-1.664-.839-3.106-1.964-4.325-3.375-1.219-1.412-2.165-2.993-2.839-4.743-.674-1.751-1.011-3.543-1.011-5.378 0-1.917.33-3.755.988-5.513.659-1.758 1.587-3.326 2.785-4.704 1.198-1.379 2.61-2.468 4.236-3.267 1.626-.8 3.407-1.2 5.342-1.2 2.914 0 5.258.59 7.031 1.77s3.123 2.702 4.05 4.568l-1.679 1.003c-.982-1.888-2.289-3.264-3.921-4.127-1.632-.864-3.471-1.295-5.517-1.295-1.716 0-3.264.359-4.647 1.077-1.382.718-2.563 1.688-3.543 2.91-.981 1.221-1.73 2.593-2.248 4.116-.519 1.523-.778 3.089-.778 4.698 0 1.706.298 3.327.893 4.864.596 1.536 1.426 2.901 2.49 4.095s2.3 2.133 3.71 2.816c1.409.684 2.929 1.026 4.56 1.026 1.86 0 3.624-.457 5.291-1.371 1.666-.913 3.267-2.349 4.8-4.306v2.317c-2.891 3.519-6.297 5.278-10.218 5.278zm9.746-12.629h-6.576v-1.684h8.404v14.109h-1.828z"
      />
      <path
        d="m517.823 291.441v-29.03h12.087c1.235 0 2.366.258 3.391.774s1.913 1.206 2.666 2.069c.752.863 1.339 1.828 1.76 2.893.421 1.066.631 2.156.631 3.271 0 1.427-.286 2.767-.859 4.019-.573 1.253-1.369 2.302-2.389 3.147s-2.211 1.37-3.575 1.576l7.215 11.281h-2.388l-7.035-10.975h-9.424v10.975zm2.08-12.875h10.185c1.268 0 2.36-.341 3.277-1.021.917-.681 1.629-1.568 2.135-2.663.506-1.094.76-2.249.76-3.464 0-1.258-.291-2.427-.873-3.508-.582-1.08-1.36-1.951-2.334-2.61-.973-.66-2.051-.989-3.233-.989h-9.917z"
      />
      <path d="m563.414 289.541v1.9h-19.341v-29.03h18.973v1.9h-16.893v11.392h14.758v1.81h-14.758v12.028z" />
      <path
        d="m590.692 283.935c0 1.408-.351 2.679-1.053 3.811-.702 1.133-1.644 2.032-2.824 2.697-1.181.665-2.487.998-3.919.998h-13.596v-29.03h13.542c1.363 0 2.542.361 3.537 1.083.995.723 1.758 1.649 2.29 2.781.531 1.131.797 2.31.797 3.536 0 1.448-.369 2.789-1.107 4.021-.737 1.233-1.759 2.141-3.064 2.726 1.663.49 2.978 1.412 3.946 2.764.968 1.353 1.451 2.89 1.451 4.613zm-2.098-.289c0-1.051-.236-2.027-.707-2.927-.472-.901-1.114-1.632-1.926-2.195-.813-.562-1.739-.843-2.778-.843h-11.803v11.895h11.516c1.067 0 2.031-.285 2.89-.855.86-.57 1.542-1.306 2.049-2.208.506-.902.759-1.857.759-2.867zm-17.214-19.371v11.632h10.658c1.055 0 1.981-.279 2.778-.837.798-.558 1.428-1.281 1.892-2.17.463-.888.695-1.821.695-2.8 0-1.064-.218-2.033-.655-2.908-.436-.874-1.039-1.579-1.809-2.114-.77-.536-1.655-.803-2.656-.803z"
      />
    </g>
  </g>
</svg>
