<svg clip-rule="evenodd" fill-rule="evenodd" stroke-miterlimit="10" viewBox="0 0 888 600" xmlns="http://www.w3.org/2000/svg">
  <path d="m0 0h888v600h-888z" fill="none" />
  <path
    d="m548.056 286.725h-9.32v25.913h-1.686v-25.913h-9.622v-1.457h21.544l9.889 14.49 9.928-14.49h1.879l-11.002 15.909v11.461h-1.686v-11.461zm-267.895-1.457h2.415l10.695 25.491h.076l10.58-25.491h2.416v27.37h-1.687v-25.3h-.076l-10.427 25.3h-1.687l-10.541-25.3h-.077v25.3h-1.687zm40.975 0 10.811 27.37h-1.802l-3.451-8.778h-13.109l-3.489 8.778h-1.802l11.002-27.37zm5.022 17.136-5.865-15.488h-.076l-6.095 15.488zm7.742-17.136h11.424c4.791 0 8.663 1.763 8.663 7.053 0 3.679-2.224 6.401-5.864 7.014v.078c4.064.46 5.06 3.028 5.328 5.865.268 2.835-.192 5.902.919 7.36h-1.878c-1.035-1.879-.422-5.022-.728-7.667-.345-2.645-1.647-4.792-6.44-4.792h-9.737v12.459h-1.686zm11.423 13.455c3.985 0 6.976-1.878 6.976-6.286 0-4.14-3.296-5.712-6.976-5.712h-9.737v11.997zm12.724-13.455h1.687v15.754l17.211-15.754h2.186l-12.498 11.385 13.263 15.985h-2.109l-12.381-14.835-5.673 5.175v9.66h-1.687zm23.496 0h8.97c9.775 0 12.65 6.708 12.65 13.647 0 7.743-3.948 13.723-12.726 13.723h-8.894zm1.688 25.914h7.36c5.097 0 10.887-2.798 10.887-12.266 0-11.193-7.168-12.19-11.232-12.19h-7.014zm35.685 2.108c-8.203 0-13.033-6.326-13.033-14.337s4.83-14.337 13.033-14.337c8.165 0 12.995 6.326 12.995 14.337s-4.829 14.337-12.995 14.337zm0-1.456c7.131 0 11.308-5.865 11.308-12.881s-4.177-12.881-11.308-12.881c-7.169 0-11.346 5.865-11.346 12.881s4.177 12.881 11.346 12.881zm13.952-26.566h1.725l7.129 25.567h.078l7.244-25.567h2.108l7.361 25.567h.076l7.015-25.567h1.802l-7.858 27.37h-1.917l-7.513-25.913h-.077l-7.399 25.913h-1.878zm36.72 0h2.109l17.288 25.109h.077v-25.109h1.686v27.37h-1.993l-17.404-25.3h-.076v25.3h-1.687zm54.508 7.82c-.192-4.677-3.718-7.015-8.779-7.015-3.105 0-7.514 1.304-7.514 5.827 0 4.408 4.677 5.136 9.315 6.095 4.677.958 9.354 2.147 9.354 7.59 0 5.675-5.443 7.706-9.622 7.706-6.402 0-11.616-2.644-11.539-9.699h1.687c-.346 5.979 4.447 8.242 9.852 8.242 3.297 0 7.935-1.495 7.935-6.249 0-4.639-4.677-5.443-9.353-6.402-4.639-.958-9.316-2.07-9.316-7.283 0-5.253 4.868-7.284 9.2-7.284 5.713 0 10.197 2.454 10.466 8.472zm48.178-7.82h1.687v25.913h15.525v1.457h-17.212zm37.758 25.914v1.457h-18.591v-27.371h18.399v1.458h-16.714v10.963h15.718v1.457h-15.718v12.036zm37.296-11.96v13.416h-1.458v-5.826h-.076c-1.342 3.986-5.521 6.479-10.35 6.479-8.28 0-12.881-6.326-12.881-14.184 0-7.744 4.677-14.49 12.919-14.49 5.636 0 10.427 3.413 11.385 9.123h-1.61c-1.264-4.714-4.752-7.667-9.736-7.667-7.398 0-11.27 6.21-11.27 13.034 0 6.975 3.755 12.727 11.27 12.727 6.516 0 10.618-4.448 10.349-11.155h-10.081v-1.457zm6.323-13.954v16.406c0 3.297.688 10.159 8.586 10.159 6.71 0 8.97-3.949 8.97-10.159v-16.406h1.686v16.406c0 6.517-2.454 11.616-10.657 11.616-9.736 0-10.274-7.973-10.274-11.616v-16.406zm24.071 0h1.686v27.37h-1.686zm6.516 0h8.97c9.776 0 12.65 6.708 12.65 13.647 0 7.743-3.948 13.723-12.727 13.723h-8.893zm1.687 25.914h7.36c5.098 0 10.887-2.798 10.887-12.266 0-11.193-7.168-12.19-11.232-12.19h-7.014zm42.47 0v1.457h-18.591v-27.371h18.4v1.458h-16.714v10.963h15.717v1.457h-15.717v12.036z"
    fill="#2e3440"
  />
  <path d="m262.67 341.874h481.33m-481.33-83.748h481.33m-600-8.69h101.129v101.128h-101.129z" fill="none" stroke="#2e3440" stroke-width="1.77" />
  <path
    d="m198.301 319.452 18.558-37.861h1.79l18.558 37.861h-1.565l-17.888-36.52-17.888 36.52zm-8.517 0-37.862-18.559v-1.788l37.862-18.558v1.565l-36.521 17.887 36.521 17.888z"
    fill="#2e3440"
    fill-rule="nonzero"
  />
</svg>
