<svg
  xml:space="preserve"
  style="fill-rule:evenodd;clip-rule:evenodd;stroke-linejoin:round;stroke-miterlimit:2"
  viewBox="0 0 888 600"
  xmlns="http://www.w3.org/2000/svg"
>
  <path d="M0 0h888v600H0z" style="fill:none" />
  <path
    d="M230.697 426.04q-.874 0-1.422-.54t-.548-1.431v-56.123q0-.945.548-1.492.548-.548 1.422-.548h4.412q.945 0 1.493.548.548.547.548 1.492v23.764h29.552v-23.764q0-.945.548-1.492.547-.548 1.423-.548h4.413q.945 0 1.493.548.547.547.547 1.492v56.123q0 .876-.547 1.423-.548.548-1.493.548h-4.413q-.876 0-1.423-.548-.548-.547-.548-1.423v-24.628H237.15v24.628q0 .876-.548 1.423-.548.548-1.493.548zm76.52.859q-6.507 0-10.907-2.497t-6.72-6.931q-2.319-4.435-2.539-10.078-.086-1.417-.086-3.697 0-2.279.086-3.68.22-5.73 2.58-10.121 2.36-4.392 6.759-6.889t10.827-2.496q6.427 0 10.827 2.496t6.759 6.889q2.36 4.392 2.58 10.121.102 1.401.102 3.68t-.102 3.697q-.22 5.643-2.539 10.078t-6.72 6.931q-4.4 2.497-10.907 2.497m0-6.626q5.353 0 8.537-3.406 3.183-3.408 3.425-9.904.087-1.288.086-3.259 0-1.97-.086-3.259-.242-6.534-3.425-9.922-3.184-3.387-8.537-3.388-5.337 0-8.529 3.388t-3.435 9.922a51 51 0 0 0-.086 3.259q0 1.97.086 3.259.242 6.496 3.435 9.904 3.192 3.406 8.529 3.406m32.992 5.767q-.875 0-1.422-.548-.548-.547-.548-1.423v-40.73q0-.874.548-1.422.547-.548 1.422-.548h3.845q.874 0 1.423.548.547.548.547 1.422v2.975q2.02-2.604 5.015-4.188 2.996-1.584 7.205-1.616 9.718-.065 13.713 7.882 1.975-3.566 5.758-5.724t8.572-2.158q4.52 0 8.155 2.08 3.636 2.081 5.748 6.22 2.113 4.14 2.113 10.438v24.821q0 .876-.548 1.423-.547.548-1.423.548h-4.021q-.876 0-1.423-.548-.548-.547-.548-1.423v-24.043q0-4.863-1.406-7.589-1.407-2.724-3.708-3.86-2.3-1.136-5.022-1.136-2.288 0-4.596 1.136t-3.812 3.86q-1.504 2.726-1.504 7.589v24.043q0 .876-.547 1.423-.548.548-1.423.548H368.3q-.875 0-1.422-.548-.548-.547-.548-1.423v-24.043q0-4.863-1.476-7.589-1.477-2.724-3.778-3.86a10.9 10.9 0 0 0-4.883-1.136q-2.288 0-4.596 1.144t-3.82 3.86-1.513 7.512v24.112q0 .876-.547 1.423-.548.548-1.423.548zm92.225.859q-8.881 0-14.108-5.471-5.226-5.472-5.785-14.916a47 47 0 0 1-.069-2.856 46 46 0 0 1 .069-2.84q.381-6.132 2.838-10.712t6.794-7.087q4.339-2.507 10.245-2.507 6.463 0 10.899 2.768 4.434 2.768 6.776 7.806 2.34 5.039 2.341 11.815v1.53q0 .875-.583 1.423-.582.548-1.458.548h-29.649v.778q.14 3.464 1.523 6.507 1.383 3.044 3.971 4.937t6.164 1.893q3.098 0 5.159-.94 2.063-.939 3.321-2.094t1.689-1.793q.773-1.053 1.218-1.267.446-.215 1.407-.215h4.161q.789 0 1.348.481.558.48.472 1.269-.086 1.284-1.364 3.141-1.277 1.858-3.659 3.657-2.38 1.798-5.855 2.971-3.473 1.174-7.865 1.174m-11.69-26.422h23.486v-.295q0-3.844-1.399-6.862-1.4-3.017-4.056-4.762-2.658-1.745-6.357-1.745t-6.323 1.745-3.987 4.762-1.364 6.862zm66.073 25.563q-.875 0-1.423-.548-.547-.547-.547-1.423v-56.123q0-.945.547-1.492.548-.548 1.423-.548h19.506q8.913 0 14.292 2.671 5.38 2.671 7.877 7.877t2.614 12.727q.102 3.834.102 6.765t-.102 6.733q-.204 7.935-2.625 13.114-2.421 5.178-7.707 7.712-5.286 2.535-14.022 2.535zm6.452-7.328h13.054q5.938 0 9.466-1.638t5.135-5.244 1.694-9.5q.102-2.562.11-4.502.008-1.941 0-3.855a124 124 0 0 0-.11-4.443q-.172-8.355-3.987-12.325-3.815-3.972-12.738-3.972h-12.624zm67.947 8.187q-6.507 0-10.907-2.497t-6.72-6.931q-2.32-4.435-2.539-10.078-.087-1.417-.086-3.697 0-2.279.086-3.68.219-5.73 2.58-10.121 2.36-4.392 6.759-6.889t10.827-2.496q6.426 0 10.827 2.496t6.759 6.889q2.36 4.392 2.58 10.121.102 1.401.102 3.68t-.102 3.697q-.22 5.643-2.539 10.078t-6.72 6.931q-4.4 2.497-10.907 2.497m0-6.626q5.353 0 8.537-3.406 3.183-3.408 3.425-9.904.086-1.288.086-3.259t-.086-3.259q-.242-6.534-3.425-9.922-3.184-3.387-8.537-3.388-5.337 0-8.53 3.388t-3.434 9.922a51 51 0 0 0-.086 3.259q0 1.97.086 3.259.242 6.496 3.434 9.904 3.193 3.406 8.53 3.406m47.994 5.767q-4.79 0-7.794-1.85t-4.365-5.259q-1.36-3.41-1.361-8.011v-22.684h-6.716q-.876 0-1.423-.548-.548-.547-.548-1.423v-2.926q0-.875.548-1.422.547-.548 1.423-.548h6.716v-14.352q0-.875.548-1.422.547-.548 1.423-.548h4.004q.874 0 1.423.548.547.547.547 1.422v14.352h10.685q.875 0 1.422.548.548.548.548 1.422v2.926q0 .876-.548 1.423-.548.548-1.422.548h-10.685v22.083q0 4.07 1.391 6.381 1.39 2.311 4.887 2.311h5.233q.876 0 1.423.548.548.547.548 1.423v3.087q0 .876-.548 1.423-.547.548-1.423.548zm31.671.859q-4.79 0-8.22-1.211-3.431-1.21-5.614-2.934-2.182-1.723-3.226-3.445-1.045-1.72-1.131-2.74-.086-.945.594-1.458.678-.513 1.329-.513h3.848q.435 0 .766.14.33.14.835.767a36 36 0 0 0 2.473 2.406q1.355 1.203 3.39 1.943 2.035.741 5.069.741 4.316 0 7.159-1.669t2.843-4.924q0-2.099-1.17-3.399-1.171-1.3-4.1-2.327-2.928-1.028-8.131-2.15-5.139-1.192-8.153-2.964t-4.279-4.239-1.265-5.538q0-3.135 1.864-6.102 1.863-2.967 5.53-4.87 3.666-1.903 9.175-1.903 4.42 0 7.6 1.133 3.181 1.132 5.257 2.778t3.098 3.305q1.022 1.66 1.108 2.765.087.875-.515 1.423a1.98 1.98 0 0 1-1.375.547h-3.592q-.59 0-.987-.244a2.6 2.6 0 0 1-.709-.663 26 26 0 0 0-2.078-2.215q-1.154-1.098-2.972-1.812-1.817-.714-4.851-.714-4.3 0-6.43 1.783t-2.129 4.547q0 1.665.934 2.937.935 1.273 3.609 2.32t7.909 2.222q5.626 1.139 8.902 3.004 3.275 1.867 4.655 4.384t1.38 5.718q0 3.646-2.094 6.647t-6.207 4.763-10.099 1.761"
    style="fill:#4c566b;fill-rule:nonzero"
  />
  <path
    d="M535.45 238.145c.125-35.92 29.326-65.044 65.275-65.044s65.15 29.124 65.275 65.044h-31.315c-.125-18.637-15.294-33.729-33.96-33.729s-33.835 15.092-33.96 33.729z"
    style="fill:#86c0d1"
  />
  <path
    d="M509.279 238.145v.232c0 36.026-29.249 65.275-65.275 65.275s-65.276-29.249-65.276-65.275l.001-.232h31.315l-.001.232c0 18.743 15.217 33.961 33.961 33.961 18.743 0 33.961-15.218 33.961-33.961l-.001-.232zm-287.279 0c.125-35.92 29.326-65.044 65.275-65.044s65.15 29.124 65.275 65.044h-31.315c-.125-18.637-15.294-33.729-33.96-33.729s-33.835 15.092-33.96 33.729z"
    style="fill:#80a0c2"
  />
</svg>
