<svg
  xml:space="preserve"
  style="fill-rule:evenodd;clip-rule:evenodd;stroke-linejoin:round;stroke-miterlimit:2"
  viewBox="0 0 444 131"
  xmlns="http://www.w3.org/2000/svg"
>
  <path
    d="M313.45 65.069C313.575 29.135 342.776 0 378.725 0S443.875 29.135 444 65.069h-31.315c-.125-18.645-15.294-33.743-33.96-33.743s-33.835 15.098-33.96 33.743z"
    style="fill:#86c0d1"
  />
  <path
    d="M287.279 65.069v.231c0 36.04-29.249 65.3-65.275 65.3s-65.276-29.26-65.276-65.3l.001-.231h31.315l-.001.231c0 18.751 15.217 33.974 33.961 33.974 18.743 0 33.961-15.223 33.961-33.974l-.001-.231zM0 65.069C.125 29.135 29.326 0 65.275 0s65.15 29.135 65.275 65.069H99.235c-.125-18.645-15.294-33.743-33.96-33.743S31.44 46.424 31.315 65.069z"
    style="fill:#80a0c2"
  />
</svg>
