<svg
  xml:space="preserve"
  style="fill-rule:evenodd;clip-rule:evenodd;stroke-linejoin:round;stroke-miterlimit:2"
  viewBox="0 0 278 82"
  xmlns="http://www.w3.org/2000/svg"
>
  <path d="M0 0h277.5v81.625H0z" style="fill:#2e3440" />
  <path
    d="M184.475 40.697c.062-17.967 14.663-32.534 32.637-32.534 17.975 0 32.576 14.567 32.638 32.534h-15.657c-.063-9.322-7.647-16.871-16.981-16.871-9.333 0-16.917 7.549-16.98 16.871z"
    style="fill:#86c0d1"
  />
  <path
    d="m171.389 40.697.001.116c0 18.02-14.625 32.65-32.638 32.65s-32.638-14.63-32.638-32.65v-.116h15.658l-.001.116c0 9.375 7.609 16.986 16.981 16.986s16.98-7.611 16.98-16.986v-.116zm-143.639 0C27.812 22.73 42.413 8.163 60.388 8.163S92.963 22.73 93.025 40.697H77.368c-.063-9.322-7.647-16.871-16.98-16.871S43.47 31.375 43.407 40.697z"
    style="fill:#80a0c2"
  />
</svg>
