<svg clip-rule="evenodd" fill-rule="evenodd" stroke-miterlimit="10" viewBox="0 0 888 600" xmlns="http://www.w3.org/2000/svg">
  <path d="m0 0h888v600h-888z" fill="none" />
  <path d="m144 231.066h137.869v137.869h-137.869z" fill="none" stroke="#2e3440" stroke-width="1.45" />
  <path
    d="m218.029 326.518 25.301-51.616h2.439l25.3 51.616h-2.133l-24.386-49.788-24.387 49.788zm-11.613 0-51.617-25.3v-2.438l51.617-25.3v2.133l-49.788 24.387 49.788 24.386z"
    fill="#2e3440"
    fill-rule="nonzero"
  />
  <path
    d="m476.684 281.902h-12.703v35.328h-2.299v-35.328h-13.118v-1.985l26.756-.001h1.831.782l13.484 19.754 13.534-19.754h2.561l-14.999 21.688v15.626h-2.299v-15.626zm-113.867 17.037v18.291h-1.986v-7.944h-.104c-1.829 5.435-7.526 8.832-14.11 8.832-11.288 0-17.56-8.623-17.56-19.336 0-10.557 6.376-19.755 17.612-19.755 7.683 0 14.215 4.651 15.522 12.438h-2.195c-1.724-6.427-6.481-10.452-13.275-10.452-10.086 0-15.364 8.466-15.364 17.769 0 9.51 5.121 17.35 15.364 17.35 8.885 0 14.477-6.063 14.11-15.208h-13.744v-1.985zm6.32-19.023h2.299v37.314h-2.299zm4.859 1.986v-1.985h28.587v1.985h-13.17v35.328h-2.3v-35.328zm70.026 8.674c-.262-6.375-5.069-9.563-11.968-9.563-4.233 0-10.243 1.777-10.243 7.944 0 6.009 6.376 7.002 12.699 8.309 6.376 1.307 12.752 2.927 12.752 10.348 0 7.734-7.421 10.504-13.117 10.504-8.727 0-15.835-3.606-15.731-13.222h2.299c-.47 8.152 6.063 11.236 13.431 11.236 4.494 0 10.818-2.038 10.818-8.518 0-6.324-6.376-7.421-12.752-8.728-6.323-1.306-12.699-2.822-12.699-9.929 0-7.16 6.637-9.93 12.543-9.93 7.787 0 13.901 3.344 14.266 11.549zm65.682-10.66h2.299v35.328h21.166v1.986h-23.465zm51.474 35.328v1.986h-25.346v-37.314h25.085v1.986h-22.785v14.946h21.427v1.985h-21.427v16.41zm50.847-16.305v18.291h-1.985v-7.944h-.105c-1.83 5.435-7.526 8.832-14.11 8.832-11.29 0-17.561-8.623-17.561-19.336 0-10.557 6.376-19.755 17.614-19.755 7.681 0 14.213 4.651 15.52 12.438h-2.194c-1.725-6.427-6.481-10.452-13.275-10.452-10.085 0-15.365 8.466-15.365 17.769 0 9.51 5.122 17.35 15.365 17.35 8.885 0 14.477-6.063 14.111-15.208h-13.744v-1.985zm8.619-19.023v22.367c0 4.494.941 13.849 11.706 13.849 9.147 0 12.23-5.383 12.23-13.849v-22.367h2.299v22.367c0 8.884-3.344 15.834-14.529 15.834-13.274 0-14.005-10.87-14.005-15.834v-22.367zm32.816 0h2.301v37.314h-2.301zm8.884 0h12.229c13.326 0 17.246 9.145 17.246 18.604 0 10.557-5.382 18.71-17.349 18.71h-12.126zm2.301 35.328h10.033c6.95 0 14.841-3.815 14.841-16.724 0-15.259-9.772-16.618-15.312-16.618h-9.562zm57.9 0v1.986h-25.347v-37.314h25.086v1.986h-22.786v14.946h21.426v1.985h-21.426v16.41z"
    fill="#2e3440"
  />
  <path d="m307.271 242.913h436.729m-436.729 114.173h436.729" fill="none" stroke="#2e3440" stroke-width="1.45" />
</svg>
