<svg clip-rule="evenodd" fill-rule="evenodd" stroke-miterlimit="1.5" viewBox="0 0 800 600" xmlns="http://www.w3.org/2000/svg">
  <g fill="none">
    <path d="m0 0h800v600h-800z" />
    <g stroke="#4c566a" stroke-width="2">
      <path d="m100 232.952h169.243v169.243h-169.243z" />
      <g stroke-linecap="square" stroke-linejoin="round">
        <path d="m294.486 390.88h405.514" />
        <path d="m294.486 244.267h405.514" />
      </g>
    </g>
  </g>
  <g fill="#4c566a" fill-rule="nonzero">
    <path
      d="m191.083 351.834 32.094-65.475h3.095l32.094 65.475h-2.707l-30.934-63.155-30.935 63.155zm-14.729 0-65.477-32.094v-3.093l65.477-32.092v2.706l-63.157 30.933 63.157 30.934z"
    />
    <path d="m343.009 363.059v2.284h-23.257v-34.906h22.814v2.285h-20.313v13.698h17.745v2.176h-17.745v14.463z" />
    <path
      d="m369.656 336.252c-.558-.624-1.178-1.172-1.861-1.643-.683-.472-1.421-.866-2.213-1.183-.791-.317-1.643-.559-2.555-.726s-1.892-.251-2.941-.251c-3.402 0-5.884.65-7.446 1.95s-2.343 3.045-2.343 5.237c0 1.483.355 2.654 1.066 3.512.71.859 1.818 1.549 3.325 2.072s3.447 1.039 5.819 1.55c2.517.524 4.697 1.14 6.54 1.848s3.263 1.666 4.259 2.873 1.495 2.85 1.495 4.929c0 1.525-.297 2.866-.891 4.021-.593 1.156-1.441 2.117-2.542 2.884-1.101.766-2.418 1.342-3.949 1.728s-3.225.579-5.083.579c-1.825 0-3.554-.193-5.187-.579s-3.166-.962-4.601-1.729c-1.434-.767-2.788-1.728-4.063-2.883l1.345-2.005c.726.758 1.539 1.44 2.439 2.045.899.604 1.882 1.127 2.947 1.568s2.202.777 3.411 1.01 2.469.349 3.78.349c3.04 0 5.427-.565 7.161-1.695 1.733-1.13 2.6-2.802 2.6-5.016 0-1.549-.399-2.794-1.196-3.736-.798-.942-2.01-1.717-3.637-2.324s-3.668-1.172-6.124-1.697c-2.47-.535-4.562-1.127-6.278-1.777-1.716-.649-3.013-1.534-3.889-2.654s-1.314-2.625-1.314-4.515c0-2.119.518-3.907 1.554-5.365s2.486-2.562 4.35-3.312 4.011-1.125 6.44-1.125c1.519 0 2.921.15 4.208.45 1.287.301 2.48.75 3.577 1.349s2.119 1.363 3.066 2.293z"
    />
    <path d="m378.944 365.343v-34.906h2.502v32.622h20.842v2.284z" />
    <path d="m407.41 330.437h2.501v34.906h-2.501z" />
    <path d="m420.628 335.11v30.233h-2.501v-34.906h2.061l24.331 30.747v-30.725h2.502v34.884h-2.411z" />
    <path d="m480.653 332.722h-12.787v32.621h-2.502v-32.621h-12.787v-2.285h28.076z" />
    <path
      d="m494.831 347.644c0-2.111.369-4.192 1.107-6.24.737-2.049 1.814-3.917 3.231-5.605 1.416-1.688 3.148-3.036 5.194-4.045 2.047-1.009 4.381-1.513 7.003-1.513 3.114 0 5.767.713 7.959 2.138 2.192 1.426 3.82 3.253 4.883 5.482l-2.063 1.163c-.798-1.603-1.798-2.881-3.001-3.832-1.202-.951-2.491-1.629-3.867-2.035-1.375-.406-2.745-.609-4.107-.609-2.209 0-4.174.439-5.894 1.317s-3.17 2.055-4.351 3.531c-1.181 1.475-2.071 3.116-2.671 4.922-.599 1.805-.899 3.637-.899 5.495 0 2.041.353 3.994 1.06 5.857.707 1.864 1.693 3.518 2.958 4.961 1.264 1.443 2.744 2.587 4.439 3.432 1.695.846 3.53 1.268 5.505 1.268 1.396 0 2.824-.24 4.285-.721 1.462-.481 2.832-1.222 4.111-2.225 1.28-1.002 2.311-2.297 3.094-3.886l2.15 1.027c-.758 1.737-1.891 3.212-3.399 4.425-1.507 1.213-3.178 2.13-5.011 2.753s-3.642.934-5.426.934c-2.375 0-4.558-.516-6.548-1.549-1.99-1.032-3.714-2.408-5.172-4.129-1.459-1.721-2.585-3.655-3.379-5.801-.794-2.147-1.191-4.319-1.191-6.515z"
    />
    <path
      d="m545.092 365.589c-2.422 0-4.632-.496-6.631-1.489-2-.992-3.724-2.328-5.173-4.007-1.45-1.678-2.568-3.575-3.354-5.689-.787-2.114-1.18-4.285-1.18-6.514 0-2.327.413-4.547 1.24-6.661.826-2.114 1.981-3.999 3.463-5.654s3.218-2.966 5.208-3.933c1.991-.967 4.147-1.45 6.47-1.45 2.44 0 4.655.508 6.645 1.524 1.991 1.016 3.702 2.376 5.135 4.08 1.433 1.705 2.543 3.605 3.329 5.703.787 2.098 1.18 4.235 1.18 6.413 0 2.345-.409 4.575-1.229 6.689-.819 2.114-1.97 3.999-3.452 5.654s-3.214 2.958-5.195 3.908c-1.981.951-4.133 1.426-6.456 1.426zm-13.815-17.699c0 1.99.337 3.908 1.012 5.756.674 1.847 1.627 3.493 2.859 4.936s2.695 2.587 4.39 3.432c1.695.846 3.553 1.268 5.576 1.268 2.088 0 3.979-.439 5.673-1.317 1.695-.878 3.145-2.055 4.352-3.531s2.135-3.129 2.786-4.96c.65-1.831.976-3.692.976-5.584 0-1.989-.342-3.904-1.025-5.744-.684-1.841-1.645-3.486-2.884-4.936-1.24-1.451-2.699-2.595-4.377-3.433s-3.512-1.257-5.501-1.257c-2.088 0-3.984.435-5.688 1.306s-3.159 2.044-4.365 3.52c-1.207 1.476-2.139 3.126-2.797 4.95s-.987 3.689-.987 5.594z"
    />
    <path d="m570.87 335.11v30.233h-2.501v-34.906h2.06l24.332 30.747v-30.725h2.501v34.884h-2.41z" />
    <path d="m606.52 365.343v-34.906h22.728v2.285h-20.227v13.822h17.166v2.177h-17.166v16.622z" />
    <path d="m636.116 330.437h2.501v34.906h-2.501z" />
    <path
      d="m660.817 365.589c-2.367 0-4.552-.504-6.553-1.513-2.002-1.009-3.735-2.362-5.201-4.059-1.465-1.698-2.603-3.598-3.413-5.703-.811-2.105-1.216-4.261-1.216-6.467 0-2.305.396-4.514 1.188-6.628s1.908-4 3.348-5.657 3.138-2.967 5.094-3.928c1.955-.962 4.096-1.442 6.424-1.442 3.503 0 6.321.709 8.453 2.127 2.132 1.419 3.755 3.25 4.87 5.493l-2.019 1.206c-1.181-2.27-2.753-3.924-4.715-4.962-1.962-1.039-4.173-1.558-6.633-1.558-2.063 0-3.925.432-5.587 1.296s-3.082 2.03-4.261 3.498c-1.179 1.469-2.08 3.118-2.703 4.95-.624 1.831-.935 3.714-.935 5.648 0 2.052.358 4.001 1.074 5.849.716 1.847 1.714 3.489 2.993 4.925 1.279 1.435 2.766 2.564 4.461 3.386 1.695.821 3.522 1.232 5.483 1.232 2.237 0 4.358-.549 6.362-1.648 2.004-1.098 3.928-2.824 5.772-5.178v2.786c-3.476 4.231-7.571 6.347-12.286 6.347zm11.718-15.185h-7.906v-2.025h10.104v16.964h-2.198z"
    />
    <path
      d="m385.746 275.569c-.558-.623-1.179-1.171-1.862-1.643-.683-.471-1.42-.866-2.212-1.182-.792-.317-1.644-.559-2.556-.726-.912-.168-1.892-.251-2.941-.251-3.402 0-5.884.65-7.446 1.949-1.562 1.3-2.343 3.046-2.343 5.237 0 1.484.356 2.655 1.066 3.513s1.819 1.549 3.326 2.072 3.446 1.039 5.818 1.549c2.517.525 4.697 1.141 6.54 1.849s3.263 1.665 4.259 2.872c.997 1.207 1.495 2.85 1.495 4.93 0 1.525-.297 2.865-.89 4.021-.594 1.156-1.441 2.117-2.543 2.883-1.101.767-2.417 1.343-3.948 1.729-1.532.386-3.226.579-5.083.579-1.826 0-3.555-.193-5.187-.579-1.633-.386-3.167-.963-4.601-1.729-1.435-.767-2.789-1.728-4.063-2.883l1.344-2.006c.726.759 1.539 1.44 2.439 2.045s1.882 1.128 2.947 1.568c1.066.441 2.203.778 3.411 1.011 1.209.232 2.469.349 3.78.349 3.041 0 5.428-.565 7.161-1.696 1.734-1.13 2.6-2.802 2.6-5.015 0-1.549-.398-2.795-1.196-3.737s-2.01-1.716-3.637-2.323c-1.626-.607-3.668-1.173-6.124-1.697-2.469-.535-4.562-1.128-6.278-1.777-1.716-.65-3.012-1.535-3.889-2.654-.876-1.12-1.314-2.625-1.314-4.515 0-2.119.518-3.908 1.554-5.366s2.486-2.562 4.35-3.312 4.011-1.125 6.441-1.125c1.518 0 2.921.15 4.208.451 1.287.3 2.479.75 3.576 1.349 1.098.599 2.12 1.363 3.066 2.292z"
    />
    <path d="m393.06 269.755 13.311 31.768 13.263-31.768h2.664l-14.735 34.906h-2.383l-14.758-34.906z" />
    <path d="m450.836 302.376v2.285h-23.256v-34.906h22.814v2.285h-20.313v13.698h17.745v2.176h-17.745v14.462z" />
    <path d="m460.414 274.428v30.233h-2.501v-34.906h2.06l24.331 30.747v-30.725h2.502v34.884h-2.41z" />
    <path
      d="m522.879 304.907c-2.368 0-4.552-.505-6.553-1.514-2.002-1.009-3.735-2.362-5.201-4.059s-2.603-3.598-3.414-5.703c-.81-2.104-1.215-4.26-1.215-6.466 0-2.305.396-4.515 1.188-6.629s1.908-3.999 3.348-5.657c1.44-1.657 3.138-2.966 5.094-3.928 1.955-.961 4.096-1.442 6.423-1.442 3.504 0 6.322.709 8.454 2.128s3.755 3.249 4.87 5.492l-2.019 1.206c-1.181-2.27-2.753-3.924-4.715-4.962s-4.173-1.557-6.633-1.557c-2.063 0-3.926.432-5.587 1.296-1.662.863-3.082 2.029-4.261 3.498-1.179 1.468-2.08 3.118-2.704 4.949-.623 1.831-.934 3.714-.934 5.649 0 2.051.358 4.001 1.074 5.848.716 1.848 1.714 3.489 2.993 4.925s2.766 2.564 4.461 3.386c1.694.822 3.522 1.233 5.483 1.233 2.237 0 4.357-.55 6.362-1.648 2.004-1.099 3.928-2.825 5.772-5.178v2.786c-3.476 4.231-7.572 6.347-12.286 6.347zm11.718-15.186h-7.906v-2.025h10.104v16.965h-2.198z"
    />
    <path
      d="m544.292 304.661v-34.906h14.533c1.486 0 2.845.31 4.078.931 1.232.621 2.3 1.45 3.205 2.488s1.61 2.197 2.116 3.479c.507 1.281.76 2.592.76 3.932 0 1.716-.345 3.327-1.033 4.833-.689 1.507-1.647 2.768-2.873 3.784s-2.659 1.647-4.298 1.894l8.675 13.565h-2.872l-8.459-13.196h-11.33v13.196zm2.502-15.481h12.246c1.524 0 2.837-.409 3.94-1.228 1.102-.818 1.958-1.885 2.567-3.201s.913-2.704.913-4.166c0-1.512-.35-2.918-1.049-4.217-.7-1.3-1.635-2.346-2.806-3.139-1.17-.793-2.466-1.189-3.888-1.189h-11.923z"
    />
    <path d="m599.111 302.376v2.285h-23.256v-34.906h22.814v2.285h-20.313v13.698h17.745v2.176h-17.745v14.462z" />
    <path
      d="m631.911 295.636c0 1.693-.422 3.221-1.267 4.583-.844 1.362-1.976 2.443-3.396 3.242-1.42.8-2.99 1.2-4.711 1.2h-16.348v-34.906h16.283c1.638 0 3.056.434 4.252 1.303 1.196.868 2.114 1.983 2.753 3.343s.959 2.778.959 4.253c0 1.741-.444 3.352-1.331 4.834s-2.115 2.575-3.684 3.277c2 .59 3.581 1.698 4.745 3.325 1.163 1.626 1.745 3.475 1.745 5.546zm-2.524-.347c0-1.264-.283-2.438-.85-3.521-.567-1.082-1.339-1.962-2.316-2.638s-2.09-1.014-3.34-1.014h-14.191v14.303h13.847c1.283 0 2.441-.343 3.474-1.028 1.034-.685 1.855-1.57 2.463-2.655.609-1.084.913-2.233.913-3.447zm-20.697-23.292v13.986h12.814c1.269 0 2.382-.335 3.341-1.006s1.717-1.541 2.274-2.609c.558-1.068.836-2.19.836-3.367 0-1.28-.262-2.445-.787-3.497-.524-1.051-1.249-1.899-2.175-2.542-.926-.644-1.991-.965-3.194-.965z"
    />
  </g>
</svg>
