<svg
  xml:space="preserve"
  style="fill-rule:evenodd;clip-rule:evenodd;stroke-linejoin:round;stroke-miterlimit:2"
  viewBox="0 0 278 145"
  xmlns="http://www.w3.org/2000/svg"
>
  <path
    d="M32.097 144.106q-.438 0-.712-.269-.273-.27-.273-.716V115.06q0-.472.273-.747.274-.273.712-.273h2.206q.473 0 .746.273.274.275.274.747v11.882h14.776V115.06q0-.472.274-.747.274-.273.712-.273h2.206q.472 0 .747.273.273.275.273.747v28.061q0 .438-.273.712-.275.273-.747.273h-2.206q-.438 0-.712-.273-.273-.274-.274-.712v-12.314H35.323v12.314q0 .438-.274.712-.273.273-.746.273zm38.26.43q-3.254 0-5.454-1.248a8.4 8.4 0 0 1-3.36-3.466q-1.16-2.217-1.27-5.039a33 33 0 0 1-.042-1.848q0-1.14.042-1.84.111-2.865 1.29-5.061a8.54 8.54 0 0 1 3.38-3.444q2.2-1.248 5.414-1.248t5.413 1.248a8.54 8.54 0 0 1 3.38 3.444q1.179 2.196 1.29 5.061.051.7.051 1.84t-.051 1.848q-.11 2.822-1.27 5.039a8.4 8.4 0 0 1-3.36 3.466q-2.2 1.248-5.453 1.248m0-3.313q2.676 0 4.268-1.703t1.713-4.952q.043-.643.043-1.629 0-.985-.043-1.63-.121-3.267-1.713-4.961t-4.268-1.694q-2.669 0-4.265 1.694-1.597 1.694-1.717 4.961-.043.645-.043 1.63 0 .986.043 1.629.12 3.249 1.717 4.952t4.265 1.703m16.496 2.883q-.438 0-.712-.273-.273-.274-.273-.712v-20.365q0-.437.273-.711.274-.274.712-.274h1.922q.438 0 .711.274.274.274.274.711v1.488a7.7 7.7 0 0 1 2.508-2.094q1.497-.793 3.602-.808 4.86-.033 6.857 3.941.987-1.784 2.879-2.862 1.891-1.08 4.286-1.079 2.26 0 4.077 1.04t2.874 3.11q1.056 2.07 1.057 5.219v12.41q0 .438-.274.712t-.712.273h-2.01q-.438 0-.712-.273-.274-.274-.274-.712V131.1q0-2.432-.703-3.795-.704-1.362-1.854-1.93a5.6 5.6 0 0 0-2.511-.568q-1.143 0-2.298.568t-1.906 1.93q-.752 1.363-.752 3.795v12.021q0 .438-.274.712-.273.273-.711.273h-2.011q-.437 0-.711-.273-.274-.274-.274-.712V131.1q0-2.432-.738-3.795t-1.889-1.93a5.45 5.45 0 0 0-2.441-.568q-1.144 0-2.298.572t-1.911 1.93q-.756 1.359-.756 3.756v12.056q0 .438-.273.712-.274.273-.712.273zm46.112.43q-4.44 0-7.054-2.736-2.613-2.735-2.892-7.457-.036-.54-.035-1.428 0-.89.035-1.42.19-3.066 1.419-5.356 1.228-2.29 3.397-3.544 2.169-1.253 5.122-1.253 3.232 0 5.45 1.383t3.387 3.904q1.171 2.52 1.171 5.907v.765a.93.93 0 0 1-.291.712 1.03 1.03 0 0 1-.729.273H127.12v.39q.07 1.732.761 3.253t1.986 2.469q1.294.946 3.082.946 1.549 0 2.58-.47 1.03-.47 1.66-1.047.63-.576.844-.896.387-.526.61-.634t.703-.107h2.081q.394 0 .673.24.28.24.237.635-.043.642-.682 1.57-.639.93-1.83 1.829-1.19.898-2.927 1.485t-3.933.587m-5.845-13.211h11.743v-.147q0-1.923-.699-3.431-.7-1.51-2.029-2.381-1.328-.873-3.178-.873t-3.161.873q-1.312.872-1.994 2.381t-.682 3.431zm33.037 12.781q-.438 0-.712-.273-.274-.274-.274-.712V115.06q0-.472.274-.747.274-.273.712-.273h9.753q4.455 0 7.146 1.335 2.69 1.336 3.938 3.938 1.248 2.604 1.307 6.364.051 1.916.051 3.383 0 1.465-.051 3.366-.102 3.968-1.312 6.557-1.212 2.59-3.854 3.856t-7.011 1.267zm3.226-3.663h6.527q2.969 0 4.732-.819t2.568-2.622q.804-1.803.847-4.75.05-1.28.055-2.251t0-1.928a63 63 0 0 0-.055-2.221q-.086-4.177-1.993-6.163t-6.369-1.986h-6.312zm33.973 4.093q-3.254 0-5.454-1.248a8.4 8.4 0 0 1-3.359-3.466q-1.16-2.217-1.27-5.039a32 32 0 0 1-.043-1.848q0-1.14.043-1.84.11-2.865 1.29-5.061a8.53 8.53 0 0 1 3.38-3.444q2.2-1.248 5.413-1.248t5.413 1.248a8.53 8.53 0 0 1 3.38 3.444q1.18 2.196 1.29 5.061.051.7.051 1.84t-.051 1.848q-.11 2.822-1.27 5.039a8.4 8.4 0 0 1-3.359 3.466q-2.2 1.248-5.454 1.248m0-3.313q2.676 0 4.268-1.703 1.593-1.703 1.713-4.952.043-.643.043-1.629 0-.985-.043-1.63-.12-3.267-1.713-4.961t-4.268-1.694q-2.668 0-4.265 1.694t-1.717 4.961q-.043.645-.043 1.63 0 .986.043 1.629.121 3.249 1.717 4.952t4.265 1.703m23.997 2.883q-2.394 0-3.897-.924-1.502-.925-2.182-2.63-.681-1.704-.681-4.005v-11.342h-3.358q-.438 0-.712-.274t-.273-.712v-1.463q0-.437.273-.711.274-.274.712-.274h3.358v-7.176q0-.436.274-.711t.711-.274h2.002q.438 0 .712.274.273.275.274.711v7.176h5.342q.438 0 .711.274.274.274.274.711v1.463q0 .438-.274.712-.273.274-.711.274h-5.342v11.041q0 2.035.695 3.191t2.444 1.155h2.616q.438 0 .712.274t.274.712v1.543q0 .438-.274.712t-.712.273zm15.836.43q-2.395 0-4.11-.605-1.716-.606-2.807-1.467t-1.614-1.723q-.522-.86-.565-1.37-.042-.472.297-.729.34-.256.664-.256h1.925q.216 0 .382.07t.418.383q.559.602 1.236 1.203.678.601 1.696.972 1.017.37 2.534.37 2.158 0 3.58-.835 1.42-.834 1.421-2.461 0-1.05-.585-1.7t-2.05-1.163q-1.464-.514-4.065-1.075-2.57-.597-4.077-1.482-1.507-.886-2.139-2.12-.633-1.233-.633-2.769 0-1.567.932-3.051.932-1.483 2.765-2.435 1.833-.951 4.588-.951 2.209 0 3.8.566 1.59.567 2.628 1.389t1.549 1.653q.512.829.554 1.382.043.438-.257.712a1 1 0 0 1-.688.273h-1.796a.9.9 0 0 1-.494-.122 1.3 1.3 0 0 1-.354-.331 13 13 0 0 0-1.039-1.108q-.577-.549-1.486-.906t-2.425-.357q-2.15 0-3.215.892-1.065.891-1.065 2.273 0 .833.467 1.469t1.804 1.159q1.338.524 3.955 1.112 2.814.569 4.451 1.502 1.638.933 2.328 2.192.689 1.258.689 2.859a5.68 5.68 0 0 1-1.047 3.323q-1.047 1.501-3.103 2.381t-5.049.881"
    style="fill:#4c566b;fill-rule:nonzero"
  />
  <path d="M0 0h277.5v81.625H0z" style="fill:#2e3440" />
  <path
    d="M184.475 40.697c.062-17.967 14.663-32.535 32.637-32.535 17.975 0 32.576 14.568 32.638 32.535h-15.657c-.063-9.322-7.647-16.871-16.981-16.871-9.333 0-16.917 7.549-16.98 16.871z"
    style="fill:#86c0d1"
  />
  <path
    d="m171.389 40.697.001.115c0 18.021-14.625 32.65-32.638 32.65s-32.638-14.629-32.638-32.65v-.115h15.658l-.001.115c0 9.376 7.609 16.987 16.981 16.987s16.98-7.611 16.98-16.987v-.115zm-143.639 0C27.812 22.73 42.413 8.162 60.388 8.162S92.963 22.73 93.025 40.697H77.368c-.063-9.322-7.647-16.871-16.98-16.871S43.47 31.375 43.407 40.697z"
    style="fill:#80a0c2"
  />
</svg>
