<svg
  xml:space="preserve"
  style="fill-rule:evenodd;clip-rule:evenodd;stroke-linejoin:round;stroke-miterlimit:2"
  viewBox="0 0 278 145"
  xmlns="http://www.w3.org/2000/svg"
>
  <path
    d="M32.097 144.129q-.438 0-.712-.27t-.273-.715v-28.062q0-.472.273-.746.274-.274.712-.274h2.206q.473 0 .746.274.274.274.274.746v11.882h14.776v-11.882q0-.472.274-.746t.712-.274h2.206q.472 0 .747.274.273.274.273.746v28.062q0 .437-.273.711-.275.274-.747.274h-2.206q-.438 0-.712-.274t-.274-.711V130.83H35.323v12.314q0 .437-.274.711-.273.274-.746.274zm38.26.43q-3.254 0-5.454-1.249a8.37 8.37 0 0 1-3.36-3.466q-1.16-2.217-1.27-5.038a33 33 0 0 1-.042-1.849q0-1.139.042-1.84.111-2.864 1.29-5.06a8.55 8.55 0 0 1 3.38-3.445q2.2-1.248 5.414-1.248t5.413 1.248a8.55 8.55 0 0 1 3.38 3.445q1.179 2.196 1.29 5.06.051.701.051 1.84t-.051 1.849q-.11 2.821-1.27 5.038a8.37 8.37 0 0 1-3.36 3.466q-2.2 1.249-5.453 1.249m0-3.313q2.676 0 4.268-1.704t1.713-4.951q.043-.645.043-1.63 0-.986-.043-1.629-.121-3.267-1.713-4.961t-4.268-1.694q-2.669 0-4.265 1.694-1.597 1.694-1.717 4.961-.043.643-.043 1.629 0 .985.043 1.63.12 3.248 1.717 4.951 1.596 1.704 4.265 1.704m16.496 2.883q-.438 0-.712-.274t-.273-.711v-20.365q0-.438.273-.712.274-.273.712-.273h1.922q.438 0 .711.273.274.274.274.712v1.487a7.7 7.7 0 0 1 2.508-2.094q1.497-.792 3.602-.808 4.86-.032 6.857 3.941.987-1.782 2.879-2.862 1.891-1.079 4.286-1.079 2.26 0 4.077 1.04t2.874 3.11q1.056 2.07 1.057 5.219v12.411q0 .437-.274.711t-.712.274h-2.01q-.438 0-.712-.274t-.274-.711v-12.022q0-2.432-.703-3.794-.704-1.363-1.854-1.93a5.6 5.6 0 0 0-2.511-.568q-1.143 0-2.298.568-1.155.567-1.906 1.93-.752 1.362-.752 3.794v12.022q0 .437-.274.711-.273.274-.711.274h-2.011q-.437 0-.711-.274t-.274-.711v-12.022q0-2.432-.738-3.794t-1.889-1.93a5.44 5.44 0 0 0-2.441-.568q-1.144 0-2.298.572-1.155.571-1.911 1.93-.756 1.357-.756 3.756v12.056q0 .437-.273.711-.274.274-.712.274zm46.112.43q-4.44 0-7.054-2.736t-2.892-7.458a23 23 0 0 1-.035-1.428q0-.889.035-1.42.19-3.066 1.419-5.356 1.228-2.289 3.397-3.543t5.122-1.254q3.232 0 5.45 1.384 2.217 1.385 3.387 3.903 1.171 2.52 1.171 5.908v.765a.93.93 0 0 1-.291.711 1.02 1.02 0 0 1-.729.274H127.12v.389q.07 1.732.761 3.254a6.15 6.15 0 0 0 1.986 2.468q1.294.947 3.082.947 1.549 0 2.58-.47 1.03-.47 1.66-1.047t.844-.897q.387-.526.61-.633.223-.108.703-.108h2.081q.394 0 .673.241.28.24.237.634-.043.642-.682 1.571t-1.83 1.828q-1.19.9-2.927 1.486-1.737.587-3.933.587m-5.845-13.211h11.743v-.148q0-1.922-.699-3.431-.7-1.508-2.029-2.381t-3.178-.872q-1.85 0-3.161.872-1.312.873-1.994 2.381-.682 1.51-.682 3.431zm33.037 12.781q-.438 0-.712-.274t-.274-.711v-28.062q0-.472.274-.746t.712-.274h9.753q4.455 0 7.146 1.336 2.69 1.335 3.938 3.938 1.248 2.602 1.307 6.364.051 1.916.051 3.382 0 1.465-.051 3.367-.102 3.967-1.312 6.557-1.212 2.589-3.854 3.856t-7.011 1.267zm3.226-3.664h6.527q2.969 0 4.732-.819t2.568-2.622q.804-1.802.847-4.75.05-1.28.055-2.251t0-1.927a63 63 0 0 0-.055-2.222q-.086-4.177-1.993-6.163-1.908-1.985-6.369-1.985h-6.312zm33.973 4.094q-3.254 0-5.454-1.249a8.37 8.37 0 0 1-3.359-3.466q-1.16-2.217-1.27-5.038a32 32 0 0 1-.043-1.849q0-1.139.043-1.84.11-2.864 1.29-5.06a8.54 8.54 0 0 1 3.38-3.445q2.2-1.248 5.413-1.248t5.413 1.248a8.54 8.54 0 0 1 3.38 3.445q1.18 2.196 1.29 5.06.051.701.051 1.84t-.051 1.849q-.11 2.821-1.27 5.038a8.37 8.37 0 0 1-3.359 3.466q-2.2 1.249-5.454 1.249m0-3.313q2.676 0 4.268-1.704 1.593-1.703 1.713-4.951.043-.645.043-1.63 0-.986-.043-1.629-.12-3.267-1.713-4.961t-4.268-1.694q-2.668 0-4.265 1.694t-1.717 4.961q-.043.643-.043 1.629 0 .985.043 1.63.121 3.248 1.717 4.951 1.597 1.704 4.265 1.704m23.997 2.883q-2.394 0-3.897-.925-1.502-.924-2.182-2.629-.681-1.705-.681-4.006v-11.342h-3.358q-.438 0-.712-.274-.273-.273-.273-.711v-1.463q0-.438.273-.712.274-.273.712-.273h3.358v-7.176q0-.438.274-.712t.711-.273h2.002q.438 0 .712.273.273.274.274.712v7.176h5.342q.438 0 .711.273.274.274.274.712v1.463q0 .438-.274.711-.273.274-.711.274h-5.342v11.042q0 2.034.695 3.19t2.444 1.156h2.616q.438 0 .712.274.273.273.274.711v1.544q0 .437-.274.711t-.712.274zm15.836.43q-2.395 0-4.11-.606-1.716-.605-2.807-1.467-1.091-.861-1.614-1.722-.522-.861-.565-1.371-.042-.472.297-.728.34-.257.664-.257h1.925q.216 0 .382.07t.418.384q.559.602 1.236 1.203.678.6 1.696.971 1.017.37 2.534.371 2.158 0 3.58-.835 1.42-.835 1.421-2.462 0-1.05-.585-1.699-.585-.65-2.05-1.164t-4.065-1.075q-2.57-.595-4.077-1.482-1.507-.886-2.139-2.119-.633-1.234-.633-2.769 0-1.569.932-3.051.932-1.484 2.765-2.435t4.588-.952q2.209 0 3.8.567 1.59.566 2.628 1.389 1.038.822 1.549 1.652.512.83.554 1.383.043.437-.257.711a1 1 0 0 1-.688.274h-1.796a.93.93 0 0 1-.494-.122 1.3 1.3 0 0 1-.354-.332 13 13 0 0 0-1.039-1.107q-.577-.549-1.486-.906t-2.425-.357q-2.15 0-3.215.891t-1.065 2.274q0 .832.467 1.468t1.804 1.16q1.338.523 3.955 1.111 2.814.57 4.451 1.502 1.638.933 2.328 2.192.689 1.26.689 2.859a5.68 5.68 0 0 1-1.047 3.324q-1.047 1.5-3.103 2.381t-5.049.881"
    style="fill:#4c566b;fill-rule:nonzero"
  />
  <path
    d="M277.5 0v81.65H0V0zM34.504 40.825h14.705c.058-8.759 7.181-15.852 15.947-15.852s15.888 7.093 15.946 15.852h14.705c-.058-16.881-13.77-30.568-30.651-30.568S34.563 23.944 34.504 40.825m147.189 0h14.705c.058-8.759 7.181-15.852 15.946-15.852s15.889 7.093 15.947 15.852h14.705c-.059-16.881-13.771-30.568-30.652-30.568s-30.593 13.687-30.651 30.568m-12.29 0h-14.704v.109c0 8.808-7.146 15.96-15.947 15.96-8.802 0-15.947-7.152-15.947-15.96v-.109H108.1v.109c0 16.931 13.735 30.677 30.652 30.677s30.652-13.746 30.652-30.677z"
    style="fill:#2e3440"
  />
</svg>
