<svg clip-rule="evenodd" fill-rule="evenodd" stroke-linejoin="round" stroke-miterlimit="2" viewBox="0 0 464 512" xmlns="http://www.w3.org/2000/svg">
  <g fill="#2e3440">
    <path d="m244.088 365.293-4.126 11.054-8.442-.692-3.633-11.096z" fill-rule="nonzero" />
    <path
      d="m227.883 364.719c-.833-1.287-1.004-3-2.28-4.597l-.689 14.83-2.375.023-1.589-11.526-2.796 5.305c-4.792-5.551-9.236-10.698-14.368-16.645l-.944-7.186-10.857 3.691 1.393-9.065-7.144.801c-1.209-2.105-3.24-4.031-3.032-5.672.286-2.243 2.067-4.435 3.596-6.339 1.439-1.793 3.384-3.18 5.113-4.708 2.556 5.588 5.117 11.173 7.684 16.756l9.455-3.775c-.229 2.471-.411 4.42-.613 6.614 7.996-2.667 4.445 3.152 5.971 4.545l8.484 6.3 2.715-8.099c1.607 2.611 2.514 4.082 3.435 5.576l4.062-5.6c1.811 3.861 3.193 6.812 5.129 10.937.568-3.984.928-6.522 1.395-9.786 3.342 2.143 5.948 3.816 8.398 5.392.847-2.342 1.692-4.685 2.535-7.028 3.893 1.068 7.191 1.975 10.676 2.932.115-1.588.252-3.5.462-6.38 2.744 2.175 4.8 3.8 8.282 6.558l-3.762-7.345c.322-.303.646-.609.971-.912 2.18 1.559 4.361 3.116 6.855 4.896-.994-8.396 5.035-1.814 7.259-3.819-1.681-2.031-3.151-3.814-4.763-5.762l7.749-2.562c-3.256-2.084-5.194-3.322-7.354-4.703 1.637-.59 2.963-1.064 4.591-1.648-2.315-1.516-4.243-2.605-5.972-3.948-6.84-5.309-13.589-10.735-20.463-15.999-.967-.742-2.406-1.068-3.666-1.188-8.74-.821-17.479-1.649-26.236-2.188-1.854-.115-4.068.521-5.628 1.549-9.302 6.138-18.461 12.494-27.668 18.777-.672.474-1.343.944-2.015 1.417l-5.349-9.142c5.293-1.112 9.51-1.063 12.709-2.841 11.581-6.426 22.939-13.248 34.052-20.453 2.311-1.504 4.311-5.238 4.439-8.038.576-12.589-6.297-21.83-17.896-26.558-4.774-1.945-9.251-4.914-13.385-8.046-3.527-2.674-4.792-6.447-1.384-10.985l7.047 3.95c6.455-7.831 8.335-8.208 17.809-3.929 8.909 4.026 17.715 2.953 26.507-.555 7.438-2.969 10.556-1.674 13.373 5.677 1.313-1.016 2.457-2.03 3.727-2.852 1.236-.799 2.6-1.399 3.986-2.129 4.369 12.993-5.959 19.784-17.518 22.754-12.298 3.16-19.174 10.515-18.717 22.832.1 2.683 1.902 5.964 3.973 7.778 6.141 5.38 12.41 10.819 19.37 15.008 7.87 4.738 16.317 9.079 26.229 6.553l-.207-.166-4.141 9.887c7.396 5.074 8.518 13.157 2.869 27.158-2.059-1.48-4.032-2.893-6.858-4.926 1.74 3.109 3.057 5.467 5.179 9.257l-9.916-3.415v11.676c-3.547-3.989-6.189-6.962-8.834-9.933l-1.45.813c.439 3.945.882 7.89 1.458 13.062l-7.176-4.93-3.162 5.865-3.586-7.1c-.309.018-.621.039-.932.061.215 2.789.234 5.609.697 8.357.455 2.692 1.359 5.304.629 8.483-2.664-3.676-5.328-7.35-9.337-12.872m-3.331-98.756c.709.242 1.416.484 2.125.729 2.007-11.437 4.558-22.52 16.775-27.849-13.972 6.838-27.518 4.587-41.352-.275 13.219 4.458 12.148 17.039 15.028 27.187.557-.223 1.111-.443 1.67-.664l2.453-9.744 1.646.136zm40.729-42.29c-6.364-8.541-10.856-24.182-8.188-29.272 2.746 9.809 5.382 19.24 8.188 29.272zm-78.224-30.613c1.636 9.715-2.716 21.563-9.196 28.485zm107.584-3.796c-1.475 2.487-2.373 6.207-4.539 7.219-5.329 2.489-11.244 3.733-16.924 5.479-.326-.676-.656-1.349-.984-2.022 6.92-3.847 13.841-7.695 20.766-11.543zm-143.907-2.052 18.05 11.41c-.497.671-.994 1.344-1.492 2.014-5.167-5.279-17.501-.891-18.318-12.045zm114.25 7.84c-1.454-1.155-3.544-2.815-6.638-5.277 1.41-4.454 2.164-9.984 4.898-14.257 1.544-2.414 6.654-4.311 9.605-3.713 6.801 1.379 13.315 4.303 19.822 6.913 1.117.449 1.617 2.432 2.402 3.707-1.289.624-2.555 1.307-3.877 1.859-1.752.735-3.553 1.352-5.321 2.051-4.534 1.793-9.071 3.571-13.581 5.417-2.129.873-4.202 1.89-7.31 3.3zm5.601-5.587c1.092.086 2.186.172 3.279.256 2.43-2.995 4.861-5.991 7.295-8.985-2.457-1.771-4.693-4.464-7.416-5.101-4.119-.962-8.206.885-7.757 5.822.254 2.784 2.984 5.345 4.599 8.008zm-86.102 3.261c-10.958-1.734-21.449-.842-28.372-10.754-1.132-1.621-5.724-.832-10.209-1.32 2.117-2.354 3.766-5.903 6.208-6.575 6.551-1.803 13.28-2.884 20.066-3.222 5.998-.291 9.571 3.146 10.016 9.598.258 3.727 1.346 7.397 2.291 12.273zm-8.13-12.042c.451-4.937-3.637-6.784-7.757-5.821-2.721.636-4.96 3.329-7.415 5.101 2.432 2.994 4.864 5.988 7.294 8.985 1.094-.085 2.187-.172 3.281-.256 1.615-2.663 4.344-5.223 4.597-8.009zm-5.986-88.017 6.192.946-7.013-8.957 1.463-1.531c3.369 2.603 6.739 5.205 10.544 8.142l-.705-5.04 10.833 5.212.033-1.119-16.48-18.998c.387-.624.773-1.252 1.16-1.879 3.252 2.4 7.431 4.184 9.539 7.346 3.188 4.779 7.016 7.167 12.443 8.558 4.215 1.081 8.008 3.796 12.773 6.178l-9.335-34.277 13.247 13.293 1.677-.741c-6.133-6.134-9.607-12.801-4.609-22.559l4.091 14.312c.577-.119 1.153-.234 1.731-.35l2.561-15.322 2.02.094c.449 3.777.896 7.552 1.346 11.327l1.752.121c.35-4.143.697-8.285 1.162-13.786 5.863 8.351 4.47 15.314 1.296 22.542 1.965-2.63 3.927-5.261 5.53-7.406.619 5.458 1.705 10.604 1.576 15.72-.064 2.658-2.084 5.372-3.558 7.862-2.512 4.258-2.352 5.447 2.396 8.831l1.586-7.824 2.057-.373 2.371 12.422 35.254-25.677c-2.057 10.099-13.887 13.131-16.557 22.757 4.244-2.445 8.745-5.043 13.25-7.643l1.045 1.278c-.436 1.114-.871 2.23-1.893 4.835l14.001-5.436c-.797 6.397-6.329 7.005-12.052 9.771h10.021c-4.368 5.673-9.149 4.663-13.983 4.554-7.211-.164-14.545-.283-21.614.87-4.179.681-7.948 3.85-13.245 6.599-1.779-1.095-4.739-4.109-8.1-4.647-3.42-.546-7.596.656-10.788 2.337-4.097 2.153-6.617 1.302-10.426-.954-4.079-2.414-9.348-3.097-14.204-3.86-7.273-1.146-14.655-1.65-20.388-7.528zm187.045-24.246c-6.493-.057-13.044.393-19.459-.333-5.126-.577-10.087-2.59-15.121-3.964 7.771.479 15.566.731 23.302 1.534 3.814.395 7.521 1.81 11.278 2.763z"
    />
    <path
      d="m359.403 49.702c.262.052.521.042.771-.031-5.321 4.007-10.623 8.03-15.959 12.009-1.602 1.196-3.299 2.265-4.954 3.392l-2.168-1.834c7.679-4.66 14.994-9.099 22.31-13.536z"
    />
    <path
      d="m359.403 49.702c-2.403.581-4.776 1.374-7.211 1.693-4.805.63-9.637 1.046-14.466 1.455-5.892.499-11.794.901-18.098 1.377-1.768-5.387.301-9.129 8.146-11.098 6.504-1.633 12.061-4.146 14.902-10.967l-36.336 12.725c1.586-4.284 3.008-8.124 4.98-13.441l-19.162 11.979v-17.913c-3.678 6.394-6.93 12.04-10.312 17.918-5.354-8.665 4.431-15.253 3.267-23.256-2.761 3.594-5.217 6.785-7.668 9.975 2.513-5.961 5.028-11.923 7.543-17.883l2.703.795c-1.285 7.255-2.57 14.513-3.853 21.742 5.856-6.805 9.368-17.007 21.978-17.836-8.623 5.866-13.34 12.688-13.043 22.044 5.79-2.717 11.564-4.628 16.307-7.986 2.408-1.702 3.139-5.954 4.299-9.172 1.516-4.201 2.709-8.518 4.935-12.499-1.262 11.016 4.19 24.151-11.302 30.653.832.432 1.666.865 2.496 1.298l43.398-14.582c-5.203 5.239-9.393 10.672-14.739 14.484-5.017 3.573-11.255 5.432-16.487 9.185 13.806-.148 27.555 2.918 40.332-4.24 4.537-2.544 10.144-3.191 15.482-3.857-5.776 2.456-11.553 4.915-17.32 7.376-.251.073-.515.083-.771.031zm-85.949-18.403c-1.346 4.506-2.691 9.011-4.061 13.587-7.517-4.522-10.141-11.028-7.538-19.643 1.627-5.393 1.047-9.622-4.226-12.811 1.518 7.116 1.518 7.116-4.313 22.106-7.739-4.733-2.43-18.365-14.416-19.813.645 7.341 4.753 15.241-.637 23.527-2.026-5.749-4.054-11.498-6.083-17.246l6.474 8.672c2.174-10.27-8.219-19.296-1.385-29.678-1.457 9.22 4.914 13.028 10.345 18.047 2.649 2.449 2.71 7.694 4.185 12.451 4.178-5.018 7.404-9.42 3.941-15.865-2.629-4.889-1.07-9.065 1.648-11.639 1.609 3.468 3.613 6.912 4.81 10.619 1.102 3.414 2.719 7.591 1.668 10.579-2.354 6.699-1.104 11.919 3.595 17.243 2.075-3.504 4.034-6.82 5.993-10.136z"
    />
    <path
      d="m232.385 21.238c-.614 1.189-1.902 2.489-1.732 3.554 1.113 6.944-.619 12.936-5.298 18.583-.832-5.166-.431-10.578-2.691-14.438-2.206-3.768-7.132-5.947-11.647-8.014 4.377 7.23 8.379 13.896 4.62 22.125-3.15-3.919-5.664-8.423-9.419-11.325-3.91-3.024-9.021-4.499-13.722-6.706-.423 7.026 13.239 9.001 9.276 17.904-4.134-2.214-8.641-4.37-12.854-6.999-2.003-1.249-4.104-3.107-5.014-5.19-2.554-5.859-7.394-7.362-12.738-8.522l5.003 11.418c-3.801-7.724-10.737-10.9-19.157-11.925l.656-2.035c6.152.565 12.398.681 18.421 1.893 2.86.574 6.833 2.71 7.64 5.055 2.414 7.009 8.073 8.641 14.593 10.683-.292-1.038-.258-2.092-.733-2.428-5.452-3.853-8.408-8.44-6.708-15.613.48-2.025-1.769-4.698-1.641-8.114 1.878 2.356 5.019 4.536 5.382 7.106.853 6.036 4.41 8.395 9.503 10.198 3.532 1.252 6.748 3.39 10.288 5.228-.613-7.306-5.924-10.965-12.881-13.788 12.793-3.3 21.638 2.118 25.679 14.972 4.12-7.45 2.28-14-9.029-29.757 8.223 3.938 11.491 9.79 14.203 16.135z"
    />
    <path
      d="m175.974 33.338c3.346 2.984 7.089 5.648 9.868 9.091 1.355 1.677.91 4.801 1.344 7.708-8.303-4.351-15.608-8.175-22.915-12.003-.488.476-.978.95-1.465 1.426 6.52 5.977 7.817 12.823 3.616 22.839-3.556-16.944-19.421-11.549-27.872-19.373.498 6.22.457 6.313 7.598 9.377 6.172 2.646 10.204 6.492 9.385 13.089-19.379-9.614-39.2-16.414-63.484-13.558 5.157.904 8.449 2.209 11.575 1.893 9.172-.93 15.514 2.096 20.663 10.085 2.639 4.098 8.251 6.284 12.629 9.412-8.643 5.797-14.46-3.516-22.424-5.5 2.708 3.372 4.873 6.062 7.698 9.575-3.452 1.343-5.883 2.286-7.353 2.857 5.993 3.69 12.518 7.711 19.043 11.73-.45.807-.899 1.615-1.347 2.422-1.921-.764-3.844-1.527-6.221-2.473v3.77c-3.229-.672-6.244-1.301-10.162-2.115l2.28 5.37c-3.529-.43-6.52-.795-10.254-1.255l6.061 10.6c-9.805 5.445-17.875 3.904-30.882-6.795l2.479 8.562c-1.637.692-3.274 1.385-4.911 2.079l2.456 4.714-14-2.304c-.243.216-.485.433-.727.647 2.613 1.586 5.057 4.036 7.872 4.58 6.647 1.281 13.629 2.927 20.186 2.111 11.079-1.373 21.774-1.652 32.793 2.491-2.204 10.05-11.872 9.144-20.863 12.574 4.395.294 6.719.448 10.537.702l-8.532 5.199 1.604 1.321 23.052-4.772 1.448 2.917c-3.045 2.395-6.089 4.793-9.052 7.126l3.689 1.038.456 1.608c-9.349 3.92-18.698 7.843-28.495 11.95 1.903 11.353-10.866 8.509-15.796 15.071l14.755-2.695 3.535 10.784 6.494-5.35-5.432 22.625c.524.23 1.049.465 1.573.695 1.524-1.62 3.047-3.241 4.569-4.863v11.151l1.176.238c3.294-7.42 6.95-14.703 9.805-22.289 5.571-14.799 17.028-25.276 27.489-36.117 3.139-3.255 5.973-6.739 8.942-10.152 4.021-4.625 8.195-9.154 12.717-13.272 1.19-1.084 3.909-.493 6.269.48-12.235 7.026-17.669 18.629-23.628 30.365-8.804-4.286-7.755 4.961-10.483 8.285-3.763 4.585-4.793 10.963-11.519 13.699-4.895 1.99-9.944 17.412-8.068 22.578 1.956 5.384 1.266 9.908-1.395 14.943-1.526 2.889-.928 6.897-1.285 10.399l1.966.466c1.645-1.24 3.289-2.478 6.451-4.856l-3.063 11.133 1.301.655 4.225-3.799c3.216 15.654 13.207 27.229 21.687 39.646 2.286 3.35 4.561 2.641 7.541 1.014 3.351-1.83 7.013-3.09 10.539-4.6l.772 1.65c-4.558 2.941-9.117 5.883-14.299 9.231-9.217-3.112-10.974-3.007-18.958 2.207l3.071-9.778c-3.272 1.414-5.83 2.521-9.135 3.947l1.877-6.668c-.367-.391-.733-.777-1.1-1.164-3.9 3.996-7.802 7.99-11.704 11.989-.351-.16-.702-.316-1.053-.477l11.076-19.102c-.301-.193-.603-.389-.906-.58-3.879 3.412-7.76 6.826-11.641 10.237l-1.167-.564 5.063-10.676c-2.369 1.063-4.738 2.127-7.106 3.192l-.881-1.061c2.495-2.696 4.988-5.392 8.895-9.61l-10.477 5.09-1.325-1.236c2.996-2.741 5.993-5.484 8.773-8.032-9.42.049-14.835 5.454-24.176 24.481-.451-10.7 4.132-20.896 15.024-33.424-8.297 3.505-12.645 8.651-23.449 27.747.938-12.448 7.668-23.139 22.81-38.424-6.229 1.829-12.46 3.657-20.361 5.978l15.464-11.893c-4.985-5.07-11.475-3.824-17.912-5.21 4.416-1.06 8.833-2.117 15.013-3.601-1.178-6.391-2.185-13.37-3.968-20.144-.321-1.221-4.216-2.727-5.811-2.187-7.521 2.542-14.816 5.75-21.274 8.354.182 2.953.345 4.807.368 6.659.004.33-.509.813-.89.984-10.115 4.502-16.572 13.653-22.272 21.846-6.462 9.288-16.959 13.83-22.962 23.8l3.511 1.02-12.271 31.696 2.237 1.417c2.421-2.165 4.855-4.315 7.259-6.499 6.024-5.47 11.841-11.196 18.167-16.297 2.021-1.629 5.374-1.613 8.117-2.352.705.906 1.408 1.809 2.112 2.711-1.766.863-4.074 1.289-5.194 2.67-3.387 4.188-7.366 8.353-9.196 13.244-3.8 10.149-10.288 17.457-19.181 23.277-5.637 3.692-10.747 8.181-15.362 13.244 7.909-2.942 15.73-6.151 23.75-8.751 7.839-2.535 11.398-12.732 21.937-11.134-5.4 7.661-9.203 16.392-17.06 22.041-8.069 5.796-14.645 12.71-17.844 20.383 12.207-3.346 25.289-6.923 38.369-10.505.531.564 1.063 1.135 1.594 1.703-1.672 2.297-2.944 5.106-5.099 6.79-4.657 3.638-9.726 6.763-14.696 9.989-8.894 5.769-14.747 13.459-15.641 23.12 4.813-2.454 9.92-6.015 15.59-7.71 6.86-2.049 14.657 1.877 17.721 7.384 3.444 6.189 1.843 11.122-5.135 12.358-7.598 1.348-8.282 6.292-9.009 12.688 8.106-7.532 20.373-10.093 30.031-6.416-1.64 1.74-3.685 3.115-4.548 5.025-1.121 2.485-2.481 5.802-1.695 8.044 4.776 13.609 4.97 13.539-3.398 23.235 9.724-.574 14.742-5.015 18.674-13.643 2.005-4.398 5.857-8.901 10.061-11.14 6.662-3.555 14.319-5.243 22.305-7.979-.208 6.72-4.456 10.28-8.836 12.329-8.81 4.124-11.014 10.734-11.48 19.788-.418 8.153-3.139 16.187-4.695 23.568 5.154-6.251 13.358-10.999 16.095-21.203 2.275-8.491 18.806-13.229 26.619-9.019 4.653 2.506 7.599 6.603 6.519 11.737-1.404 6.632-3.488 13.102-6.218 19.307-4.61 10.474-5.572 17.189-2.442 27.142 1.375-4.697 2.287-9.454 4.168-13.794 1.942-4.481 5.154-9.085 10.85-7.239 6.154 1.994 3.445 7.427 2.875 11.753-.117.885-.402 1.746-.821 3.501 7.287-3.614 10.415.682 13.266 6.959 5.914-4.971 11.958-6 18.365.951 2.066-11.146 2.308-22.277 13.48-28.079l-1.389 31.443 2.401.357c2.256-11.134.574-24.351 14.45-29.702-1.862 12.286-3.661 24.158-5.458 36.029l2.055.436 3.717-11.842c.738-.076 1.474-.154 2.209-.229 1.95 8.343 3.897 16.684 5.94 25.435 4.389-2.701 6.128-6.399 4.289-11.323-2.417-6.478-1.176-12.271 1.701-18.391 2.188-4.661 2.857-10.024 4.268-15.059.65-2.322 1.461-4.598 2.199-6.897l2.721.012c.667 8.163 1.334 16.326 2.03 24.813l11.108-23.512c1.809 15.499-.133 30.595 13.274 40.324 1.074-3.873 2.984-8.808 3.698-13.908.691-4.928.15-10.03.15-15.636 15.421 6.675 10.45 25.983 21.359 34.978 3.198-4.875 6.159-9.619 9.358-14.196 3.732-5.341 4.512-10.624 1.322-16.619-2.672-5.021-3.844-10.448-1.445-16.49 11.242 11.717 17.648 24.497 15.834 40.618 1.926-5.55 3.854-11.099 5.781-16.646 1.995-5.745 1.605-10.751-2.529-15.887-5.703-7.072-5.615-16.719-.867-24.957 2.371 4.135 4.168 8.699 7.212 12.179 3.218 3.67 7.622 6.31 13.208 10.751-2.475-5.426-4.123-9.046-5.777-12.669-1.795-3.925-4.01-7.714-5.304-11.799-2.299-7.27-.232-14.341 4.46-17.317 5.07-3.22 13.786-2.247 19.092 2.73 3.639 3.414 6.59 7.55 9.933 11.28 2.994 3.342 6.104 6.577 10.315 11.095-1.369-6.322-3.309-10.86-3.053-15.27.297-5.063 2.133-10.179 4.074-14.954 1.432-3.519 4.543-6.337 6.103-9.821 1.529-3.426 2.047-7.298 3.35-12.277 3.966 6.599 3.054 12.621 2.714 18.787-.279 5.087.324 10.324 1.344 15.33.396 1.947 3.006 3.45 3.891 4.392 2.141-5.966 4.803-11.284 5.896-16.904 1.675-8.612 2.39-17.418 3.257-26.171.281-2.848-.24-5.778-.391-8.64 8.944-.803 16.824 5.028 20.875 14.865 1.905 4.623 3.671 9.321 5.923 13.771 1.049 2.074 3.107 3.638 4.76 5.491-3.027-10.894-4.834-21.921-9.199-31.822-4.364-9.897-11.291-18.67-17.094-27.933.855-.855 1.713-1.709 2.57-2.563 4.16 2.977 9.354 5.203 12.21 9.128 3.376 4.634 7.188 7.229 12.444 8.677 6.56 1.803 13.02 3.959 20.868 5.311-3.653-4.172-7.681-8.082-10.854-12.589-3.333-4.738-5.95-9.993-8.686-15.122-2.73-5.13-5.217-10.387-8.264-16.496 6.639 1.297 11.374 5.045 15.836 9.331l13.577 13.036c-3.88-11.966-7.267-22.309-10.579-32.672-2.066-6.463-7.063-9.172-13.182-10.511-1.877-.41-3.771-.742-6.096-1.197 9.568-10.829 20.037-7.978 32.537 8.8-.866-19.885-10.023-34.93-22.745-50.442 9.417 1.115 14.03 7.106 19.746 10.974.631-.375 1.262-.75 1.893-1.123l-18.877-38.022 3.28-.219c-.162-.655-.107-1.524-.494-1.832-6.182-4.866-12.369-9.726-18.664-14.444-2.376-1.778-6.512-2.098-4.599-6.86.254-.631-1.003-2.393-1.948-2.893-6.449-3.403-12.778-7.224-19.592-9.693-5.811-2.106-12.212-2.59-18.879-3.893l10.074 4.774c-10.814-2.459-21.001-3.774-29.473 7.796 4.769-1.001 8.218-1.726 13.674-2.87-2.832 2.49-4.152 3.651-6.019 5.29l15.688 1.618-.123 1.188c-4.567.68-9.138 1.362-14.709 2.194 8.146 2.708 15.164 5.038 22.185 7.37-.176.587-.352 1.172-.525 1.759l-21.38-3.293c-.357.667-.715 1.33-1.074 1.995 13.427 5.277 19.87 15.837 23.325 28.749-6.894-5.62-10.391-15.291-20.398-16.477l10.414 15.546c-.416.33-.832.66-1.248.993-3.439-2.975-6.881-5.948-10.322-8.92-.195.193-.393.387-.588.582l14.233 28.047c-.311.135-.624.271-.935.404-6.366-5.897-12.733-11.793-19.102-17.687-.186.302-.373.603-.563.903 2.323 4.602 4.642 9.206 6.965 13.806l-1.702 1.025-11.603-13.76-1.109.825c.699 2.471 1.398 4.939 2.1 7.413-.406.271-.811.539-1.215.807l-4.049-6.126c-.482.299-.969.6-1.452.904l4.122 14.361-1.184.805c-2.695-3-5.392-5.999-8.691-9.665l1.362 8.692c-5.985-4.593-10.438-1.832-14.768 2.158-3.383 3.121-6.935 7.687-9.964-.555-.461-1.252-2.793-1.816-5.934-3.707 2.752.424 3.596.451 4.373.689 10.458 3.207 11.669 2.947 15.895-7.001 3.502-8.249 8.746-15.867 7.914-25.759-.502-5.939 3.003-7.166 8.467-4.297-1.229-4.979-2.532-10.245-3.958-16.022-.682.21-2.456.751-5.503 1.681l2.66-8.197c-1.246.288-2.35.545-4.473 1.038 1.379-4.385 2.553-8.122 3.729-11.857-.318-.235-.637-.468-.957-.702-.625 1.173-1.252 2.346-1.873 3.518-.516-.199-1.027-.396-1.541-.596l1.662-17.463c-1.533-.174-2.902-.328-4.203-.477-.111-.803-.357-1.321-.207-1.672 4.797-11.169-1.219-19.211-7.819-27.087-5.825-6.95-11.747-13.819-17.395-20.907-1.156-1.45-1.283-3.719-1.883-5.611l1.982-1.324c3.704 3.752 7.536 7.387 11.081 11.28 5.366 5.897 11.424 11.43 15.537 18.127 4.154 6.763 6.299 14.756 8.081 23.178l2.48-6.049 1.688.275c-.535 7.112-1.073 14.223-1.608 21.334.525-.144 1.052-.288 1.579-.429l2.066 9.111c2.66-8.365 5.143-16.164 7.625-23.964.291.033.58.067.873.103v13.095c6.813-5.759 6.788-12.911 5.829-21.91 12.349 6.136 23.497 11.671 34.998 17.383l-5.548-7.209 9.861.433c-4.151-4.598-12.656-3.59-13.869-12.339l-19.439-12.506c.229-.559.455-1.119.684-1.678l9.466-.767-20.501-7.961.533-1.801h9.559c-2.75-2.026-4.622-3.404-6.698-4.936l26.937-7.541-.012-.989h-12.367l8.764-11.151h-16.693c2.441-2.327 3.656-3.482 5.707-5.437-3.748-.591-6.707-1.056-9.668-1.521l-.517-1.348 13.065-5.092h-19.063c-.139-.372-.275-.746-.412-1.118l9.539-4.301c-4.302-.455-7.795-.828-11.285-1.196-.025-.423-.051-.843-.078-1.263 2.287-1.003 4.575-2.004 7.603-3.329l-4.995-2.063c6.703-3.729 12.814-7.125 18.766-10.436-7.619-4.333-14.608-11.772-25.477-7.288l-.406-2.254c3.516-1.625 6.906-4.137 10.581-4.664 5.313-.761 10.835-.028 16.264-.104.584-.006 1.154-1.133 1.73-1.742 6.679 1.24 13.354 2.478 19.582 3.632-5.696 2.884-12.313 4.604-19.221 1.276-6.913-3.334-13.688-2.318-20.931.984 10.141 3.233 20.421 6.089 30.352 9.864 4.518 1.718 8.343 5.253 11.971 8.865-9.391-4.485-18.553-7.636-28.598-3.96 6.429 3.94 12.518 7.704 18.635 11.417 6.298 3.825 8.452 9.786 8.995 16.727 1.29 16.546-1.031 32.267-10.257 46.492-.604.935-1.053 1.975-1.992 3.763l16.172 6.743-4.446 2.549c.585-.591 1.169-1.182 1.755-1.771l11.674 12.009-2.516 2.933c-3.072-1.015-6.145-2.03-9.25-3.058-2.134 8.93 2.432 13.061 9.799 15.727 3.397 1.228 6.685 3.065 9.594 5.208 1.322.976 1.574 3.373 2.383 5.094.338.72.725 1.513 1.316 2 8.694 7.185 17.426 14.325 27.126 22.275l-8.071 1.751c5.951 14.329 11.928 28.714 17.902 43.101-.25.432-.5.867-.752 1.299-4.385-2.979-8.767-5.952-14.027-9.524 9.629 16.566 14.863 33.705 10.744 54.197-3.11-6.78-5.743-12.542-8.393-18.301-3.467-7.532-7.422-9.688-17.357-8.228 11.162 2.273 14.195 9.933 15.57 18.061 2.391 14.146 6.376 26.692 22.681 30.835-14.904 2.698-26.399-2.098-34.896-14.808.256 10.05 1.578 12.933 11.009 21.498 8.239 7.483 10.428 16.771 9.063 27.3-.152 1.18-.912 2.279-2.021 3.689-.811-13.938-10.979-16.958-21.513-19.232-7.662-1.65-14.499-4.193-17.975-12.128l-1.551 1.145c2.507 3.915 4.481 8.339 7.635 11.638 5.717 5.989 8.574 13.102 8.848 20.952.363 10.558 3.691 18.637 14.943 22.08-7.651 3.833-16.467 1.256-21.637-6.522-2.738-4.119-3.976-9.219-6.616-13.423-3.354-5.339-7.44-10.216-11.212-15.291-.697.398-1.396.799-2.094 1.2 0 4.443.541 8.975-.123 13.319-1.092 7.132-2.021 14.54-4.788 21.084-2.614 6.183-3.749 11.108 2.219 16.158-5.12 2.953-9.798 2.744-13.81-.238-7.425-5.521-7.085-13.667-6.144-21.945-11.87 10.841-10.665 19.92 4.636 43.729-4.829-2.447-10.289-4.139-14.338-7.519-6.081-5.074-11.1-11.407-16.727-17.048-2.713-2.722-5.455-5.698-8.769-7.474-8.032-4.315-15.308.506-14.146 9.45.539 4.143 2.521 8.21 4.398 12.042 3.721 7.608 8.024 15.066 6.564 23.954-.611 3.729-2.268 7.288-4.58 10.882 2.191-15.016-8.766-20.672-19.166-26.923 1.588 3.337 2.502 7.302 4.904 9.89 5.101 5.499 5.25 11.231 2.903 17.711-3.454 9.528-6.8 19.094-10.894 30.615-1.646-4.962-3.604-8.688-4.004-12.574-.607-5.866.375-11.896-.279-17.748-.467-4.182-2.515-8.188-5.329-12.167 6.034 11.062.773 19.309-5.675 27.364-3.568 4.459-4.613 9.351-1.738 14.685-7.005.24-12.9-3.967-16.02-12.187-2.514-6.632-4.266-13.55-7.145-20.27-1.256 14.513-6.877 26.62-17.086 38.215l3.07-18.879c-3.57 2.84-5.736 4.561-7.903 6.284l-1.939-.254c7.358-10.259 2.238-18.872-3.505-29.174-2.139 6.437-4.918 11.781-5.482 17.35-.578 5.702 1.018 11.623.596 17.762-2.492-6.074-6.272-11.978-7.126-18.277-.876-6.472 1.1-13.327 1.524-20.078-2.823 8.511-9.361 15.773-5.305 26.335 3.049 7.944-2.962 13.896-13.379 15.756v-21.032c-4.578 6.478-6.982 13.957-13.58 16.119 1.347-10.69 2.735-21.725 4.123-32.753l-1.896-.385c-2.29 9.484-.33 20.725-10.048 26.822l-2.272-36.193c-4.114 6.362-2.994 12.953-3.187 19.386-.192 6.424-1.014 12.831-1.558 19.244l-2.054-.057c-.667-4.021-1.164-8.077-2.042-12.049-1.1-4.975-3.436-9.538-9.255-9.263-5.694.27-6.787 5.257-7.626 9.881-.236 1.297-.368 2.611-1.677 4.107-1.053-4.256-1.84-8.604-3.267-12.73-.741-2.137-2.616-3.885-3.978-5.807-1.727 1.893-3.637 3.652-5.097 5.729-.707 1.009-.567 2.608-.811 3.938l-1.712.168c-.505-4.079-1.486-8.169-1.38-12.231.105-4.04 1.305-8.048.975-12.332-12.589 6.579-8.237 19.43-11.259 31.605-7.797-12.41-10.669-23.546-6.813-35.791 1.357-4.312 3.828-8.261 5.555-12.471 1.376-3.357 2.877-6.777 3.476-10.313 1.264-7.474-3.506-12.54-11.103-11.733-8.161.871-15.042 3.738-17.228 12.963-.609 2.566-1.9 5.42-3.785 7.16-6.467 5.97-13.724 11.213-15.084 21.188-4.673-6.234-3.28-11.997-1.179-18.106 1.961-5.696 4.199-11.701 4.22-17.576.038-10.581 2.764-18.814 13.077-23.276.76-.332 1.314-1.141 2.918-2.586-11.322 1.473-19.364 4.23-22.857 15.787-3.776 12.491-26.696 19.229-38.28 11.077 3.342-.541 5.645-.887 7.936-1.289 12.05-2.106 15.459-9.421 10.731-20.429-1.612-3.752-.255-8.776-.255-13.337-14.473-1.318-18.008 1.324-13.409 13.239-5.202-3.334-10.87-4.283-10.892-10.093-.021-5.549.985-11.522 7.748-13.872 3.39-1.18 9.419-1.248 7.455-6.448-1.279-3.387-6.177-6.858-9.974-7.585-12.848-2.465-19.789 4.993-20.83 21.047-6.021-6.941-6.447-20.322 1.634-30.517 6.607-8.335 15.894-14.548 23.414-21.193-17.69 2.713-19.551-1.322-35.599 17.75.213-4.276-.264-7.179.59-9.614 3.279-9.364 8.038-17.748 16.194-24.022 4.931-3.793 9.205-8.438 13.221-13.331-14.057 8.129-32.105 8.263-42.606 22.721-.621-.416-1.242-.834-1.862-1.252 1.471-3.459 2.165-7.634 4.568-10.229 5.531-5.97 11.423-11.833 18.033-16.529 9.708-6.896 17.052-14.911 19.015-28.571-8.292 8.292-13.506 19.309-26.457 19.029l10.117-30.94c-2.84 1.592-4.957 2.773-7.073 3.957l-1.59-1.586c6.909-8.345 13.817-16.687 20.751-25.058l-7.516.455-.431-1.348 7.885-4.304-9.508-.95c13.733-8.14 26.836-15.908 39.94-23.674l-.701-1.556c-2.707.283-5.412.566-8.119.852l-1.009-2.308c12.346-6.365 24.693-12.729 37.172-19.164.188.205-.082-.254-.485-.482-.569-.318-1.235-.467-2.367-.868l7.002-5.854-28.079 4.193c10.437-5.479 19.043-9.996 29.372-15.42h-11.914l6.556-5.246c-2.982-5.719-6.181-11.408-8.935-17.307-1.528-3.273-2.971-6.836-3.297-10.374-.713-7.732-2.981-13.318-11.42-15.959-5.711-1.789-8.09-7.46-8.974-14.751 3.912 2.844 7.949 5.78 11.985 8.719.572-.553 1.144-1.104 1.715-1.658l-7.722-18.912c5.092 5.827 9.16 10.481 13.226 15.139l1.548-.891-10.96-18.95 15.092 11.813c6.106-10.861 16.033-15.686 29.471-14.861-5.826-2.989-10.865-5.576-15.904-8.163.279-.42.56-.837.84-1.255l16.579 2.078c-2.914-7.901-7.503-10.193-15.377-9.089-3.863.543-7.796.572-11.746.297 12.482-7.046 24.495-6.885 35.842 1.951-2.659-3.515-4.822-7.626-8.123-10.371-3.139-2.611-7.777-5.757-11.215-5.219-8.845 1.383-15.554-1.556-22.369-7.375 23.293-.62 45.314 3.084 66.829 11.319-7.809-6.208-15.473-12.613-23.53-18.482-1.908-1.39-5.133-.976-7.575-2.005 16.625-.239 30.934 6.635 45.018 13.735 1.263-6.013-.906-9.924-8.029-12.674-4.377-1.69-8.768-3.344-13.153-5.015l.653-1.961 38.2 10.341c-2.023-2.643-4.94-6.451-7.857-10.258z"
    />
  </g>
</svg>
