<svg clip-rule="evenodd" fill-rule="evenodd" stroke-miterlimit="1.5" viewBox="0 0 800 600" xmlns="http://www.w3.org/2000/svg">
  <g fill="none">
    <path d="m0 0h800v600h-800z" />
    <g stroke="#2e3440" stroke-width="2">
      <path d="m26.873 229.623h140.754v140.754h-140.754z" />
      <g stroke-linecap="square" stroke-linejoin="round">
        <path d="m187.627 359.477h585.5" />
        <path d="m187.627 240.523h585.5" />
      </g>
    </g>
  </g>
  <g fill="#2e3440" fill-rule="nonzero">
    <path
      d="m102.624 328.494 26.691-54.454h2.574l26.692 54.454h-2.251l-25.727-52.525-25.728 52.525zm-12.25 0-54.455-26.692v-2.573l54.455-26.69v2.251l-52.525 25.726 52.525 25.726z"
    />
    <path d="m226.965 337.332v1.9h-19.342v-29.03h18.974v1.9h-16.894v11.392h14.758v1.81h-14.758v12.028z" />
    <path
      d="m249.127 315.037c-.465-.518-.981-.974-1.549-1.366s-1.181-.72-1.84-.984c-.658-.263-1.367-.464-2.125-.603s-1.574-.209-2.446-.209c-2.829 0-4.893.541-6.192 1.621-1.299 1.081-1.949 2.533-1.949 4.356 0 1.233.295 2.207.886 2.921s1.513 1.288 2.766 1.723 2.866.865 4.839 1.289c2.094.436 3.907.948 5.439 1.537 1.533.589 2.714 1.385 3.543 2.389.828 1.004 1.243 2.371 1.243 4.1 0 1.268-.247 2.383-.741 3.344s-1.198 1.761-2.114 2.398c-.916.638-2.011 1.117-3.284 1.438-1.274.321-2.683.481-4.228.481-1.518 0-2.956-.16-4.314-.481s-2.633-.801-3.826-1.438c-1.193-.638-2.319-1.437-3.379-2.398l1.118-1.668c.604.631 1.28 1.198 2.028 1.701.749.503 1.566.938 2.452 1.304s1.831.647 2.837.84c1.005.194 2.053.29 3.143.29 2.529 0 4.514-.47 5.956-1.41 1.441-.939 2.162-2.33 2.162-4.171 0-1.288-.332-2.324-.995-3.107-.663-.784-1.671-1.428-3.024-1.933-1.353-.504-3.051-.975-5.094-1.411-2.053-.445-3.794-.938-5.221-1.478s-2.505-1.276-3.234-2.207-1.093-2.183-1.093-3.755c0-1.762.431-3.25 1.292-4.462.862-1.213 2.068-2.131 3.618-2.755 1.551-.624 3.336-.936 5.356-.936 1.263 0 2.43.125 3.5.375s2.062.624 2.975 1.122c.912.498 1.762 1.134 2.549 1.907z"
    />
    <path d="m256.851 339.232v-29.03h2.08v27.13h17.334v1.9z" />
    <path d="m280.525 310.202h2.08v29.03h-2.08z" />
    <path d="m291.518 314.088v25.144h-2.08v-29.03h1.714l20.235 25.571v-25.553h2.081v29.012h-2.005z" />
    <path d="m341.438 312.102h-10.634v27.13h-2.081v-27.13h-10.634v-1.9h23.349z" />
    <path
      d="m353.23 324.512c0-1.756.307-3.486.92-5.19.614-1.703 1.509-3.257 2.687-4.661 1.179-1.404 2.619-2.525 4.321-3.364s3.643-1.259 5.824-1.259c2.589 0 4.796.593 6.619 1.779s3.177 2.705 4.061 4.559l-1.716.967c-.663-1.333-1.495-2.396-2.495-3.187-1.001-.79-2.073-1.355-3.217-1.693-1.144-.337-2.282-.506-3.416-.506-1.837 0-3.47.365-4.901 1.095s-2.637 1.709-3.619 2.937c-.982 1.227-1.722 2.592-2.221 4.093-.499 1.502-.748 3.025-.748 4.571 0 1.697.294 3.321.882 4.871s1.408 2.925 2.46 4.125c1.051 1.201 2.282 2.152 3.692 2.855 1.409.703 2.935 1.055 4.578 1.055 1.161 0 2.349-.2 3.564-.6s2.355-1.017 3.419-1.85c1.064-.834 1.921-1.911 2.573-3.232l1.788.854c-.631 1.444-1.573 2.671-2.827 3.68-1.254 1.008-2.643 1.771-4.168 2.289-1.524.518-3.029.777-4.513.777-1.974 0-3.789-.429-5.445-1.288-1.655-.858-3.089-2.003-4.302-3.434s-2.149-3.04-2.809-4.825-.991-3.591-.991-5.418z"
    />
    <path
      d="m395.031 339.436c-2.015 0-3.853-.413-5.516-1.238s-3.097-1.936-4.302-3.332-2.135-2.973-2.789-4.732c-.654-1.758-.981-3.564-.981-5.417 0-1.936.343-3.782 1.031-5.54.687-1.759 1.647-3.326 2.88-4.702 1.232-1.377 2.676-2.467 4.331-3.271 1.656-.804 3.449-1.207 5.381-1.207 2.029 0 3.871.423 5.527 1.268 1.655.845 3.079 1.976 4.27 3.394 1.192 1.417 2.115 2.998 2.769 4.742.654 1.745.981 3.523.981 5.334 0 1.95-.34 3.805-1.022 5.563-.681 1.758-1.638 3.325-2.871 4.702-1.232 1.376-2.673 2.46-4.32 3.25-1.648.791-3.438 1.186-5.369 1.186zm-11.49-14.719c0 1.654.281 3.25.841 4.786.561 1.537 1.354 2.905 2.378 4.105 1.025 1.201 2.242 2.152 3.651 2.855 1.41.703 2.955 1.055 4.637 1.055 1.737 0 3.31-.365 4.719-1.096 1.409-.73 2.616-1.709 3.619-2.936 1.004-1.228 1.776-2.603 2.317-4.126.541-1.522.812-3.07.812-4.643 0-1.655-.284-3.247-.853-4.778-.568-1.53-1.368-2.899-2.398-4.105-1.031-1.206-2.244-2.158-3.64-2.855s-2.921-1.045-4.576-1.045c-1.736 0-3.313.362-4.73 1.086s-2.627 1.7-3.63 2.928c-1.004 1.227-1.779 2.599-2.326 4.116s-.821 3.068-.821 4.653z"
    />
    <path d="m416.469 314.088v25.144h-2.08v-29.03h1.714l20.235 25.571v-25.553h2.081v29.012h-2.005z" />
    <path d="m446.118 339.232v-29.03h18.902v1.9h-16.822v11.495h14.276v1.81h-14.276v13.825z" />
    <path d="m470.732 310.202h2.08v29.03h-2.08z" />
    <path
      d="m491.275 339.436c-1.969 0-3.786-.419-5.45-1.258-1.665-.839-3.106-1.965-4.325-3.376-1.219-1.412-2.166-2.993-2.839-4.743-.674-1.751-1.011-3.543-1.011-5.378 0-1.917.329-3.755.988-5.513s1.587-3.326 2.784-4.704c1.198-1.379 2.61-2.467 4.236-3.267 1.627-.8 3.408-1.2 5.343-1.2 2.914 0 5.258.59 7.031 1.77s3.123 2.702 4.049 4.568l-1.679 1.003c-.982-1.888-2.289-3.264-3.921-4.127-1.631-.863-3.47-1.295-5.516-1.295-1.716 0-3.265.359-4.647 1.077-1.382.719-2.563 1.688-3.544 2.91-.98 1.221-1.729 2.593-2.248 4.116-.518 1.523-.777 3.089-.777 4.698 0 1.706.297 3.327.893 4.864.596 1.536 1.426 2.901 2.489 4.096 1.064 1.194 2.301 2.132 3.71 2.816 1.41.683 2.93 1.025 4.561 1.025 1.86 0 3.623-.457 5.29-1.371 1.667-.913 3.267-2.349 4.801-4.306v2.317c-2.891 3.519-6.297 5.278-10.218 5.278zm9.745-12.629h-6.575v-1.684h8.404v14.109h-1.829z"
    />
    <path d="m538.882 312.102h-10.634v27.13h-2.081v-27.13h-10.634v-1.9h23.349z" />
    <path d="m542.419 310.202 10.139 16.088 10.197-16.088h2.294l-11.451 18.075v10.955h-2.081v-11.037l-11.409-17.993z" />
    <path
      d="m569.352 339.232v-29.03h11.942c1.235 0 2.366.258 3.391.774s1.913 1.206 2.666 2.069c.752.863 1.339 1.828 1.76 2.894.421 1.065.631 2.156.631 3.27 0 1.536-.343 2.996-1.029 4.381s-1.639 2.51-2.859 3.373-2.651 1.294-4.292 1.294h-10.13v10.975zm2.08-12.875h10.04c1.268 0 2.364-.341 3.288-1.023.925-.682 1.637-1.571 2.135-2.665.499-1.094.748-2.248.748-3.46 0-1.282-.291-2.463-.873-3.544s-1.359-1.945-2.332-2.592c-.974-.647-2.052-.971-3.234-.971h-9.772z"
    />
    <path d="m614.002 337.332v1.9h-19.341v-29.03h18.973v1.9h-16.893v11.392h14.758v1.81h-14.758v12.028z" />
    <path
      d="m636.164 315.037c-.464-.518-.98-.974-1.548-1.366s-1.181-.72-1.84-.984c-.658-.263-1.367-.464-2.125-.603-.759-.139-1.574-.209-2.446-.209-2.83 0-4.894.541-6.193 1.621-1.299 1.081-1.948 2.533-1.948 4.356 0 1.233.295 2.207.886 2.921s1.513 1.288 2.766 1.723 2.866.865 4.839 1.289c2.093.436 3.906.948 5.439 1.537s2.714 1.385 3.542 2.389c.829 1.004 1.243 2.371 1.243 4.1 0 1.268-.247 2.383-.74 3.344-.494.961-1.199 1.761-2.115 2.398-.915.638-2.01 1.117-3.284 1.438-1.273.321-2.682.481-4.227.481-1.518 0-2.956-.16-4.314-.481s-2.633-.801-3.826-1.438c-1.193-.638-2.32-1.437-3.379-2.398l1.118-1.668c.604.631 1.28 1.198 2.028 1.701s1.566.938 2.451 1.304c.886.366 1.832.647 2.837.84 1.006.194 2.054.29 3.144.29 2.528 0 4.514-.47 5.955-1.41 1.442-.939 2.163-2.33 2.163-4.171 0-1.288-.332-2.324-.995-3.107-.664-.784-1.672-1.428-3.025-1.933-1.352-.504-3.05-.975-5.093-1.411-2.054-.445-3.794-.938-5.221-1.478-1.428-.54-2.505-1.276-3.234-2.207s-1.093-2.183-1.093-3.755c0-1.762.431-3.25 1.292-4.462.862-1.213 2.068-2.131 3.618-2.755s3.336-.936 5.356-.936c1.263 0 2.43.125 3.5.375s2.062.624 2.974 1.122c.913.498 1.763 1.134 2.55 1.907z"
    />
    <path
      d="m641.894 324.512c0-1.756.306-3.486.92-5.19.613-1.703 1.509-3.257 2.687-4.661s2.618-2.525 4.32-3.364 3.644-1.259 5.824-1.259c2.59 0 4.796.593 6.619 1.779s3.177 2.705 4.061 4.559l-1.715.967c-.664-1.333-1.496-2.396-2.496-3.187-1-.79-2.072-1.355-3.216-1.693-1.144-.337-2.283-.506-3.416-.506-1.837 0-3.471.365-4.902 1.095-1.43.73-2.637 1.709-3.619 2.937-.981 1.227-1.722 2.592-2.221 4.093-.498 1.502-.748 3.025-.748 4.571 0 1.697.294 3.321.882 4.871s1.408 2.925 2.46 4.125c1.052 1.201 2.282 2.152 3.692 2.855 1.409.703 2.936 1.055 4.578 1.055 1.161 0 2.349-.2 3.564-.6 1.216-.4 2.355-1.017 3.419-1.85 1.064-.834 1.922-1.911 2.573-3.232l1.788.854c-.63 1.444-1.573 2.671-2.826 3.68-1.254 1.008-2.644 1.771-4.168 2.289-1.525.518-3.029.777-4.513.777-1.975 0-3.79-.429-5.445-1.288-1.655-.858-3.089-2.003-4.302-3.434s-2.15-3.04-2.81-4.825-.99-3.591-.99-5.418z"
    />
    <path
      d="m672.387 339.232v-29.03h12.087c1.235 0 2.366.258 3.391.774s1.913 1.206 2.666 2.069c.752.863 1.339 1.828 1.76 2.894.421 1.065.631 2.156.631 3.27 0 1.427-.286 2.767-.859 4.02-.573 1.252-1.369 2.301-2.389 3.146s-2.212 1.37-3.575 1.576l7.215 11.281h-2.388l-7.035-10.975h-9.424v10.975zm2.08-12.875h10.185c1.268 0 2.36-.341 3.277-1.021.917-.681 1.628-1.568 2.135-2.663.506-1.094.759-2.249.759-3.464 0-1.258-.291-2.427-.873-3.507-.582-1.081-1.359-1.951-2.333-2.611-.973-.659-2.051-.989-3.233-.989h-9.917z"
    />
    <path d="m698.637 310.202h2.08v29.03h-2.08z" />
    <path
      d="m707.55 339.232v-29.03h11.942c1.236 0 2.366.258 3.391.774s1.914 1.206 2.666 2.069 1.339 1.828 1.76 2.894c.421 1.065.632 2.156.632 3.27 0 1.536-.343 2.996-1.029 4.381s-1.639 2.51-2.859 3.373c-1.221.863-2.651 1.294-4.292 1.294h-10.131v10.975zm2.08-12.875h10.041c1.267 0 2.363-.341 3.288-1.023.924-.682 1.636-1.571 2.135-2.665s.748-2.248.748-3.46c0-1.282-.291-2.463-.873-3.544s-1.36-1.945-2.333-2.592-2.051-.971-3.234-.971h-9.772z"
    />
    <path d="m753.131 312.102h-10.634v27.13h-2.081v-27.13h-10.634v-1.9h23.349z" />
    <path
      d="m387.649 265.563c-.464-.519-.981-.974-1.548-1.367-.568-.392-1.182-.72-1.84-.983-.659-.264-1.368-.465-2.126-.604s-1.574-.208-2.446-.208c-2.829 0-4.893.54-6.192 1.621s-1.949 2.533-1.949 4.355c0 1.234.296 2.208.886 2.922.591.713 1.513 1.288 2.766 1.723 1.253.434 2.867.864 4.839 1.288 2.094.436 3.907.949 5.44 1.538 1.532.588 2.713 1.385 3.542 2.389.828 1.004 1.243 2.37 1.243 4.099 0 1.269-.247 2.383-.741 3.345-.493.961-1.198 1.76-2.114 2.398-.916.637-2.011 1.116-3.284 1.437-1.274.321-2.683.481-4.228.481-1.517 0-2.955-.16-4.313-.481s-2.634-.8-3.827-1.438-2.319-1.437-3.379-2.397l1.118-1.668c.604.63 1.28 1.197 2.029 1.7.748.503 1.565.938 2.451 1.304.886.367 1.831.647 2.837.841 1.005.193 2.053.29 3.143.29 2.529 0 4.514-.47 5.956-1.41 1.441-.94 2.162-2.33 2.162-4.171 0-1.289-.331-2.324-.995-3.108-.663-.783-1.671-1.427-3.024-1.932s-3.051-.975-5.093-1.411c-2.054-.445-3.795-.938-5.222-1.478-1.427-.541-2.505-1.276-3.234-2.208-.729-.931-1.093-2.183-1.093-3.755 0-1.762.431-3.249 1.293-4.462.861-1.213 2.067-2.131 3.617-2.754 1.551-.624 3.336-.936 5.357-.936 1.262 0 2.429.125 3.499.375 1.071.249 2.062.623 2.975 1.121.913.499 1.762 1.134 2.55 1.907z"
    />
    <path d="m393.732 260.727 11.07 26.42 11.03-26.42h2.216l-12.255 29.03h-1.982l-12.273-29.03z" />
    <path d="m441.782 287.857v1.9h-19.341v-29.03h18.973v1.9h-16.893v11.393h14.757v1.809h-14.757v12.028z" />
    <path d="m449.748 264.614v25.143h-2.08v-29.03h1.713l20.236 25.571v-25.553h2.08v29.012h-2.004z" />
    <path
      d="m501.698 289.962c-1.969 0-3.786-.42-5.45-1.259-1.665-.839-3.107-1.964-4.325-3.376-1.219-1.411-2.166-2.992-2.84-4.743-.673-1.75-1.01-3.543-1.01-5.377 0-1.917.329-3.755.988-5.513.658-1.758 1.587-3.327 2.784-4.705 1.198-1.378 2.61-2.467 4.236-3.267 1.627-.799 3.407-1.199 5.343-1.199 2.914 0 5.257.59 7.03 1.77 1.773 1.179 3.123 2.702 4.05 4.567l-1.679 1.003c-.982-1.888-2.289-3.263-3.921-4.127-1.632-.863-3.471-1.295-5.517-1.295-1.715 0-3.264.36-4.646 1.078s-2.564 1.688-3.544 2.909c-.98 1.222-1.73 2.594-2.248 4.116-.518 1.523-.778 3.089-.778 4.698 0 1.706.298 3.328.894 4.864.595 1.537 1.425 2.902 2.489 4.096s2.301 2.133 3.71 2.816 2.929 1.025 4.56 1.025c1.861 0 3.624-.457 5.291-1.37 1.667-.914 3.267-2.349 4.801-4.307v2.317c-2.891 3.519-6.297 5.279-10.218 5.279zm9.745-12.629h-6.575v-1.684h8.403v14.108h-1.828z"
    />
    <path
      d="m519.507 289.757v-29.03h12.086c1.236 0 2.366.258 3.391.775 1.025.516 1.914 1.206 2.666 2.069s1.339 1.827 1.76 2.893.632 2.156.632 3.271c0 1.426-.287 2.766-.86 4.019s-1.369 2.302-2.389 3.147-2.211 1.37-3.574 1.575l7.215 11.281h-2.389l-7.035-10.974h-9.423v10.974zm2.08-12.875h10.185c1.267 0 2.359-.34 3.276-1.021.917-.68 1.629-1.568 2.135-2.662.507-1.094.76-2.249.76-3.464 0-1.258-.291-2.427-.873-3.508s-1.36-1.951-2.333-2.61c-.974-.66-2.052-.99-3.234-.99h-9.916z"
    />
    <path d="m565.098 287.857v1.9h-19.342v-29.03h18.974v1.9h-16.894v11.393h14.758v1.809h-14.758v12.028z" />
    <path
      d="m592.376 282.252c0 1.408-.351 2.678-1.054 3.811-.702 1.133-1.643 2.032-2.824 2.697s-2.487.997-3.918.997h-13.596v-29.03h13.542c1.362 0 2.541.362 3.536 1.084s1.758 1.649 2.29 2.78c.531 1.131.797 2.31.797 3.537 0 1.448-.369 2.788-1.106 4.021-.738 1.233-1.759 2.141-3.064 2.725 1.662.491 2.978 1.413 3.945 2.765.968 1.352 1.452 2.89 1.452 4.613zm-2.099-.289c0-1.051-.236-2.027-.707-2.928-.472-.9-1.113-1.632-1.926-2.194-.812-.562-1.738-.844-2.778-.844h-11.802v11.896h11.516c1.067 0 2.03-.285 2.889-.855.86-.57 1.543-1.306 2.049-2.208s.759-1.857.759-2.867zm-17.213-19.371v11.632h10.657c1.055 0 1.981-.279 2.779-.837.797-.558 1.427-1.282 1.891-2.17s.695-1.822.695-2.8c0-1.064-.218-2.033-.654-2.908-.437-.875-1.04-1.58-1.81-2.115s-1.655-.802-2.656-.802z"
    />
  </g>
</svg>
